<svg width="80" height="80" viewBox="0 0 80 80" fill="none" xmlns="http://www.w3.org/2000/svg">
<path fill-rule="evenodd" clip-rule="evenodd" d="M75.0001 40C75.0001 39.3369 74.7367 38.7011 74.2678 38.2322C73.799 37.7634 73.1631 37.5 72.5001 37.5H13.5351L29.2701 21.77C29.5025 21.5375 29.6869 21.2616 29.8127 20.9579C29.9385 20.6542 30.0032 20.3287 30.0032 20C30.0032 19.6713 29.9385 19.3458 29.8127 19.0421C29.6869 18.7384 29.5025 18.4624 29.2701 18.23C29.0376 17.9975 28.7617 17.8132 28.458 17.6874C28.1543 17.5616 27.8288 17.4968 27.5001 17.4968C27.1714 17.4968 26.8459 17.5616 26.5422 17.6874C26.2385 17.8132 25.9625 17.9975 25.7301 18.23L5.73007 38.23C5.49726 38.4622 5.31254 38.7381 5.18651 39.0418C5.06048 39.3455 4.99561 39.6711 4.99561 40C4.99561 40.3288 5.06048 40.6544 5.18651 40.9581C5.31254 41.2619 5.49726 41.5378 5.73007 41.77L25.7301 61.77C25.9625 62.0024 26.2385 62.1868 26.5422 62.3126C26.8459 62.4384 27.1714 62.5031 27.5001 62.5031C27.8288 62.5031 28.1543 62.4384 28.458 62.3126C28.7617 62.1868 29.0376 62.0024 29.2701 61.77C29.5025 61.5375 29.6869 61.2616 29.8127 60.9579C29.9385 60.6542 30.0032 60.3287 30.0032 60C30.0032 59.6713 29.9385 59.3458 29.8127 59.0421C29.6869 58.7384 29.5025 58.4624 29.2701 58.23L13.5351 42.5H72.5001C73.1631 42.5 73.799 42.2366 74.2678 41.7678C74.7367 41.2989 75.0001 40.663 75.0001 40Z" fill="#0C4A6E"/>
</svg>
