<svg width="241" height="144" viewBox="0 0 241 144" fill="none" xmlns="http://www.w3.org/2000/svg">
<path d="M48.1999 136.286C43.7815 136.286 39.7649 135.604 35.7482 134.582C19.2799 129.812 8.0332 116.865 8.0332 102.214C8.0332 92.3337 12.8532 83.1344 21.6899 76.6609C24.0999 74.9573 26.5099 73.5945 29.3215 72.2316L32.1332 64.3952C38.9615 44.6337 60.2499 31.0052 84.3499 31.0052C86.7599 31.0052 89.1699 31.0052 91.9815 31.6866C94.3915 32.0273 96.3999 32.368 98.4082 32.7087L99.6132 31.0052C109.253 16.0137 127.73 6.81445 147.813 6.81445C178.34 6.81445 202.842 27.9387 202.842 53.4923C202.842 54.8552 202.842 55.8773 202.44 57.2402V58.2623C204.85 58.9437 207.26 59.9659 209.268 60.988C224.13 68.143 232.967 81.4309 232.967 96.0816C232.967 114.821 217.703 131.175 196.013 135.264C192.398 135.945 188.783 136.286 185.57 136.286H48.1999Z" fill="white"/>
<path d="M147.412 13.6286C173.52 13.6286 194.407 31.6864 194.407 53.4921V56.5586C183.562 57.24 173.52 60.9879 165.888 66.78C171.512 64.0543 178.34 62.3507 185.57 62.3507C188.382 62.3507 190.792 62.6914 193.202 63.0321C197.62 63.7136 201.637 65.0764 205.252 66.78C216.9 72.5721 224.933 83.475 224.933 95.7407C224.933 111.754 211.678 125.042 194.407 128.449C191.595 129.131 188.783 129.471 185.57 129.471H48.2C44.585 129.471 41.3717 129.131 38.1583 128.109C25.305 124.361 16.0667 114.139 16.0667 102.214C16.0667 94.0371 20.485 86.5414 26.9117 81.7714C30.125 79.3864 33.3383 77.6829 37.355 76.6607C40.5683 75.6386 44.1833 74.9571 47.7983 74.9571C58.2417 74.9571 67.48 79.0457 73.1033 85.5193H73.505C66.6767 74.9571 53.8233 67.4614 38.9617 66.0986C44.585 49.7443 62.2583 37.4786 83.5467 37.4786C85.9567 37.4786 87.965 37.8193 89.9733 37.8193C94.3917 38.5007 98.4083 39.1821 102.023 40.8857C116.082 46.3371 126.525 57.5807 128.935 71.2093V70.8686C128.935 55.5364 119.697 41.9079 105.638 34.0714C114.475 21.8057 129.738 13.6286 147.412 13.6286ZM147.412 0C125.722 0 105.638 9.54 93.99 24.8721C93.5883 24.8721 93.1867 24.8721 92.785 24.5314C89.5717 24.1907 86.76 23.85 83.9483 23.85C56.2333 23.85 31.7317 39.5229 24.1 62.3507L22.0917 67.8021C20.0833 68.8243 18.075 70.1871 16.4683 71.55C6.025 79.0457 0 90.2893 0 102.214C0 119.931 13.255 135.604 32.9367 141.056C37.7567 142.419 42.9783 143.1 48.2 143.1H185.57C189.587 143.1 194.005 142.759 198.022 141.737C223.327 136.626 241 117.887 241 95.7407C241 79.0457 230.155 63.3729 213.285 54.855L210.875 53.8329V53.4921C210.473 24.1907 182.357 0 147.412 0Z" fill="#75D6FF"/>
</svg>
