<svg width="20" height="20" viewBox="0 0 20 20" fill="none" xmlns="http://www.w3.org/2000/svg">
<path d="M13.7287 4.50668L15.4937 6.27084M14.8637 2.95251L10.0912 7.72501C9.84457 7.97126 9.67639 8.28499 9.60783 8.62668L9.16699 10.8333L11.3737 10.3917C11.7153 10.3233 12.0287 10.1558 12.2753 9.90918L17.0478 5.13668C17.1912 4.99326 17.305 4.823 17.3826 4.63562C17.4602 4.44824 17.5002 4.24741 17.5002 4.04459C17.5002 3.84177 17.4602 3.64094 17.3826 3.45356C17.305 3.26618 17.1912 3.09592 17.0478 2.95251C16.9044 2.80909 16.7342 2.69533 16.5468 2.61772C16.3594 2.5401 16.1586 2.50015 15.9557 2.50015C15.7529 2.50015 15.5521 2.5401 15.3647 2.61772C15.1773 2.69533 15.0071 2.80909 14.8637 2.95251Z" stroke="#0C4A6E" stroke-width="2" stroke-linecap="round" stroke-linejoin="round"/>
<path d="M15.8335 12.5V15C15.8335 15.442 15.6579 15.866 15.3453 16.1785C15.0328 16.4911 14.6089 16.6667 14.1668 16.6667H5.00016C4.55814 16.6667 4.13421 16.4911 3.82165 16.1785C3.50909 15.866 3.3335 15.442 3.3335 15V5.83335C3.3335 5.39133 3.50909 4.9674 3.82165 4.65484C4.13421 4.34228 4.55814 4.16669 5.00016 4.16669H7.50016" stroke="#0C4A6E" stroke-width="2" stroke-linecap="round" stroke-linejoin="round"/>
</svg>
