<svg width="346" height="100" viewBox="0 0 346 100" fill="none" xmlns="http://www.w3.org/2000/svg">
<g filter="url(#filter0_d_212_2917)">
<ellipse cx="167" cy="45" rx="147" ry="24" fill="#BAE6FD"/>
<path d="M313.5 45C313.5 46.4341 312.61 47.9233 310.702 49.446C308.801 50.9627 305.966 52.4479 302.268 53.8754C294.877 56.7285 284.152 59.3076 270.864 61.4771C244.296 65.8147 207.575 68.5 167 68.5C126.425 68.5 89.7037 65.8147 63.1359 61.4771C49.848 59.3076 39.1234 56.7285 31.732 53.8754C28.0338 52.4479 25.1993 50.9627 23.2984 49.446C21.3899 47.9233 20.5 46.4341 20.5 45C20.5 43.5659 21.3899 42.0767 23.2984 40.554C25.1993 39.0373 28.0338 37.5521 31.732 36.1246C39.1234 33.2715 49.848 30.6924 63.1359 28.5229C89.7037 24.1853 126.425 21.5 167 21.5C207.575 21.5 244.296 24.1853 270.864 28.5229C284.152 30.6924 294.877 33.2715 302.268 36.1246C305.966 37.5521 308.801 39.0373 310.702 40.554C312.61 42.0767 313.5 43.5659 313.5 45Z" stroke="#082F49"/>
</g>
<defs>
<filter id="filter0_d_212_2917" x="0" y="0" width="346" height="100" filterUnits="userSpaceOnUse" color-interpolation-filters="sRGB">
<feFlood flood-opacity="0" result="BackgroundImageFix"/>
<feColorMatrix in="SourceAlpha" type="matrix" values="0 0 0 0 0 0 0 0 0 0 0 0 0 0 0 0 0 0 127 0" result="hardAlpha"/>
<feMorphology radius="6" operator="dilate" in="SourceAlpha" result="effect1_dropShadow_212_2917"/>
<feOffset dx="6" dy="5"/>
<feGaussianBlur stdDeviation="10"/>
<feComposite in2="hardAlpha" operator="out"/>
<feColorMatrix type="matrix" values="0 0 0 0 0 0 0 0 0 0 0 0 0 0 0 0 0 0 0.3 0"/>
<feBlend mode="normal" in2="BackgroundImageFix" result="effect1_dropShadow_212_2917"/>
<feBlend mode="normal" in="SourceGraphic" in2="effect1_dropShadow_212_2917" result="shape"/>
</filter>
</defs>
</svg>
