<svg width="467" height="378" viewBox="0 0 467 378" fill="none" xmlns="http://www.w3.org/2000/svg">
<g filter="url(#filter0_d_181_1502)">
<ellipse cx="227.5" cy="332.004" rx="207.5" ry="14.3755" fill="#0284C7" fill-opacity="0.5" shape-rendering="crispEdges"/>
</g>
<g clip-path="url(#clip0_181_1502)">
<path d="M372.656 0.414551H110.328C101.629 0.414551 94.5768 6.33107 94.5768 13.6295V186.831C94.5768 194.129 101.629 200.046 110.328 200.046H372.656C381.355 200.046 388.407 194.129 388.407 186.831V13.6295C388.407 6.33107 381.355 0.414551 372.656 0.414551Z" fill="white"/>
<path d="M372.656 200.461H110.327C106.02 200.457 101.891 199.019 98.8451 196.464C95.7995 193.909 94.0864 190.444 94.0817 186.83V13.6303C94.0864 10.0165 95.7995 6.55185 98.8451 3.99653C101.891 1.4412 106.02 0.00390857 110.327 0L372.656 0C376.963 0.00400859 381.093 1.44134 384.138 3.99664C387.184 6.55194 388.897 10.0165 388.902 13.6303V186.831C388.897 190.444 387.184 193.909 384.138 196.464C381.093 199.019 376.963 200.457 372.656 200.461ZM110.327 0.829552C106.283 0.833461 102.405 2.18337 99.5444 4.58313C96.6843 6.98289 95.0754 10.2365 95.0709 13.6303V186.831C95.0755 190.224 96.6844 193.478 99.5446 195.878C102.405 198.277 106.283 199.627 110.327 199.631H372.656C376.701 199.627 380.579 198.277 383.439 195.878C386.299 193.478 387.908 190.224 387.913 186.831V13.6303C387.908 10.2365 386.299 6.9828 383.439 4.58302C380.579 2.18324 376.701 0.833361 372.656 0.829552H110.327Z" fill="#292A2E"/>
<path opacity="0.2" d="M365.378 36.3027H349.271C345.876 36.3027 343.124 38.6118 343.124 41.4603V54.9743C343.124 57.8227 345.876 60.1318 349.271 60.1318H365.378C368.773 60.1318 371.525 57.8227 371.525 54.9743V41.4603C371.525 38.6118 368.773 36.3027 365.378 36.3027Z" fill="#367CFF"/>
<path opacity="0.2" d="M365.878 66.4016H349.894C346.465 66.4016 343.685 68.7339 343.685 71.611V85.0213C343.685 87.8984 346.465 90.2307 349.894 90.2307H365.878C369.307 90.2307 372.087 87.8984 372.087 85.0213V71.611C372.087 68.7339 369.307 66.4016 365.878 66.4016Z" fill="#367CFF"/>
<path opacity="0.2" d="M365.878 99.9246H349.894C346.465 99.9246 343.685 102.257 343.685 105.134V118.544C343.685 121.421 346.465 123.754 349.894 123.754H365.878C369.307 123.754 372.087 121.421 372.087 118.544V105.134C372.087 102.257 369.307 99.9246 365.878 99.9246Z" fill="#367CFF"/>
<path opacity="0.2" d="M365.316 131.732H349.333C345.903 131.732 343.124 134.065 343.124 136.942V150.352C343.124 153.229 345.903 155.561 349.333 155.561H365.316C368.745 155.561 371.525 153.229 371.525 150.352V136.942C371.525 134.065 368.745 131.732 365.316 131.732Z" fill="#367CFF"/>
<g opacity="0.15">
<path d="M249.563 36.3027H233.456C230.061 36.3027 227.309 38.6118 227.309 41.4603V54.9743C227.309 57.8227 230.061 60.1318 233.456 60.1318H249.563C252.959 60.1318 255.711 57.8227 255.711 54.9743V41.4603C255.711 38.6118 252.959 36.3027 249.563 36.3027Z" fill="#367CFF"/>
<path d="M210.958 36.3027H194.851C191.456 36.3027 188.704 38.6118 188.704 41.4603V54.9743C188.704 57.8227 191.456 60.1318 194.851 60.1318H210.958C214.353 60.1318 217.106 57.8227 217.106 54.9743V41.4603C217.106 38.6118 214.353 36.3027 210.958 36.3027Z" fill="#367CFF"/>
<path d="M172.915 36.3027H156.808C153.413 36.3027 150.661 38.6118 150.661 41.4603V54.9743C150.661 57.8227 153.413 60.1318 156.808 60.1318H172.915C176.31 60.1318 179.063 57.8227 179.063 54.9743V41.4603C179.063 38.6118 176.31 36.3027 172.915 36.3027Z" fill="#367CFF"/>
<path d="M134.31 36.3027H118.203C114.808 36.3027 112.056 38.6118 112.056 41.4603V54.9743C112.056 57.8227 114.808 60.1318 118.203 60.1318H134.31C137.705 60.1318 140.458 57.8227 140.458 54.9743V41.4603C140.458 38.6118 137.705 36.3027 134.31 36.3027Z" fill="#367CFF"/>
<path d="M288.168 36.3027H272.061C268.666 36.3027 265.914 38.6118 265.914 41.4603V54.9743C265.914 57.8227 268.666 60.1318 272.061 60.1318H288.168C291.563 60.1318 294.315 57.8227 294.315 54.9743V41.4603C294.315 38.6118 291.563 36.3027 288.168 36.3027Z" fill="#367CFF"/>
<path d="M326.773 36.3027H310.666C307.271 36.3027 304.519 38.6118 304.519 41.4603V54.9743C304.519 57.8227 307.271 60.1318 310.666 60.1318H326.773C330.168 60.1318 332.92 57.8227 332.92 54.9743V41.4603C332.92 38.6118 330.168 36.3027 326.773 36.3027Z" fill="#367CFF"/>
<path d="M250.063 66.4019H234.079C230.65 66.4019 227.87 68.7342 227.87 71.6113V85.0215C227.87 87.8986 230.65 90.2309 234.079 90.2309H250.063C253.492 90.2309 256.272 87.8986 256.272 85.0215V71.6113C256.272 68.7342 253.492 66.4019 250.063 66.4019Z" fill="#367CFF"/>
<path d="M288.668 66.4019H272.684C269.255 66.4019 266.475 68.7342 266.475 71.6113V85.0215C266.475 87.8986 269.255 90.2309 272.684 90.2309H288.668C292.097 90.2309 294.877 87.8986 294.877 85.0215V71.6113C294.877 68.7342 292.097 66.4019 288.668 66.4019Z" fill="#367CFF"/>
<path d="M327.273 66.4019H311.289C307.86 66.4019 305.08 68.7342 305.08 71.6113V85.0215C305.08 87.8986 307.86 90.2309 311.289 90.2309H327.273C330.702 90.2309 333.482 87.8986 333.482 85.0215V71.6113C333.482 68.7342 330.702 66.4019 327.273 66.4019Z" fill="#367CFF"/>
<path d="M134.249 66.4019H118.265C114.836 66.4019 112.056 68.7342 112.056 71.6113V85.0215C112.056 87.8986 114.836 90.2309 118.265 90.2309H134.249C137.678 90.2309 140.458 87.8986 140.458 85.0215V71.6113C140.458 68.7342 137.678 66.4019 134.249 66.4019Z" fill="#367CFF"/>
<path d="M172.854 66.4019H156.87C153.441 66.4019 150.661 68.7342 150.661 71.6113V85.0215C150.661 87.8986 153.441 90.2309 156.87 90.2309H172.854C176.283 90.2309 179.063 87.8986 179.063 85.0215V71.6113C179.063 68.7342 176.283 66.4019 172.854 66.4019Z" fill="#367CFF"/>
<path d="M211.458 66.4019H195.474C192.045 66.4019 189.265 68.7342 189.265 71.6113V85.0215C189.265 87.8986 192.045 90.2309 195.474 90.2309H211.458C214.887 90.2309 217.667 87.8986 217.667 85.0215V71.6113C217.667 68.7342 214.887 66.4019 211.458 66.4019Z" fill="#367CFF"/>
<path d="M250.063 99.9246H234.079C230.65 99.9246 227.87 102.257 227.87 105.134V118.544C227.87 121.421 230.65 123.754 234.079 123.754H250.063C253.492 123.754 256.272 121.421 256.272 118.544V105.134C256.272 102.257 253.492 99.9246 250.063 99.9246Z" fill="#367CFF"/>
<path d="M288.668 99.9246H272.684C269.255 99.9246 266.475 102.257 266.475 105.134V118.544C266.475 121.421 269.255 123.754 272.684 123.754H288.668C292.097 123.754 294.877 121.421 294.877 118.544V105.134C294.877 102.257 292.097 99.9246 288.668 99.9246Z" fill="#367CFF"/>
<path d="M327.273 99.9246H311.289C307.86 99.9246 305.08 102.257 305.08 105.134V118.544C305.08 121.421 307.86 123.754 311.289 123.754H327.273C330.702 123.754 333.482 121.421 333.482 118.544V105.134C333.482 102.257 330.702 99.9246 327.273 99.9246Z" fill="#367CFF"/>
<path d="M134.249 99.9246H118.265C114.836 99.9246 112.056 102.257 112.056 105.134V118.544C112.056 121.421 114.836 123.754 118.265 123.754H134.249C137.678 123.754 140.458 121.421 140.458 118.544V105.134C140.458 102.257 137.678 99.9246 134.249 99.9246Z" fill="#367CFF"/>
<path d="M172.854 99.9246H156.87C153.441 99.9246 150.661 102.257 150.661 105.134V118.544C150.661 121.421 153.441 123.754 156.87 123.754H172.854C176.283 123.754 179.063 121.421 179.063 118.544V105.134C179.063 102.257 176.283 99.9246 172.854 99.9246Z" fill="#367CFF"/>
<path d="M211.458 99.9246H195.474C192.045 99.9246 189.265 102.257 189.265 105.134V118.544C189.265 121.421 192.045 123.754 195.474 123.754H211.458C214.887 123.754 217.667 121.421 217.667 118.544V105.134C217.667 102.257 214.887 99.9246 211.458 99.9246Z" fill="#367CFF"/>
<path d="M250.063 132.203H234.079C230.65 132.203 227.87 134.536 227.87 137.413V150.823C227.87 153.7 230.65 156.032 234.079 156.032H250.063C253.492 156.032 256.272 153.7 256.272 150.823V137.413C256.272 134.536 253.492 132.203 250.063 132.203Z" fill="#367CFF"/>
<path d="M288.106 131.732H272.123C268.693 131.732 265.914 134.065 265.914 136.942V150.352C265.914 153.229 268.693 155.562 272.123 155.562H288.106C291.535 155.562 294.315 153.229 294.315 150.352V136.942C294.315 134.065 291.535 131.732 288.106 131.732Z" fill="#367CFF"/>
<path d="M326.711 131.732H310.728C307.298 131.732 304.519 134.065 304.519 136.942V150.352C304.519 153.229 307.298 155.562 310.728 155.562H326.711C330.14 155.562 332.92 153.229 332.92 150.352V136.942C332.92 134.065 330.14 131.732 326.711 131.732Z" fill="#367CFF"/>
<path d="M134.249 132.203H118.265C114.836 132.203 112.056 134.536 112.056 137.413V150.823C112.056 153.7 114.836 156.032 118.265 156.032H134.249C137.678 156.032 140.458 153.7 140.458 150.823V137.413C140.458 134.536 137.678 132.203 134.249 132.203Z" fill="#367CFF"/>
<path d="M172.854 132.203H156.87C153.441 132.203 150.661 134.536 150.661 137.413V150.823C150.661 153.7 153.441 156.032 156.87 156.032H172.854C176.283 156.032 179.063 153.7 179.063 150.823V137.413C179.063 134.536 176.283 132.203 172.854 132.203Z" fill="#367CFF"/>
<path d="M211.458 132.203H195.474C192.045 132.203 189.265 134.536 189.265 137.413V150.823C189.265 153.7 192.045 156.032 195.474 156.032H211.458C214.887 156.032 217.667 153.7 217.667 150.823V137.413C217.667 134.536 214.887 132.203 211.458 132.203Z" fill="#367CFF"/>
<path d="M249.502 161.441H233.518C230.089 161.441 227.309 163.773 227.309 166.65V180.06C227.309 182.937 230.089 185.27 233.518 185.27H249.502C252.931 185.27 255.711 182.937 255.711 180.06V166.65C255.711 163.773 252.931 161.441 249.502 161.441Z" fill="#367CFF"/>
<path d="M133.687 161.441H117.703C114.274 161.441 111.494 163.773 111.494 166.65V180.06C111.494 182.937 114.274 185.27 117.703 185.27H133.687C137.116 185.27 139.896 182.937 139.896 180.06V166.65C139.896 163.773 137.116 161.441 133.687 161.441Z" fill="#367CFF"/>
<path d="M172.292 161.441H156.308C152.879 161.441 150.099 163.773 150.099 166.65V180.06C150.099 182.937 152.879 185.27 156.308 185.27H172.292C175.721 185.27 178.501 182.937 178.501 180.06V166.65C178.501 163.773 175.721 161.441 172.292 161.441Z" fill="#367CFF"/>
<path d="M210.897 161.441H194.913C191.484 161.441 188.704 163.773 188.704 166.65V180.06C188.704 182.937 191.484 185.27 194.913 185.27H210.897C214.326 185.27 217.106 182.937 217.106 180.06V166.65C217.106 163.773 214.326 161.441 210.897 161.441Z" fill="#367CFF"/>
</g>
<path d="M388.407 13.6302V22.1025H94.5781V13.6302C94.5775 11.8946 94.9844 10.1759 95.7757 8.5723C96.5669 6.9687 97.7269 5.51157 99.1894 4.28416C100.652 3.05675 102.388 2.08309 104.299 1.4188C106.211 0.754507 108.259 0.412598 110.327 0.412598H372.657C374.725 0.412797 376.773 0.754837 378.685 1.41919C380.596 2.08354 382.332 3.05719 383.794 4.28456C385.257 5.51192 386.417 6.96896 387.209 8.57248C388 10.176 388.407 11.8946 388.407 13.6302Z" fill="#292A2E"/>
<path d="M210.538 164.076H195.271C193.379 164.076 191.846 165.363 191.846 166.951V179.76C191.846 181.347 193.379 182.634 195.271 182.634H210.538C212.43 182.634 213.964 181.347 213.964 179.76V166.951C213.964 165.363 212.43 164.076 210.538 164.076Z" fill="white"/>
<path d="M132.576 124.922L113.727 122.06C113.193 121.979 112.719 121.723 112.409 121.349C112.1 120.975 111.98 120.513 112.077 120.064L114.992 106.551L120.793 103.31L136.716 105.728C137.25 105.809 137.724 106.065 138.033 106.439C138.343 106.813 138.462 107.275 138.365 107.724L134.954 123.538C134.907 123.76 134.807 123.972 134.662 124.161C134.516 124.351 134.328 124.515 134.107 124.643C133.886 124.772 133.637 124.863 133.374 124.91C133.112 124.958 132.84 124.962 132.576 124.922Z" fill="#367CFF"/>
<path opacity="0.29" d="M120.793 103.31L114.992 106.551L119.946 107.375L120.793 103.31Z" fill="#FFFFFA"/>
<g opacity="0.88">
<path d="M134.049 115.701C134.03 115.702 134.011 115.701 133.992 115.698L116.355 112.961C116.28 112.949 116.214 112.914 116.171 112.861C116.128 112.809 116.112 112.744 116.126 112.682C116.139 112.619 116.182 112.564 116.245 112.528C116.307 112.492 116.384 112.478 116.458 112.49L134.096 115.226C134.165 115.237 134.227 115.269 134.27 115.316C134.313 115.363 134.334 115.422 134.328 115.481C134.323 115.54 134.291 115.595 134.24 115.636C134.189 115.676 134.121 115.7 134.051 115.701H134.049Z" fill="white"/>
<path d="M133.417 118.805C133.398 118.805 133.378 118.804 133.36 118.801L115.722 116.065C115.684 116.06 115.648 116.049 115.615 116.032C115.582 116.016 115.553 115.993 115.531 115.967C115.509 115.941 115.493 115.911 115.484 115.88C115.476 115.848 115.475 115.815 115.482 115.784C115.489 115.752 115.504 115.722 115.525 115.695C115.546 115.668 115.574 115.645 115.606 115.627C115.638 115.609 115.674 115.597 115.712 115.591C115.75 115.585 115.789 115.586 115.826 115.593L133.463 118.33C133.533 118.34 133.596 118.372 133.639 118.419C133.683 118.466 133.703 118.525 133.698 118.585C133.692 118.644 133.66 118.699 133.609 118.74C133.557 118.781 133.489 118.804 133.418 118.805H133.417Z" fill="white"/>
<path d="M123.069 120.068C123.05 120.068 123.031 120.067 123.012 120.064L115.189 118.85C115.151 118.846 115.114 118.835 115.081 118.818C115.048 118.801 115.02 118.779 114.997 118.753C114.975 118.727 114.959 118.697 114.95 118.665C114.942 118.634 114.941 118.601 114.948 118.569C114.955 118.538 114.97 118.507 114.991 118.48C115.012 118.453 115.04 118.43 115.072 118.413C115.104 118.395 115.14 118.383 115.178 118.377C115.216 118.371 115.255 118.372 115.292 118.379L123.116 119.593C123.185 119.604 123.247 119.636 123.29 119.683C123.333 119.73 123.354 119.788 123.348 119.848C123.342 119.907 123.311 119.962 123.26 120.002C123.208 120.043 123.141 120.067 123.071 120.068H123.069Z" fill="white"/>
</g>
<path d="M134.133 113.179C134.063 113.179 133.994 113.174 133.925 113.163L130.109 112.579C129.958 112.556 129.814 112.509 129.686 112.439C129.557 112.369 129.447 112.279 129.36 112.173C129.273 112.067 129.212 111.948 129.181 111.823C129.149 111.697 129.147 111.567 129.175 111.441L129.817 108.041C129.872 107.789 130.044 107.565 130.294 107.418C130.544 107.271 130.854 107.213 131.155 107.255L134.983 107.804C135.135 107.825 135.28 107.872 135.41 107.941C135.541 108.01 135.653 108.1 135.741 108.206C135.829 108.312 135.892 108.432 135.924 108.558C135.957 108.685 135.959 108.815 135.931 108.942L135.278 112.38C135.228 112.604 135.086 112.806 134.877 112.952C134.668 113.098 134.405 113.179 134.133 113.179ZM130.961 107.62C130.795 107.62 130.635 107.669 130.507 107.757C130.379 107.846 130.292 107.969 130.261 108.106L129.62 111.506C129.602 111.583 129.602 111.663 129.621 111.74C129.64 111.818 129.677 111.891 129.73 111.956C129.783 112.022 129.851 112.077 129.93 112.12C130.009 112.164 130.097 112.193 130.19 112.207L134.006 112.791C134.191 112.818 134.381 112.784 134.535 112.695C134.689 112.605 134.796 112.469 134.832 112.315L135.485 108.875C135.503 108.797 135.502 108.717 135.482 108.64C135.462 108.562 135.424 108.489 135.37 108.424C135.317 108.359 135.248 108.304 135.168 108.261C135.089 108.219 135 108.19 134.907 108.177L131.079 107.628C131.04 107.622 131 107.62 130.961 107.62Z" fill="white"/>
<path d="M198.365 179.48C198.325 179.48 198.285 179.48 198.245 179.475C198.061 179.461 197.883 179.415 197.722 179.34C197.56 179.265 197.419 179.163 197.308 179.04L193.298 174.615C193.085 174.38 192.992 174.083 193.039 173.79C193.087 173.498 193.271 173.233 193.552 173.054C193.832 172.875 194.186 172.797 194.535 172.837C194.884 172.877 195.199 173.031 195.413 173.267L198.543 176.721L210.556 167.52C210.684 167.422 210.835 167.345 210.999 167.295C211.163 167.246 211.337 167.223 211.511 167.23C211.686 167.237 211.857 167.272 212.015 167.334C212.173 167.396 212.314 167.484 212.432 167.592C212.549 167.7 212.641 167.827 212.7 167.964C212.759 168.102 212.786 168.248 212.778 168.394C212.77 168.54 212.727 168.684 212.653 168.816C212.579 168.949 212.475 169.068 212.346 169.166L199.259 179.187C199.015 179.375 198.696 179.479 198.365 179.48Z" fill="#367CFF"/>
<path d="M373.004 51.8188L357.116 60.7955C356.893 60.9218 356.643 61.01 356.379 61.0549C356.115 61.0999 355.844 61.1008 355.58 61.0576C355.315 61.0144 355.064 60.9279 354.84 60.803C354.616 60.6782 354.423 60.5175 354.273 60.3302L345.13 48.9398L346.595 43.2227L360.018 35.6393C360.241 35.5132 360.491 35.4252 360.755 35.3803C361.019 35.3354 361.29 35.3345 361.554 35.3777C361.818 35.4209 362.07 35.5074 362.294 35.6321C362.518 35.7569 362.711 35.9174 362.861 36.1047L373.56 49.4347C373.71 49.6218 373.815 49.8319 373.868 50.053C373.922 50.2742 373.923 50.5019 373.871 50.7233C373.819 50.9447 373.716 51.1554 373.568 51.3434C373.419 51.5314 373.228 51.6929 373.004 51.8188Z" fill="#0CBC8B"/>
<path opacity="0.29" d="M346.596 43.2224L345.132 48.9399L349.368 46.6319L346.596 43.2224Z" fill="#FFFFFA"/>
<g opacity="0.88">
<path d="M366.397 44.348C366.383 44.3594 366.368 44.3697 366.352 44.3786L351.436 52.7363C351.373 52.7677 351.298 52.7777 351.227 52.764C351.155 52.7504 351.093 52.7142 351.052 52.663C351.012 52.6118 350.996 52.5495 351.009 52.4889C351.022 52.4283 351.062 52.3741 351.121 52.3376L366.036 43.98C366.095 43.9474 366.166 43.9343 366.236 43.9431C366.306 43.9519 366.369 43.9821 366.414 44.0278C366.459 44.0735 366.482 44.1315 366.479 44.1906C366.476 44.2497 366.447 44.3057 366.397 44.348H366.397Z" fill="white"/>
<path d="M368.523 46.9427C368.51 46.9542 368.494 46.9644 368.478 46.9734L353.562 55.331C353.499 55.3625 353.424 55.3724 353.353 55.3588C353.281 55.3451 353.219 55.309 353.178 55.2577C353.138 55.2065 353.122 55.1442 353.135 55.0836C353.148 55.023 353.187 54.9689 353.246 54.9323L368.162 46.5747C368.221 46.5421 368.292 46.529 368.362 46.5378C368.432 46.5467 368.495 46.5768 368.54 46.6225C368.585 46.6682 368.608 46.7262 368.605 46.7853C368.602 46.8444 368.573 46.9005 368.523 46.9427Z" fill="white"/>
<path d="M362.156 53.9019C362.143 53.9134 362.127 53.9237 362.111 53.9326L355.498 57.6396C355.467 57.6589 355.431 57.6727 355.394 57.6802C355.356 57.6876 355.317 57.6886 355.279 57.6829C355.241 57.6773 355.204 57.6653 355.172 57.6475C355.139 57.6297 355.112 57.6066 355.09 57.5796C355.069 57.5525 355.054 57.5221 355.047 57.4902C355.04 57.4582 355.041 57.4254 355.05 57.3938C355.058 57.3621 355.074 57.3322 355.097 57.306C355.12 57.2797 355.149 57.2576 355.182 57.241L361.798 53.5339C361.857 53.5014 361.928 53.4882 361.998 53.4971C362.068 53.5059 362.131 53.5361 362.176 53.5817C362.221 53.6274 362.244 53.6854 362.241 53.7445C362.238 53.8036 362.208 53.8597 362.159 53.9019H362.156Z" fill="white"/>
</g>
<path d="M376.644 326.45H83.1275C83.0438 326.45 82.9634 326.422 82.9042 326.372C82.8449 326.323 82.8116 326.255 82.8116 326.185C82.8116 326.115 82.8449 326.047 82.9042 325.998C82.9634 325.948 83.0438 325.92 83.1275 325.92H376.644C376.727 325.92 376.808 325.948 376.867 325.998C376.926 326.047 376.959 326.115 376.959 326.185C376.959 326.255 376.926 326.323 376.867 326.372C376.808 326.422 376.727 326.45 376.644 326.45Z" fill="#292A2E"/>
<path d="M323.168 309.726C323.168 309.726 321.13 318.586 311.241 319.081C301.352 319.576 303.497 326.184 303.497 326.184H341.286V310.344L323.168 309.726Z" fill="#367CFF"/>
<path d="M334.824 148.082C334.824 148.082 334.705 145.419 334.73 151.461C334.824 174 336.192 199.744 337.331 214.81C339.162 239.027 342.953 315.381 342.953 315.381L316.316 315.206L294.055 147.167L334.824 148.082Z" fill="#262626"/>
<path d="M306.252 174.957C306.252 174.957 305.223 191.313 305.033 195.153C304.592 204.034 304.197 213.286 304.197 223.71L300.524 196.324C300.524 196.324 303.388 187.759 306.252 174.957Z" fill="#0A0A0A"/>
<path d="M274.449 309.726C274.449 309.726 272.412 318.586 262.523 319.081C252.634 319.576 254.779 326.184 254.779 326.184H292.568V310.344L274.449 309.726Z" fill="#367CFF"/>
<path d="M266.937 149.833C266.937 149.833 264.286 227.622 264.609 231.387L268.428 314.796L295.557 315.175L297.69 227.587C297.69 227.587 298.015 203.426 304.973 180.989C308.533 169.475 310.675 157.684 311.367 145.802L266.937 149.833Z" fill="#262626"/>
<path d="M335.093 148.08L335.174 148.084C335.174 148.084 335.116 146.77 335.093 148.08Z" fill="#333333"/>
<path d="M283.539 81.8152C283.62 81.8065 284.513 94.2429 301.733 93.1586C313.654 92.4093 317.907 81.7974 318.178 81.7974C316.892 81.5702 314.728 81.2351 314.157 80.9796C312.28 80.1334 309.606 79.2527 309.001 76.1942C308.653 74.4314 309.244 65.4131 309.062 63.6294L291.114 67.0563C291.37 70.8231 293.159 79.5556 286.887 81.103C285.844 81.3567 284.719 81.5922 283.539 81.8152Z" fill="#E98862"/>
<path d="M291.619 72.9314C298.846 73.3993 308.123 70.8266 309.869 62.7356L311.446 55.435C313.192 47.3444 309.543 40.0158 300.463 38.6361C291.383 37.2561 283.18 42.7839 281.434 50.8746L280.737 54.1065C280.52 55.2197 280.394 56.344 280.36 57.4716C280.243 60.4514 280.079 64.9834 281.836 68.3122C283.495 71.4551 287.002 72.6326 291.619 72.9314Z" fill="#E98862"/>
<path d="M307.825 38.2216C304.957 37.4708 301.981 37.046 298.978 36.9585C298.879 36.5184 298.655 36.1047 298.325 35.7527C297.995 35.4007 297.569 35.1208 297.082 34.9367C295.495 34.4164 293.555 35.2543 292.265 36.8695C291.592 35.9037 290.539 35.1646 289.287 34.7792C285.732 33.8508 285.556 38.1349 285.556 38.1349C285.556 38.1349 279.92 33.4688 279.744 39.4199C279.531 46.6204 281.107 48.7339 282.258 49.264C284.53 50.3169 286.222 50.1386 287.122 51.6871C289.845 56.3774 287.176 69.5889 290.326 71.2431C295.154 73.7772 305.041 73.8647 308.252 73.6723C309.487 73.5966 310.644 72.3968 311.163 71.4544C312.843 68.4107 316.589 61.5107 317.631 58.6571C319.559 53.3932 319.414 41.3963 307.825 38.2216Z" fill="#0C0C0C"/>
<path d="M288.172 66.5252C290.96 66.2715 292.896 63.5633 292.594 61.2246C292.292 58.8858 289.865 57.8015 287.077 58.0555L285.843 59.7536L285.776 66.7441L288.172 66.5252Z" fill="#E98862"/>
<path d="M263.441 107.073C263.954 112.121 266.445 143.613 266.937 149.831H334.796C335.179 144.223 336.9 119.702 338.354 108.736C339.742 98.272 342.464 93.033 340.469 89.9393C337.208 84.8833 328.297 81.9619 322.222 81.2716C318.511 80.8502 312.931 80.5481 312.931 80.5481H286.802C284.32 80.5481 269.85 81.528 266.652 83.5945C261.059 87.2099 262.355 96.3774 263.441 107.073Z" fill="#367CFF"/>
<path d="M262.505 100.75C262.447 100.75 262.391 100.732 262.349 100.699C262.307 100.665 262.282 100.62 262.279 100.572L261.732 92.5563C261.728 92.5062 261.749 92.457 261.788 92.4195C261.828 92.382 261.884 92.3593 261.944 92.3564C262.003 92.3541 262.061 92.3714 262.106 92.4047C262.151 92.4379 262.178 92.4845 262.182 92.5344L262.729 100.55C262.731 100.575 262.727 100.6 262.717 100.623C262.707 100.647 262.692 100.668 262.672 100.687C262.653 100.706 262.629 100.721 262.602 100.731C262.575 100.742 262.546 100.749 262.517 100.75L262.505 100.75Z" fill="#0C0C0C"/>
<path d="M349.467 149.502C351.462 149.502 353.429 149.097 355.198 148.322C356.967 147.547 358.487 146.425 359.628 145.052C360.77 143.678 361.499 142.093 361.753 140.432C362.007 138.771 361.779 137.083 361.089 135.512C360.388 133.917 343.953 97.4021 340.824 90.6362L317.656 98.5115C319.416 102.315 325.79 116.735 330.91 128.351L322.403 127.575L319.725 148.242L348.126 149.441C348.571 149.482 349.019 149.502 349.467 149.502Z" fill="#367CFF"/>
<path d="M336.245 108.95L334.577 149.827L335.028 149.84L336.696 108.963L336.245 108.95Z" fill="#0C0C0C"/>
<path d="M213.848 65.3496L193.304 72.9523C192.859 73.1168 192.354 73.1264 191.901 72.9788C191.448 72.8313 191.083 72.5387 190.887 72.1655L183.277 57.6906L186.247 51.6115L203.307 45.298C203.528 45.2165 203.765 45.1722 204.006 45.1676C204.246 45.1631 204.486 45.1983 204.71 45.2714C204.935 45.3444 205.14 45.4539 205.314 45.5934C205.488 45.733 205.627 45.9 205.724 46.0848L214.786 63.3218C214.982 63.695 214.993 64.1183 214.818 64.4986C214.642 64.8789 214.293 65.185 213.848 65.3496Z" fill="#0CBC8B"/>
<path opacity="0.29" d="M186.246 51.6123L183.277 57.6914L188.506 55.8434L186.246 51.6123Z" fill="#FFFFFA"/>
<g opacity="0.88">
<path d="M206.316 53.2184C206.299 53.2289 206.28 53.2378 206.26 53.2449L187.791 60.0086C187.715 60.0308 187.631 60.028 187.557 60.0009C187.483 59.9737 187.424 59.9242 187.392 59.8621C187.359 59.8 187.356 59.73 187.382 59.6659C187.409 59.6018 187.463 59.5484 187.534 59.5164L206.003 52.7527C206.076 52.7266 206.158 52.7239 206.233 52.7452C206.308 52.7666 206.371 52.8104 206.41 52.8684C206.448 52.9263 206.46 52.9943 206.443 53.0592C206.426 53.1241 206.381 53.1813 206.316 53.22V53.2184Z" fill="white"/>
<path d="M207.878 56.1493C207.86 56.1598 207.841 56.1687 207.822 56.1758L189.353 62.9395C189.276 62.9628 189.192 62.9608 189.117 62.9339C189.042 62.9069 188.982 62.8571 188.949 62.7944C188.916 62.7317 188.913 62.661 188.941 62.5965C188.968 62.532 189.023 62.4787 189.096 62.4473L207.564 55.6836C207.637 55.6564 207.72 55.653 207.796 55.6741C207.872 55.6951 207.935 55.7392 207.975 55.7976C208.014 55.8561 208.026 55.9247 208.008 55.99C207.99 56.0553 207.943 56.1127 207.878 56.1509V56.1493Z" fill="white"/>
<path d="M209.616 59.371C209.599 59.3815 209.58 59.3904 209.56 59.3975L191.091 66.1612C191.015 66.1845 190.93 66.1825 190.855 66.1556C190.78 66.1286 190.72 66.0787 190.688 66.0161C190.655 65.9534 190.652 65.8827 190.679 65.8182C190.707 65.7537 190.762 65.7004 190.834 65.669L209.303 58.9053C209.376 58.8781 209.459 58.8747 209.535 58.8957C209.61 58.9168 209.674 58.9609 209.713 59.0193C209.752 59.0777 209.764 59.1463 209.746 59.2117C209.728 59.277 209.682 59.3344 209.616 59.3725V59.371Z" fill="white"/>
<path d="M200.932 66.0092C200.914 66.0195 200.895 66.0284 200.876 66.0357L192.684 69.0355C192.607 69.0577 192.524 69.0549 192.45 69.0278C192.376 69.0006 192.317 68.9511 192.284 68.889C192.252 68.8269 192.249 68.7569 192.275 68.6928C192.301 68.6288 192.355 68.5754 192.427 68.5433L200.619 65.5435C200.692 65.5173 200.774 65.5147 200.849 65.536C200.924 65.5574 200.987 65.6012 201.026 65.6592C201.064 65.7171 201.076 65.7851 201.059 65.85C201.042 65.9148 200.997 65.9721 200.932 66.0107V66.0092Z" fill="white"/>
</g>
<path d="M196.868 64.0287C196.774 63.8201 196.63 63.6297 196.446 63.4691C196.262 63.3085 196.04 63.1812 195.796 63.0947C195.551 63.0083 195.287 62.9647 195.022 62.9665C194.756 62.9683 194.493 63.0155 194.25 63.1052C193.787 63.2927 193.426 63.6206 193.239 64.0227C193.053 64.4249 193.056 64.8714 193.247 65.2721L193.897 67.5324C194.034 68.0105 193.959 68.5144 193.684 68.9488C193.409 69.3833 192.954 69.7184 192.405 69.8908C191.867 70.06 191.275 70.0615 190.735 69.8951C190.196 69.7287 189.746 69.4054 189.466 68.984C189.466 68.984 185.414 61.8028 185.338 61.5105C184.673 62.0546 183.514 63.393 183.276 64.402C183.267 64.4073 184.449 72.4666 185.11 73.0345L191.965 81.9055C194.767 84.3147 204.174 80.3062 204.174 80.3062L196.868 64.0287Z" fill="#E98862"/>
<path d="M225.035 130.267C222.739 130.267 220.483 129.768 218.485 128.821C216.486 127.873 214.814 126.508 213.63 124.857L184.12 83.7285L206.931 72.2083L229.364 103.476L266.653 83.599L282.452 101.371L232.24 128.492C230.091 129.651 227.59 130.267 225.035 130.267Z" fill="#367CFF"/>
<path d="M263.82 111.612C263.769 111.612 263.72 111.598 263.68 111.571C263.64 111.545 263.612 111.509 263.6 111.467C263.588 111.426 263.593 111.383 263.614 111.344C263.635 111.305 263.671 111.274 263.716 111.254L270.159 108.465C270.212 108.442 270.274 108.437 270.331 108.453C270.388 108.468 270.436 108.501 270.463 108.546C270.491 108.591 270.496 108.643 270.478 108.691C270.46 108.738 270.419 108.778 270.366 108.801L263.923 111.591C263.891 111.604 263.856 111.612 263.82 111.612Z" fill="#0C0C0C"/>
<path d="M283.204 81.7293L286.403 77.5338C286.543 77.35 286.736 77.1986 286.964 77.0938C287.192 76.989 287.448 76.9341 287.708 76.9341H311.821C312.038 76.9341 312.253 76.9724 312.451 77.0466C312.649 77.1207 312.827 77.2291 312.972 77.3646L317.656 81.7293H283.204Z" fill="#367CFF"/>
<path d="M96.9557 249.767L96.1765 249.839L105.797 323.599L106.576 323.527L96.9557 249.767Z" fill="#292A2E"/>
<path d="M121.873 281.969L117.14 321.252L117.92 321.318L122.653 282.035L121.873 281.969Z" fill="#292A2E"/>
<path d="M130.012 316.503H94.8936V326.065H130.012V316.503Z" fill="#292A2E"/>
<path opacity="0.2" d="M130.012 316.503H94.8936V326.065H130.012V316.503Z" fill="white"/>
<path d="M151.183 298.897C157.835 291.478 154.664 280.058 144.099 273.389C133.534 266.72 119.577 267.327 112.924 274.745C106.272 282.164 109.443 293.584 120.008 300.253C130.572 306.922 144.53 306.315 151.183 298.897Z" fill="#0CBC8B"/>
<path opacity="0.2" d="M151.183 298.897C157.835 291.478 154.664 280.058 144.099 273.389C133.534 266.72 119.577 267.327 112.924 274.745C106.272 282.164 109.443 293.584 120.008 300.253C130.572 306.922 144.53 306.315 151.183 298.897Z" fill="white"/>
<path opacity="0.5" d="M151.181 298.898C150.734 299.398 150.247 299.872 149.722 300.316C142.399 304.242 131.59 303.624 123.015 298.21C112.451 291.542 109.28 280.121 115.934 272.703C116.381 272.204 116.867 271.73 117.389 271.285C124.716 267.357 135.522 267.978 144.1 273.389C154.664 280.06 157.834 291.48 151.181 298.898Z" fill="white"/>
<path d="M102.172 270.752C112.637 263.974 115.482 252.349 108.525 244.788C101.568 237.226 87.4441 236.591 76.9783 243.369C66.5124 250.147 63.6679 261.772 70.6248 269.333C77.5818 276.895 91.7057 277.53 102.172 270.752Z" fill="#0CBC8B"/>
<path opacity="0.2" d="M98.8593 268.807C90.754 274.06 80.4533 274.86 72.9865 271.441C72.1223 270.802 71.3331 270.096 70.6295 269.331C63.6691 261.772 66.5135 250.145 76.9789 243.369C85.0842 238.119 95.385 237.316 102.848 240.732C103.714 241.371 104.504 242.079 105.208 242.845C112.167 250.404 109.323 262.031 98.8593 268.807Z" fill="white"/>
</g>
<defs>
<filter id="filter0_d_181_1502" x="0" y="296.628" width="467" height="80.751" filterUnits="userSpaceOnUse" color-interpolation-filters="sRGB">
<feFlood flood-opacity="0" result="BackgroundImageFix"/>
<feColorMatrix in="SourceAlpha" type="matrix" values="0 0 0 0 0 0 0 0 0 0 0 0 0 0 0 0 0 0 127 0" result="hardAlpha"/>
<feMorphology radius="6" operator="dilate" in="SourceAlpha" result="effect1_dropShadow_181_1502"/>
<feOffset dx="6" dy="5"/>
<feGaussianBlur stdDeviation="10"/>
<feComposite in2="hardAlpha" operator="out"/>
<feColorMatrix type="matrix" values="0 0 0 0 0 0 0 0 0 0 0 0 0 0 0 0 0 0 0.3 0"/>
<feBlend mode="normal" in2="BackgroundImageFix" result="effect1_dropShadow_181_1502"/>
<feBlend mode="normal" in="SourceGraphic" in2="effect1_dropShadow_181_1502" result="shape"/>
</filter>
<clipPath id="clip0_181_1502">
<rect width="322.082" height="326.45" fill="white" transform="translate(66.819)"/>
</clipPath>
</defs>
</svg>
