<svg width="442" height="357" viewBox="0 0 442 357" fill="none" xmlns="http://www.w3.org/2000/svg">
<g filter="url(#filter0_d_181_1950)">
<ellipse cx="215" cy="312.004" rx="195" ry="13.5095" fill="#0284C7" fill-opacity="0.5" shape-rendering="crispEdges"/>
</g>
<g clip-path="url(#clip0_181_1950)">
<g opacity="0.7">
<path d="M329.338 2.66553H271.866V70.769H329.338V2.66553Z" fill="#F4F4F4"/>
<path d="M329.338 70.769H331.202V2.66562H329.338V70.769Z" fill="#F4F4F4"/>
<path opacity="0.05" d="M329.338 70.769H331.202V2.66562H329.338V70.769Z" fill="#292A2E"/>
<path opacity="0.05" d="M318.868 16.2881H282.335V57.1469H318.868V16.2881Z" fill="#292A2E"/>
<path opacity="0.03" d="M318.869 16.2881H316.965V57.1469H318.869V16.2881Z" fill="#292A2E"/>
<path d="M376.34 89.1589H329.338V136.577H376.34V89.1589Z" fill="#F4F4F4"/>
<path opacity="0.05" d="M367.779 97.7969H337.9V127.94H367.779V97.7969Z" fill="#292A2E"/>
<path d="M376.341 136.577H378.205V89.159H376.341V136.577Z" fill="#F4F4F4"/>
<path opacity="0.05" d="M376.341 136.577H378.205V89.159H376.341V136.577Z" fill="#292A2E"/>
<path opacity="0.03" d="M367.778 97.7969H365.874V127.94H367.778V97.7969Z" fill="#292A2E"/>
</g>
<g opacity="0.7">
<path d="M211.664 0H76.3594V135.26H211.664V0Z" fill="#F4F4F4"/>
<path d="M76.3594 0H74.8086V135.26H76.3594V0Z" fill="#F4F4F4"/>
<path opacity="0.05" d="M76.3594 0H74.8086V135.26H76.3594V0Z" fill="#292A2E"/>
<path opacity="0.05" d="M109.138 93.2055V57.8171H138.136V78.3769H183.053V114.781H202.144V135.26H183.053H179.376H82.8682V93.2055H109.138Z" fill="#292A2E"/>
<path opacity="0.34" d="M134.414 61.6594H113.297V65.5017H134.414V61.6594Z" fill="#FFFFFA"/>
<path opacity="0.34" d="M134.414 69.6218H113.297V73.4641H134.414V69.6218Z" fill="#FFFFFA"/>
<path opacity="0.34" d="M134.414 77.584H113.297V81.4263H134.414V77.584Z" fill="#FFFFFA"/>
<path opacity="0.34" d="M90.5043 96.9351H86.6123V100.777H90.5043V96.9351Z" fill="#FFFFFA"/>
<path opacity="0.34" d="M90.5043 104.897H86.6123V108.74H90.5043V104.897Z" fill="#FFFFFA"/>
<path opacity="0.34" d="M90.5043 112.86H86.6123V116.702H90.5043V112.86Z" fill="#FFFFFA"/>
<path opacity="0.34" d="M97.7045 96.9351H93.8125V100.777H97.7045V96.9351Z" fill="#FFFFFA"/>
<path opacity="0.34" d="M97.7045 104.897H93.8125V108.74H97.7045V104.897Z" fill="#FFFFFA"/>
<path opacity="0.34" d="M97.7045 112.86H93.8125V116.702H97.7045V112.86Z" fill="#FFFFFA"/>
<path opacity="0.34" d="M104.71 96.9351H100.818V100.777H104.71V96.9351Z" fill="#FFFFFA"/>
<path opacity="0.34" d="M104.71 104.897H100.818V108.74H104.71V104.897Z" fill="#FFFFFA"/>
<path opacity="0.34" d="M104.71 112.86H100.818V116.702H104.71V112.86Z" fill="#FFFFFA"/>
<path d="M76.3594 66.8713H103.585V0H105.837V66.8713H179.376V0H181.627V66.8713H211.664V69.1222H181.627V135.26H179.376V69.1222H105.837V135.26H103.585V69.1222H76.3594V66.8713Z" fill="white"/>
<path d="M217.054 135.097H70.9697V139.595H217.054V135.097Z" fill="#F4F4F4"/>
<path opacity="0.1" d="M217.054 135.097H70.9697V139.595H217.054V135.097Z" fill="#292A2E"/>
<path opacity="0.1" d="M70.9693 135.097H68.8604V139.595H70.9693V135.097Z" fill="#292A2E"/>
<path opacity="0.1" d="M70.9693 135.097H68.8604V139.595H70.9693V135.097Z" fill="#292A2E"/>
</g>
<path d="M154.451 16.7957H312.821C315.103 16.7957 317.291 17.7016 318.904 19.3142C320.517 20.9268 321.423 23.1139 321.423 25.3945V215.015C321.423 217.345 320.497 219.58 318.849 221.227C317.201 222.875 314.965 223.801 312.634 223.801H154.638C152.307 223.801 150.072 222.875 148.424 221.227C146.776 219.58 145.85 217.345 145.85 215.015V25.3935C145.85 23.1132 146.756 20.9263 148.369 19.314C149.982 17.7016 152.17 16.7957 154.451 16.7957Z" fill="white"/>
<path d="M312.634 224.134H154.638C152.219 224.134 149.898 223.173 148.188 221.463C146.477 219.753 145.516 217.433 145.516 215.014V25.0595C145.516 22.7792 146.422 20.5923 148.035 18.9799C149.648 17.3675 151.836 16.4617 154.117 16.4617H313.156C315.437 16.4617 317.625 17.3676 319.238 18.9801C320.851 20.5926 321.757 22.7797 321.757 25.0602V215.014C321.757 217.433 320.796 219.753 319.085 221.463C317.374 223.173 315.054 224.134 312.634 224.134ZM146.184 25.379V215.014C146.184 216.124 146.402 217.223 146.827 218.249C147.252 219.274 147.875 220.206 148.66 220.991C149.445 221.776 150.377 222.398 151.403 222.823C152.429 223.248 153.528 223.466 154.638 223.466H312.634C314.877 223.466 317.027 222.576 318.613 220.991C320.198 219.406 321.089 217.256 321.089 215.014V25.2956C321.089 24.2231 320.878 23.1611 320.467 22.1702C320.056 21.1794 319.454 20.2792 318.696 19.5209C317.937 18.7626 317.036 18.1611 316.045 17.7508C315.054 17.3405 313.991 17.1294 312.918 17.1295H154.437C152.248 17.1295 150.149 17.9986 148.601 19.5457C147.053 21.0928 146.184 23.1911 146.184 25.379Z" fill="#292A2E"/>
<path d="M179.909 57.9589H160.716C159.647 57.9576 158.621 57.5324 157.865 56.7764C157.109 56.0204 156.683 54.9954 156.682 53.9262V34.7398C156.683 33.6705 157.108 32.6454 157.865 31.8892C158.621 31.1331 159.647 30.7078 160.716 30.7065H179.909C180.978 30.7077 182.004 31.133 182.76 31.8891C183.517 32.6452 183.942 33.6705 183.944 34.7398V53.9262C183.942 54.9955 183.517 56.0205 182.76 56.7765C182.004 57.5325 180.978 57.9577 179.909 57.9589ZM160.716 31.3737C159.824 31.3748 158.968 31.7297 158.337 32.3606C157.706 32.9915 157.351 33.8469 157.35 34.7392V53.9262C157.351 54.8185 157.706 55.6739 158.337 56.3048C158.968 56.9357 159.824 57.2907 160.716 57.2917H179.909C180.801 57.2907 181.657 56.9359 182.288 56.3049C182.919 55.674 183.274 54.8186 183.276 53.9262V34.7398C183.274 33.8475 182.919 32.9921 182.288 32.3611C181.657 31.7302 180.801 31.3753 179.909 31.3744L160.716 31.3737Z" fill="#292A2E"/>
<path d="M179.909 95.9705H160.716C159.647 95.9693 158.621 95.544 157.865 94.7878C157.108 94.0317 156.683 93.0065 156.682 91.9372V72.7512C156.683 71.6818 157.108 70.6565 157.865 69.9003C158.621 69.1441 159.647 68.7188 160.716 68.7175H179.909C180.978 68.7188 182.004 69.1441 182.76 69.9003C183.517 70.6565 183.942 71.6817 183.944 72.7512V91.9372C183.942 93.0066 183.517 94.0318 182.76 94.788C182.004 95.5441 180.978 95.9694 179.909 95.9705ZM160.716 69.3864C159.824 69.3874 158.968 69.7424 158.337 70.3734C157.706 71.0044 157.351 71.8598 157.35 72.7522V91.9382C157.351 92.8305 157.706 93.686 158.337 94.3169C158.968 94.9478 159.824 95.3027 160.716 95.3037H179.909C180.801 95.3027 181.657 94.9479 182.288 94.3169C182.919 93.686 183.274 92.8305 183.276 91.9382V72.7512C183.274 71.8588 182.919 71.0033 182.288 70.3723C181.657 69.7414 180.801 69.3864 179.909 69.3853L160.716 69.3864Z" fill="#292A2E"/>
<path d="M179.909 133.982H160.716C159.647 133.981 158.621 133.555 157.865 132.799C157.108 132.043 156.683 131.018 156.682 129.949V110.763C156.683 109.693 157.108 108.668 157.865 107.912C158.621 107.156 159.647 106.73 160.716 106.729H179.909C180.978 106.73 182.004 107.156 182.76 107.912C183.517 108.668 183.942 109.693 183.944 110.763V129.949C183.942 131.018 183.517 132.043 182.76 132.799C182.004 133.555 180.978 133.981 179.909 133.982ZM160.716 107.397C159.824 107.398 158.968 107.753 158.337 108.384C157.706 109.015 157.351 109.87 157.35 110.763V129.949C157.351 130.841 157.706 131.696 158.337 132.327C158.968 132.958 159.824 133.313 160.716 133.314H179.909C180.801 133.313 181.657 132.958 182.288 132.327C182.919 131.696 183.274 130.841 183.276 129.949V110.763C183.274 109.87 182.919 109.015 182.288 108.384C181.657 107.753 180.801 107.398 179.909 107.397H160.716Z" fill="#292A2E"/>
<path d="M179.909 171.471H160.716C159.647 171.47 158.621 171.045 157.865 170.289C157.108 169.532 156.683 168.507 156.682 167.438V148.252C156.683 147.183 157.108 146.157 157.865 145.401C158.621 144.645 159.647 144.219 160.716 144.218H179.909C180.978 144.219 182.004 144.645 182.76 145.401C183.517 146.157 183.942 147.182 183.944 148.252V167.438C183.942 168.507 183.517 169.533 182.76 170.289C182.004 171.045 180.978 171.47 179.909 171.471ZM160.716 144.886C159.824 144.887 158.968 145.242 158.337 145.873C157.706 146.504 157.351 147.36 157.35 148.252V167.438C157.351 168.33 157.706 169.186 158.337 169.817C158.968 170.447 159.824 170.802 160.716 170.803H179.909C180.801 170.802 181.657 170.448 182.288 169.817C182.919 169.186 183.274 168.33 183.276 167.438V148.252C183.275 147.36 182.92 146.504 182.288 145.873C181.657 145.242 180.801 144.887 179.909 144.886H160.716Z" fill="#292A2E"/>
<path d="M179.909 208.96H160.716C159.647 208.959 158.621 208.534 157.865 207.777C157.108 207.021 156.683 205.996 156.682 204.927V185.741C156.683 184.672 157.108 183.646 157.865 182.89C158.621 182.134 159.647 181.709 160.716 181.707H179.909C180.978 181.709 182.004 182.134 182.76 182.89C183.517 183.646 183.942 184.671 183.944 185.741V204.927C183.942 205.996 183.517 207.021 182.76 207.778C182.004 208.534 180.978 208.959 179.909 208.96ZM160.716 182.375C159.824 182.376 158.968 182.731 158.337 183.362C157.706 183.993 157.351 184.848 157.35 185.741V204.927C157.351 205.819 157.706 206.674 158.337 207.305C158.968 207.936 159.824 208.291 160.716 208.292H179.909C180.801 208.291 181.657 207.936 182.288 207.305C182.919 206.674 183.274 205.819 183.276 204.927V185.741C183.274 184.849 182.919 183.993 182.288 183.362C181.657 182.731 180.801 182.376 179.909 182.375L160.716 182.375Z" fill="#292A2E"/>
<path d="M166.898 90.0199C166.553 90.0202 166.221 89.8865 165.972 89.6469L160.378 84.271C160.252 84.1495 160.15 84.0042 160.08 83.8435C160.01 83.6828 159.972 83.5098 159.968 83.3345C159.965 83.1591 159.996 82.9847 160.06 82.8214C160.124 82.658 160.219 82.5089 160.341 82.3824C160.462 82.256 160.608 82.1547 160.768 82.0844C160.929 82.014 161.102 81.9761 161.277 81.9726C161.453 81.9691 161.627 82.0002 161.791 82.0641C161.954 82.128 162.103 82.2235 162.23 82.345L166.875 86.8097L178.52 75.0628C178.77 74.8153 179.108 74.6766 179.46 74.6768C179.812 74.6769 180.149 74.8159 180.399 75.0635C180.649 75.3112 180.792 75.6475 180.795 75.9994C180.799 76.3512 180.663 76.6902 180.418 76.9427L167.847 89.6229C167.723 89.7487 167.575 89.8486 167.412 89.9167C167.25 89.9849 167.075 90.02 166.898 90.0199Z" fill="#0CBC8B"/>
<path d="M166.898 128.031C166.553 128.032 166.221 127.898 165.972 127.659L160.378 122.283C160.123 122.037 159.975 121.7 159.968 121.346C159.961 120.992 160.095 120.65 160.341 120.394C160.586 120.139 160.923 119.991 161.277 119.984C161.632 119.977 161.974 120.111 162.23 120.357L166.875 124.82L178.52 113.074C178.769 112.823 179.108 112.68 179.463 112.679C179.817 112.677 180.157 112.816 180.409 113.066C180.661 113.315 180.803 113.654 180.805 114.008C180.806 114.362 180.667 114.703 180.418 114.955L167.847 127.635C167.723 127.76 167.575 127.86 167.412 127.928C167.249 127.996 167.075 128.031 166.898 128.031Z" fill="#0CBC8B"/>
<path opacity="0.5" d="M306.992 38.3918H194.432C193.917 38.3918 193.5 38.8091 193.5 39.3238C193.5 39.8385 193.917 40.2557 194.432 40.2557H306.992C307.507 40.2557 307.925 39.8385 307.925 39.3238C307.925 38.8091 307.507 38.3918 306.992 38.3918Z" fill="#262626"/>
<path opacity="0.5" d="M266.91 48.4092H194.432C193.917 48.4092 193.5 48.8264 193.5 49.3411C193.5 49.8558 193.917 50.2731 194.432 50.2731H266.91C267.425 50.2731 267.842 49.8558 267.842 49.3411C267.842 48.8264 267.425 48.4092 266.91 48.4092Z" fill="#262626"/>
<path opacity="0.5" d="M306.992 76.4033H194.432C193.917 76.4033 193.5 76.8206 193.5 77.3353C193.5 77.85 193.917 78.2672 194.432 78.2672H306.992C307.507 78.2672 307.925 77.85 307.925 77.3353C307.925 76.8206 307.507 76.4033 306.992 76.4033Z" fill="#262626"/>
<path opacity="0.5" d="M266.91 86.4207H194.432C193.917 86.4207 193.5 86.8379 193.5 87.3526C193.5 87.8673 193.917 88.2845 194.432 88.2845H266.91C267.425 88.2845 267.842 87.8673 267.842 87.3526C267.842 86.8379 267.425 86.4207 266.91 86.4207Z" fill="#262626"/>
<path opacity="0.5" d="M306.992 114.415H194.432C193.917 114.415 193.5 114.832 193.5 115.347C193.5 115.861 193.917 116.279 194.432 116.279H306.992C307.507 116.279 307.925 115.861 307.925 115.347C307.925 114.832 307.507 114.415 306.992 114.415Z" fill="#262626"/>
<path opacity="0.5" d="M266.91 124.432H194.432C193.917 124.432 193.5 124.849 193.5 125.364C193.5 125.879 193.917 126.296 194.432 126.296H266.91C267.425 126.296 267.842 125.879 267.842 125.364C267.842 124.849 267.425 124.432 266.91 124.432Z" fill="#262626"/>
<path opacity="0.5" d="M306.992 151.904H194.432C193.917 151.904 193.5 152.322 193.5 152.836C193.5 153.351 193.917 153.768 194.432 153.768H306.992C307.507 153.768 307.925 153.351 307.925 152.836C307.925 152.322 307.507 151.904 306.992 151.904Z" fill="#262626"/>
<path opacity="0.5" d="M266.91 161.921H194.432C193.917 161.921 193.5 162.339 193.5 162.853C193.5 163.368 193.917 163.785 194.432 163.785H266.91C267.425 163.785 267.842 163.368 267.842 162.853C267.842 162.339 267.425 161.921 266.91 161.921Z" fill="#262626"/>
<path opacity="0.5" d="M306.992 189.393H194.432C193.917 189.393 193.5 189.81 193.5 190.325C193.5 190.84 193.917 191.257 194.432 191.257H306.992C307.507 191.257 307.925 190.84 307.925 190.325C307.925 189.81 307.507 189.393 306.992 189.393Z" fill="#262626"/>
<path opacity="0.5" d="M266.91 199.41H194.432C193.917 199.41 193.5 199.828 193.5 200.342C193.5 200.857 193.917 201.274 194.432 201.274H266.91C267.425 201.274 267.842 200.857 267.842 200.342C267.842 199.828 267.425 199.41 266.91 199.41Z" fill="#262626"/>
<path d="M165.934 51.1637C166.031 50.9245 166.204 50.7236 166.426 50.5917C166.648 50.4597 166.907 50.4039 167.164 50.4328C167.164 50.4121 167.146 50.362 167.182 50.3623L166.347 49.8348C166.097 49.6846 165.911 49.4492 165.821 49.172C165.732 48.8948 165.745 48.5946 165.86 48.3268C165.982 48.066 166.196 47.8596 166.462 47.7479C166.727 47.6361 167.025 47.627 167.296 47.7221C167.294 47.7108 167.301 47.6994 167.302 47.6887L166.958 47.472C166.724 47.3296 166.545 47.1105 166.454 46.8517C166.362 46.593 166.363 46.3106 166.455 46.0522C166.517 45.8915 166.613 45.7465 166.738 45.6275C166.862 45.5086 167.012 45.4188 167.175 45.3645C167.338 45.3102 167.512 45.2928 167.683 45.3135C167.853 45.3343 168.018 45.3927 168.163 45.4846L168.956 45.9855C168.958 45.9808 168.956 45.9758 168.958 45.9714C168.96 45.9671 168.969 45.9651 168.973 45.9601C168.787 45.7738 168.67 45.5299 168.64 45.2682C168.611 45.0066 168.672 44.7428 168.812 44.5199C169.137 43.9212 169.973 43.9907 170.486 44.3142L172.022 45.4592C172.259 45.6359 172.449 45.8684 172.574 46.136C172.699 46.4037 172.756 46.6981 172.74 46.9932C172.604 49.5469 172.087 56.2091 170.451 55.174L166.423 52.6316C166.189 52.4762 166.015 52.2474 165.926 51.9815C165.838 51.7157 165.84 51.4279 165.934 51.1637Z" fill="#E98862"/>
<path d="M166.898 51.6277C166.553 51.628 166.221 51.4943 165.972 51.2548L160.378 45.8788C160.25 45.7577 160.147 45.6124 160.075 45.4513C160.003 45.2901 159.964 45.1163 159.959 44.9399C159.955 44.7635 159.986 44.5879 160.05 44.4235C160.114 44.259 160.21 44.1088 160.332 43.9816C160.454 43.8544 160.601 43.7526 160.762 43.6823C160.924 43.6119 161.099 43.5744 161.275 43.5717C161.452 43.5691 161.627 43.6014 161.791 43.6669C161.955 43.7324 162.104 43.8297 162.23 43.9532L166.876 48.4169L178.52 36.671C178.643 36.5464 178.79 36.4473 178.952 36.3794C179.114 36.3116 179.287 36.2762 179.463 36.2754C179.638 36.2746 179.812 36.3083 179.975 36.3747C180.137 36.4411 180.285 36.5388 180.409 36.6623C180.534 36.7857 180.633 36.9325 180.701 37.0943C180.769 37.256 180.804 37.4295 180.805 37.6049C180.806 37.7803 180.772 37.9542 180.706 38.1165C180.639 38.2789 180.542 38.4266 180.418 38.5512L167.847 51.2314C167.723 51.3571 167.576 51.4568 167.413 51.5249C167.25 51.5929 167.075 51.6279 166.898 51.6277Z" fill="#0CBC8B"/>
<path d="M163.048 48.3675C163.076 48.173 163.144 47.9862 163.246 47.8186C163.349 47.651 163.485 47.506 163.645 47.3926C163.806 47.2791 163.988 47.1995 164.18 47.1587C164.372 47.1179 164.571 47.1166 164.764 47.1551C165.134 47.2425 165.457 47.4672 165.669 47.7838C165.88 48.1004 165.963 48.4852 165.901 48.8607L165.861 50.9112C165.853 51.3449 166.003 51.7668 166.285 52.0971C166.566 52.4275 166.958 52.6434 167.388 52.7043C167.809 52.764 168.238 52.6707 168.596 52.4413C168.954 52.212 169.218 51.8618 169.34 51.4545L170.386 47.9541L169.248 46.2555C169.646 45.6144 169.98 43.9565 170.67 44.4504C171.254 44.813 172.579 45.6899 172.941 46.5206C172.948 46.524 173.627 53.6519 173.258 54.2463L169.992 62.98C168.425 65.5017 160.863 63.5503 160.863 63.5503L163.048 48.3675Z" fill="#E98862"/>
<path d="M166.876 48.4169L178.52 36.671C178.644 36.5464 178.791 36.4473 178.952 36.3794C179.114 36.3116 179.288 36.2762 179.463 36.2754C179.639 36.2746 179.813 36.3083 179.975 36.3747C180.137 36.4411 180.285 36.5388 180.41 36.6623C180.534 36.7857 180.633 36.9325 180.701 37.0943C180.769 37.256 180.805 37.4295 180.805 37.6049C180.806 37.7803 180.772 37.9542 180.706 38.1165C180.64 38.2789 180.542 38.4266 180.418 38.5512L167.848 51.2314" fill="#0CBC8B"/>
<path d="M107.446 109.124L154.571 105.16C158.041 105.251 161.062 102.367 162.335 99.1309L174.682 60.4448L158.531 54.0979L147.632 87.236L106.187 90.1357L107.446 109.124Z" fill="#367CFF"/>
<path d="M80.0837 291.269C80.0837 291.269 81.5918 299.082 88.9111 299.519C96.2305 299.956 94.6432 305.784 94.6432 305.784H66.6729V291.814L80.0837 291.269Z" fill="#367CFF"/>
<path d="M71.4565 148.712C71.4565 148.712 71.5443 146.363 71.5256 151.692C71.4565 171.569 71.1114 194.274 70.2684 207.56C68.9133 228.918 65.4385 296.256 65.4385 296.256L83.8182 296.102L101.632 147.905L71.4565 148.712Z" fill="#262626"/>
<path d="M92.2119 172.153C92.2119 172.153 92.9735 186.577 93.1138 189.964C93.4404 197.795 93.554 205.904 93.554 215.098L96.4519 190.996C96.4519 190.996 94.3319 183.443 92.2119 172.153Z" fill="#0A0A0A"/>
<path d="M112.804 291.269C112.804 291.269 114.312 299.082 121.632 299.519C128.951 299.956 127.364 305.784 127.364 305.784H99.3936V291.814L112.804 291.269Z" fill="#367CFF"/>
<path d="M121.704 150.256C121.704 150.256 123.332 218.192 123.093 221.512L116.258 295.74L98.1822 296.074L99.9438 218.827C99.9438 218.827 98.7013 197.518 93.5511 177.731C90.916 167.576 89.3301 157.177 88.8184 146.699L121.704 150.256Z" fill="#262626"/>
<path d="M71.2564 148.71L71.1963 148.714C71.1963 148.714 71.24 147.554 71.2564 148.71Z" fill="#333333"/>
<path d="M124.291 114.551C123.912 119.003 122.068 144.773 121.704 150.256H71.4769C71.1933 145.311 69.919 123.685 68.8431 114.014C67.816 104.785 65.8009 100.165 67.2779 97.4368C69.6915 92.9777 76.2871 90.4013 80.7843 89.7926C83.5306 89.4209 106.943 89.1538 106.999 89.1538C108.839 89.1538 119.547 90.018 121.914 91.8404C126.197 95.1381 124.953 106.788 124.291 114.551Z" fill="#367CFF"/>
<path d="M124.985 107.78C125.028 107.78 125.069 107.764 125.1 107.735C125.131 107.706 125.15 107.666 125.152 107.623L125.557 101.222C125.56 101.177 125.545 101.134 125.515 101.101C125.486 101.068 125.444 101.048 125.4 101.045C125.356 101.043 125.313 101.059 125.28 101.088C125.247 101.117 125.227 101.158 125.224 101.202L124.819 107.604C124.816 107.648 124.831 107.691 124.861 107.724C124.89 107.757 124.931 107.777 124.976 107.78L124.985 107.78Z" fill="#0C0C0C"/>
<path d="M60.6172 149.965C59.1401 149.965 57.6849 149.607 56.3756 148.924C55.0662 148.24 53.9414 147.251 53.0969 146.039C52.2523 144.828 51.713 143.43 51.5249 141.966C51.3367 140.501 51.5053 139.013 52.0162 137.627C52.5336 136.22 64.6986 104.017 67.0136 98.0503L84.1618 104.996C82.8591 108.35 78.1418 121.067 74.3514 131.311L80.6483 130.627L82.6303 148.854L61.6089 149.911C61.2795 149.947 60.9485 149.965 60.6172 149.965Z" fill="#367CFF"/>
<path d="M112.982 88.5447C112.926 88.5374 111.385 94.3334 99.3617 93.4311C91.0379 92.8077 89.0071 87.144 88.8174 87.144C89.7149 86.9533 91.1725 86.7553 91.571 86.5429C92.8817 85.8387 93.8367 84.9819 94.317 83.1424C94.6928 81.7043 94.8848 76.167 94.8848 73.3889L107.693 76.2662C107.515 79.3999 106.265 86.6651 110.645 87.951C111.373 88.1634 112.158 88.3587 112.982 88.5447Z" fill="#E98862"/>
<path d="M107.25 82.4269C102.201 82.8253 95.7139 80.6939 94.4817 73.9593L93.3701 67.8822C92.1379 61.1476 94.6775 55.041 101.021 53.8814C107.364 52.7217 113.104 57.3146 114.336 64.0492L114.828 66.7395C115.301 69.324 116.259 81.7164 107.25 82.4269Z" fill="#E98862"/>
<path d="M111.932 76.2436C111.026 71.6911 110.61 68.6535 110.659 65.4493C111.935 63.2121 111.6 60.641 111.309 59.5311C112.188 60.0893 113.222 60.3542 114.262 60.2877C114.262 60.2877 112.15 51.8171 104.974 49.5379C103.655 49.0247 100.285 48.3762 95.8118 48.9896C92.007 49.5112 82.6277 52.3551 81.2877 62.9109V62.9169C81.2436 63.2672 80.3431 72.993 78.5487 77.6594C76.1354 83.9322 72.7468 85.8812 72.8327 93.1194C72.9432 102.429 90.064 103.669 100.389 102.972C110.714 102.275 116.48 98.8813 116.556 92.1721C116.638 84.6541 113.746 85.3523 111.932 76.2436Z" fill="#0A0A0A"/>
<path d="M70.4071 114.2L70.0732 114.211L71.3074 150.262L71.6412 150.25L70.4071 114.2Z" fill="#0C0C0C"/>
<path d="M370.6 306.018H56.4828C56.4208 306.018 56.3614 305.993 56.3175 305.949C56.2737 305.905 56.249 305.846 56.249 305.784C56.249 305.722 56.2737 305.662 56.3175 305.619C56.3614 305.575 56.4208 305.55 56.4828 305.55H370.6C370.662 305.55 370.722 305.575 370.765 305.619C370.809 305.662 370.834 305.722 370.834 305.784C370.834 305.846 370.809 305.905 370.765 305.949C370.722 305.993 370.662 306.018 370.6 306.018Z" fill="#292A2E"/>
<path d="M338.176 262.257C338.088 262.257 338.003 262.222 337.94 262.159C337.47 261.689 336.703 253.057 334.637 227.358C333.791 216.843 332.992 206.91 332.41 200.874C332.368 200.443 332.201 200.393 332.146 200.376C331.348 200.136 328.922 202.048 327.567 203.723C327.54 203.757 327.506 203.785 327.467 203.806C327.429 203.827 327.386 203.84 327.343 203.845C327.299 203.85 327.255 203.846 327.213 203.833C327.171 203.821 327.132 203.8 327.098 203.772C327.063 203.745 327.035 203.711 327.014 203.672C326.993 203.634 326.98 203.592 326.975 203.548C326.971 203.504 326.975 203.46 326.987 203.418C327 203.376 327.02 203.337 327.048 203.303C327.944 202.196 330.863 199.293 332.338 199.737C332.635 199.826 333.006 200.085 333.075 200.81C333.658 206.851 334.456 216.786 335.302 227.305C336.558 242.921 337.98 260.614 338.448 261.728C338.484 261.778 338.505 261.837 338.51 261.898C338.514 261.96 338.502 262.021 338.474 262.076C338.446 262.13 338.403 262.176 338.351 262.208C338.298 262.24 338.238 262.257 338.176 262.257Z" fill="#494949"/>
<path d="M331.552 211.95C337.094 207.509 338.931 200.596 335.655 196.51C332.378 192.423 325.229 192.711 319.686 197.153C314.144 201.594 312.307 208.507 315.583 212.593C318.86 216.68 326.009 216.392 331.552 211.95Z" fill="#0CBC8B"/>
<path opacity="0.2" d="M331.552 211.95C337.094 207.509 338.931 200.596 335.655 196.51C332.378 192.423 325.229 192.711 319.686 197.153C314.144 201.594 312.307 208.507 315.583 212.593C318.86 216.68 326.009 216.392 331.552 211.95Z" fill="white"/>
<path d="M317.136 213.633C317.105 213.633 317.074 213.624 317.047 213.607C317.02 213.59 316.999 213.565 316.986 213.537C316.972 213.508 316.967 213.476 316.971 213.445C316.975 213.413 316.988 213.384 317.008 213.359L332.804 194.317C332.818 194.299 332.835 194.285 332.855 194.274C332.874 194.264 332.896 194.257 332.918 194.255C332.94 194.253 332.962 194.255 332.983 194.261C333.004 194.268 333.024 194.279 333.041 194.293C333.058 194.307 333.072 194.324 333.083 194.344C333.093 194.364 333.099 194.385 333.101 194.407C333.103 194.429 333.1 194.452 333.093 194.473C333.087 194.494 333.076 194.513 333.061 194.53L317.265 213.573C317.249 213.591 317.23 213.607 317.207 213.617C317.185 213.627 317.161 213.633 317.136 213.633Z" fill="white"/>
<path d="M341.622 258.175C341.569 258.175 341.516 258.162 341.469 258.137C341.421 258.113 341.381 258.078 341.35 258.034C341.319 257.991 341.299 257.94 341.291 257.888C341.284 257.835 341.289 257.781 341.307 257.731L347.24 240.672C347.415 240.171 347.712 239.722 348.106 239.365C348.499 239.009 348.976 238.757 349.492 238.632C350.008 238.508 350.547 238.515 351.06 238.653C351.573 238.79 352.043 239.055 352.427 239.421L355.564 242.418C355.628 242.479 355.665 242.563 355.667 242.652C355.669 242.74 355.636 242.826 355.574 242.89C355.513 242.954 355.429 242.991 355.34 242.993C355.252 242.995 355.166 242.962 355.102 242.901L351.965 239.905C351.662 239.616 351.291 239.408 350.886 239.299C350.482 239.19 350.056 239.185 349.649 239.283C349.241 239.381 348.865 239.58 348.554 239.861C348.244 240.143 348.009 240.497 347.871 240.893L341.937 257.95C341.915 258.016 341.872 258.073 341.815 258.113C341.759 258.153 341.691 258.175 341.622 258.175Z" fill="#494949"/>
<path d="M364.328 251.862C368.435 248.611 368.191 241.463 363.783 235.895C359.374 230.327 352.47 228.448 348.362 231.698C344.255 234.948 344.499 242.097 348.908 247.665C353.316 253.233 360.22 255.112 364.328 251.862Z" fill="#0CBC8B"/>
<path d="M335.481 261.169C335.406 261.169 335.333 261.144 335.274 261.097C335.215 261.051 335.174 260.986 335.156 260.913L325.199 219.293C325.131 219.009 324.986 218.75 324.78 218.543C324.574 218.336 324.315 218.19 324.032 218.121C323.748 218.052 323.451 218.063 323.173 218.152C322.895 218.241 322.647 218.404 322.456 218.625L319.387 222.171C319.329 222.238 319.246 222.279 319.158 222.286C319.07 222.292 318.982 222.263 318.915 222.205C318.848 222.147 318.807 222.065 318.801 221.977C318.794 221.888 318.823 221.801 318.881 221.734L321.951 218.188C322.222 217.875 322.575 217.642 322.97 217.516C323.365 217.39 323.788 217.375 324.19 217.473C324.593 217.572 324.962 217.779 325.254 218.073C325.547 218.367 325.752 218.736 325.849 219.139L335.806 260.759C335.818 260.808 335.819 260.859 335.808 260.909C335.797 260.958 335.775 261.004 335.744 261.044C335.712 261.083 335.672 261.115 335.627 261.137C335.581 261.159 335.531 261.171 335.481 261.171V261.169Z" fill="#494949"/>
<path d="M331.611 231.423C332.819 224.429 329.615 218.037 324.455 217.146C319.294 216.256 314.132 221.205 312.925 228.199C311.717 235.194 314.921 241.586 320.081 242.476C325.242 243.367 330.404 238.418 331.611 231.423Z" fill="#0CBC8B"/>
<path d="M338.177 262.257C338.163 262.257 338.15 262.256 338.136 262.254C338.092 262.249 338.05 262.235 338.012 262.214C337.974 262.192 337.94 262.163 337.913 262.128C337.886 262.094 337.867 262.054 337.855 262.012C337.843 261.97 337.84 261.926 337.845 261.882L344.204 210.274C344.273 209.712 344.503 209.182 344.867 208.747C345.23 208.313 345.711 207.992 346.253 207.825C346.794 207.657 347.372 207.649 347.917 207.802C348.463 207.955 348.953 208.262 349.328 208.687L356.595 216.916C356.654 216.982 356.684 217.069 356.679 217.157C356.673 217.246 356.633 217.329 356.566 217.387C356.5 217.446 356.413 217.476 356.324 217.47C356.236 217.465 356.153 217.424 356.094 217.358L348.827 209.129C348.537 208.801 348.159 208.564 347.737 208.445C347.315 208.327 346.868 208.333 346.45 208.463C346.032 208.592 345.66 208.84 345.379 209.176C345.098 209.511 344.92 209.921 344.866 210.356L338.508 261.964C338.498 262.045 338.459 262.119 338.398 262.173C338.337 262.227 338.259 262.257 338.177 262.257Z" fill="#494949"/>
<path d="M364.049 221.489C366.585 216.906 363.602 210.405 357.386 206.968C351.17 203.53 344.075 204.459 341.539 209.042C339.004 213.624 341.987 220.126 348.203 223.563C354.419 227 361.514 226.071 364.049 221.489Z" fill="#0CBC8B"/>
<path opacity="0.2" d="M364.328 251.862C368.435 248.611 368.191 241.463 363.783 235.895C359.374 230.327 352.47 228.448 348.362 231.698C344.255 234.948 344.499 242.097 348.908 247.665C353.316 253.233 360.22 255.112 364.328 251.862Z" fill="white"/>
<path opacity="0.5" d="M331.611 231.423C332.819 224.429 329.615 218.037 324.455 217.146C319.294 216.256 314.132 221.205 312.925 228.199C311.717 235.194 314.921 241.586 320.081 242.476C325.242 243.367 330.404 238.418 331.611 231.423Z" fill="white"/>
<path opacity="0.5" d="M364.049 221.489C366.585 216.906 363.602 210.405 357.386 206.968C351.17 203.53 344.075 204.459 341.539 209.042C339.004 213.624 341.987 220.126 348.203 223.563C354.419 227 361.514 226.071 364.049 221.489Z" fill="white"/>
<path d="M346.31 306.046H330.044L327.349 254.022H349.005L346.31 306.046Z" fill="#292A2E"/>
<path opacity="0.3" d="M346.31 306.046H330.044L327.349 254.022H349.005L346.31 306.046Z" fill="white"/>
<path d="M364.329 252.026C364.303 252.027 364.279 252.021 364.256 252.01C364.233 251.999 364.213 251.983 364.197 251.963L348.231 231.8C348.204 231.765 348.191 231.721 348.196 231.677C348.202 231.633 348.224 231.592 348.259 231.565C348.294 231.537 348.338 231.525 348.382 231.53C348.426 231.535 348.466 231.557 348.494 231.592L364.46 251.756C364.479 251.78 364.491 251.81 364.495 251.841C364.498 251.872 364.493 251.904 364.479 251.932C364.466 251.96 364.444 251.984 364.418 252.001C364.391 252.018 364.36 252.026 364.329 252.026Z" fill="white"/>
<path d="M362.987 223.104C362.952 223.104 362.917 223.092 362.889 223.071L342.458 208.159C342.44 208.146 342.425 208.13 342.414 208.111C342.403 208.092 342.395 208.071 342.392 208.05C342.388 208.028 342.389 208.006 342.394 207.985C342.4 207.963 342.409 207.943 342.422 207.925C342.435 207.908 342.451 207.893 342.47 207.881C342.489 207.87 342.509 207.862 342.531 207.859C342.553 207.856 342.575 207.856 342.596 207.862C342.617 207.867 342.638 207.876 342.655 207.889L363.087 222.802C363.115 222.823 363.136 222.853 363.146 222.886C363.157 222.92 363.156 222.956 363.145 222.989C363.134 223.022 363.113 223.051 363.085 223.071C363.056 223.092 363.022 223.103 362.987 223.103V223.104Z" fill="white"/>
<path d="M319.441 242.253C319.426 242.253 319.412 242.251 319.397 242.248C319.355 242.236 319.318 242.208 319.296 242.17C319.274 242.132 319.268 242.086 319.279 242.043L325.783 217.684C325.788 217.662 325.798 217.642 325.811 217.624C325.825 217.606 325.841 217.592 325.86 217.58C325.879 217.569 325.901 217.562 325.923 217.559C325.944 217.556 325.967 217.557 325.988 217.563C326.01 217.569 326.03 217.578 326.047 217.592C326.065 217.606 326.079 217.622 326.09 217.642C326.101 217.661 326.108 217.682 326.111 217.704C326.114 217.726 326.112 217.749 326.106 217.77L319.602 242.13C319.592 242.165 319.571 242.196 319.542 242.219C319.513 242.241 319.477 242.253 319.441 242.253Z" fill="white"/>
</g>
<defs>
<filter id="filter0_d_181_1950" x="0" y="277.494" width="442" height="79.019" filterUnits="userSpaceOnUse" color-interpolation-filters="sRGB">
<feFlood flood-opacity="0" result="BackgroundImageFix"/>
<feColorMatrix in="SourceAlpha" type="matrix" values="0 0 0 0 0 0 0 0 0 0 0 0 0 0 0 0 0 0 127 0" result="hardAlpha"/>
<feMorphology radius="6" operator="dilate" in="SourceAlpha" result="effect1_dropShadow_181_1950"/>
<feOffset dx="6" dy="5"/>
<feGaussianBlur stdDeviation="10"/>
<feComposite in2="hardAlpha" operator="out"/>
<feColorMatrix type="matrix" values="0 0 0 0 0 0 0 0 0 0 0 0 0 0 0 0 0 0 0.3 0"/>
<feBlend mode="normal" in2="BackgroundImageFix" result="effect1_dropShadow_181_1950"/>
<feBlend mode="normal" in="SourceGraphic" in2="effect1_dropShadow_181_1950" result="shape"/>
</filter>
<clipPath id="clip0_181_1950">
<rect width="326.756" height="306.046" fill="white" transform="translate(51.4482)"/>
</clipPath>
</defs>
</svg>
