<svg width="23" height="28" viewBox="0 0 23 28" fill="none" xmlns="http://www.w3.org/2000/svg">
<path fill-rule="evenodd" clip-rule="evenodd" d="M14.4144 18.7252C14.3102 18.8424 14.2265 18.9837 14.1685 19.1407C14.1105 19.2977 14.0793 19.4672 14.0768 19.6391C14.0743 19.8109 14.1005 19.9817 14.1539 20.141C14.2072 20.3004 14.2867 20.4452 14.3875 20.5668C14.4883 20.6883 14.6083 20.7841 14.7405 20.8485C14.8727 20.9129 15.0142 20.9445 15.1568 20.9415C15.2993 20.9384 15.4398 20.9008 15.57 20.8308C15.7002 20.7609 15.8174 20.66 15.9146 20.5343L20.5155 14.9875L21.2655 14.083L20.5155 13.1784L15.916 7.63171C15.7159 7.39843 15.4478 7.26926 15.1695 7.27202C14.8912 7.27477 14.625 7.40924 14.4281 7.64645C14.2312 7.88367 14.1194 8.20465 14.1169 8.54027C14.1143 8.87588 14.2212 9.19928 14.4144 9.4408L17.2024 12.803H2.51383C2.23232 12.803 1.96235 12.9378 1.76329 13.1779C1.56424 13.4179 1.45241 13.7435 1.45241 14.083C1.45241 14.4225 1.56424 14.748 1.76329 14.9881C1.96235 15.2281 2.23232 15.363 2.51383 15.363H17.2024L14.4144 18.7252Z" fill="#F0F9FF"/>
</svg>
