<svg width="651" height="556" viewBox="0 0 651 556" fill="none" xmlns="http://www.w3.org/2000/svg">
<g clip-path="url(#clip0_159_5038)">
<path opacity="0.1" d="M647.798 382.851C630.029 293.144 525.929 221.447 505.625 127.966C468.723 9.03293 347.091 -9.77064 268.052 41.882C142.815 123.726 276.417 144.037 30.8677 337.675C-29.764 385.488 -10.444 596.548 180.3 548.11C282.95 522.043 314.155 518.385 360.328 514.093C476.707 503.275 677.624 533.436 647.798 382.851Z" fill="#367CFF"/>
<path d="M508.769 405.334L328.892 500.448L149.288 405.334V261.705H508.769V405.334Z" fill="white"/>
<path d="M328.892 501.906C328.654 501.907 328.42 501.848 328.21 501.736L148.611 406.622C148.378 406.499 148.182 406.314 148.045 406.088C147.909 405.862 147.836 405.603 147.835 405.339V261.705C147.835 261.318 147.988 260.947 148.262 260.673C148.535 260.4 148.906 260.246 149.292 260.246H508.768C509.155 260.246 509.525 260.4 509.799 260.673C510.072 260.947 510.225 261.318 510.225 261.705V405.334C510.224 405.598 510.152 405.857 510.015 406.084C509.878 406.31 509.683 406.494 509.449 406.618L329.573 501.733C329.364 501.846 329.13 501.905 328.892 501.906ZM150.745 404.457L328.892 498.799L507.311 404.455V263.163H150.745V404.457Z" fill="#262626"/>
<path d="M508.768 230.884L328.892 135.77L409.721 96.7637L589.597 191.879L508.768 230.884Z" fill="white"/>
<path d="M508.768 232.343C508.531 232.343 508.297 232.285 508.087 232.175L328.211 137.06C327.973 136.934 327.774 136.744 327.637 136.511C327.5 136.279 327.43 136.013 327.435 135.743C327.44 135.473 327.52 135.21 327.665 134.982C327.811 134.755 328.016 134.572 328.259 134.455L409.088 95.4485C409.294 95.3487 409.52 95.299 409.748 95.3032C409.976 95.3075 410.2 95.3657 410.402 95.473L590.278 190.588C590.517 190.714 590.715 190.904 590.852 191.136C590.989 191.369 591.059 191.635 591.054 191.904C591.049 192.174 590.97 192.437 590.824 192.665C590.679 192.892 590.473 193.074 590.23 193.192L509.401 232.198C509.204 232.293 508.987 232.343 508.768 232.343ZM332.124 135.827L508.798 229.248L586.365 191.817L409.691 98.3988L332.124 135.827Z" fill="#262626"/>
<path d="M149.287 230.884L329.163 135.77L248.334 96.7637L68.4575 191.879L149.287 230.884Z" fill="white"/>
<path d="M149.287 232.343C149.068 232.343 148.852 232.293 148.654 232.198L67.8294 193.192C67.5866 193.074 67.3811 192.892 67.2356 192.665C67.0902 192.437 67.0106 192.174 67.0056 191.904C67.0007 191.635 67.0706 191.369 67.2076 191.136C67.3446 190.904 67.5433 190.714 67.7816 190.588L247.658 95.473C247.859 95.3657 248.083 95.3075 248.312 95.3032C248.54 95.299 248.766 95.3487 248.972 95.4485L329.801 134.455C330.044 134.572 330.249 134.755 330.395 134.982C330.54 135.21 330.62 135.473 330.625 135.743C330.63 136.013 330.56 136.279 330.423 136.511C330.286 136.744 330.087 136.934 329.849 137.06L149.973 232.175C149.761 232.286 149.526 232.344 149.287 232.343ZM71.6901 191.819L149.257 229.25L325.931 135.83L248.364 98.3988L71.6901 191.819Z" fill="#262626"/>
<path d="M149.287 230.884L329.163 325.999L236.677 376.675L56.8008 281.561L149.287 230.884Z" fill="white"/>
<path d="M236.677 378.133C236.44 378.134 236.206 378.076 235.996 377.964L56.1201 282.849C55.8879 282.726 55.6933 282.542 55.557 282.317C55.4206 282.092 55.3477 281.834 55.3457 281.571C55.3438 281.308 55.4131 281.049 55.5461 280.822C55.6792 280.595 55.8711 280.409 56.1015 280.282L148.588 229.605C148.799 229.489 149.036 229.427 149.277 229.426C149.518 229.424 149.755 229.482 149.968 229.596L329.844 324.71C330.076 324.834 330.271 325.018 330.407 325.243C330.544 325.468 330.617 325.725 330.619 325.989C330.621 326.252 330.551 326.511 330.418 326.738C330.285 326.965 330.093 327.151 329.863 327.278L237.377 377.955C237.162 378.072 236.922 378.134 236.677 378.133ZM59.8783 281.538L236.664 375.019L326.087 326.021L149.3 232.54L59.8783 281.538Z" fill="#262626"/>
<path d="M508.768 230.884L328.892 325.999L421.378 376.675L601.254 281.561L508.768 230.884Z" fill="white"/>
<path d="M421.38 378.133C421.136 378.133 420.896 378.072 420.681 377.955L328.195 327.278C327.964 327.151 327.772 326.965 327.639 326.738C327.506 326.511 327.437 326.252 327.439 325.989C327.441 325.725 327.514 325.468 327.65 325.243C327.787 325.018 327.981 324.834 328.213 324.71L508.09 229.596C508.302 229.482 508.54 229.424 508.781 229.426C509.022 229.427 509.259 229.489 509.47 229.605L601.956 280.282C602.187 280.409 602.378 280.595 602.511 280.822C602.644 281.049 602.714 281.308 602.712 281.571C602.71 281.834 602.637 282.092 602.501 282.317C602.364 282.542 602.17 282.726 601.937 282.849L422.061 377.964C421.852 378.076 421.618 378.134 421.38 378.133ZM331.973 326.021L421.394 375.019L598.182 281.538L508.759 232.54L331.973 326.021Z" fill="#262626"/>
<path d="M329.163 135.77L149.287 230.884L328.892 325.999L508.768 230.884L329.163 135.77Z" fill="#262626"/>
<path d="M330.349 325.998H327.435V500.448H330.349V325.998Z" fill="#262626"/>
<path d="M228.11 222.249C227.869 222.249 227.634 222.174 227.438 222.033C227.185 221.854 227.014 221.582 226.962 221.277C226.91 220.972 226.982 220.659 227.16 220.406C227.376 220.101 248.443 189.609 224.924 161.81C220.762 156.864 215.569 152.889 209.711 150.164C203.852 147.439 197.469 146.03 191.009 146.036H190.692C192.925 153.804 192.527 160.71 189.364 166.009C188.017 168.403 186.028 170.373 183.623 171.697C181.217 173.02 178.49 173.645 175.749 173.501C173.48 173.315 171.314 172.47 169.517 171.071C167.72 169.671 166.37 167.777 165.632 165.621C163.045 158.866 165.749 152.317 172.873 148.095C177.387 145.604 182.402 144.159 187.548 143.87C185.874 139.426 183.697 135.189 181.06 131.241C172.568 118.256 157.091 109.268 138.596 106.58C122.923 104.303 107.902 106.985 100.324 113.411C100.088 113.611 99.7819 113.708 99.4738 113.683C99.1656 113.657 98.8803 113.51 98.6806 113.274C98.4809 113.037 98.3831 112.731 98.4088 112.423C98.4345 112.114 98.5815 111.828 98.8176 111.629C106.882 104.791 122.627 101.9 138.931 104.276C158.087 107.061 174.152 116.424 183.011 129.968C185.883 134.263 188.22 138.894 189.968 143.758C196.937 143.59 203.854 144.99 210.211 147.854C216.567 150.718 222.201 154.973 226.697 160.306C251.402 189.505 229.282 221.442 229.056 221.762C228.948 221.913 228.806 222.035 228.642 222.12C228.477 222.204 228.295 222.249 228.11 222.249ZM188.305 146.121C183.315 146.334 178.442 147.697 174.066 150.105C167.916 153.749 165.638 159.101 167.814 164.787C168.404 166.529 169.488 168.061 170.934 169.196C172.38 170.331 174.125 171.02 175.955 171.177C178.26 171.281 180.548 170.74 182.564 169.616C184.58 168.492 186.243 166.829 187.369 164.812C190.271 159.946 190.537 153.477 188.301 146.121H188.305Z" fill="#292A2E"/>
<path d="M80.2051 132.227C78.2242 132.823 76.0893 132.621 74.2549 131.664C72.4204 130.708 71.0315 129.072 70.3837 127.105C69.7359 125.139 69.8805 122.997 70.7867 121.135C71.6929 119.274 73.2891 117.84 75.2354 117.139C77.1817 116.438 79.3244 116.526 81.2072 117.383C83.09 118.24 84.5642 119.799 85.3159 121.729C86.0676 123.658 86.0374 125.805 85.2318 127.712C84.4261 129.619 82.9087 131.136 81.0025 131.94C80.7421 132.05 80.4759 132.146 80.2051 132.227ZM76.3293 119.259C76.1404 119.316 75.9548 119.383 75.7732 119.46C74.432 120.026 73.3646 121.094 72.7982 122.436C72.2319 123.779 72.2115 125.289 72.7413 126.647C73.2711 128.004 74.3093 129.101 75.6347 129.703C76.9602 130.305 78.4681 130.366 79.8374 129.871C81.2067 129.377 82.3291 128.367 82.9656 127.057C83.602 125.746 83.7023 124.238 83.245 122.855C82.7876 121.471 81.8089 120.321 80.5171 119.65C79.2254 118.978 77.7227 118.838 76.3293 119.259Z" fill="#292A2E"/>
<path d="M80.1912 113.939C78.3173 114.5 76.3028 114.346 74.5349 113.509C72.767 112.673 71.3705 111.211 70.6139 109.405C70.0073 107.958 69.8431 106.363 70.1419 104.822C70.4408 103.281 71.1894 101.864 72.2929 100.749C73.3965 99.6338 74.8056 98.8716 76.3419 98.5585C77.8782 98.2453 79.4727 98.3953 80.9239 98.9895C82.375 99.5837 83.6175 100.595 84.4943 101.897C85.3712 103.198 85.8429 104.73 85.8498 106.3C85.8567 107.87 85.3985 109.406 84.5332 110.715C83.6679 112.024 82.4343 113.046 80.9885 113.653C80.7279 113.763 80.4617 113.858 80.1912 113.939ZM76.3199 100.97C76.1289 101.027 75.9409 101.095 75.7569 101.172C74.3894 101.747 73.3059 102.842 72.7446 104.217C72.1833 105.591 72.1901 107.133 72.7634 108.502C73.1816 109.5 73.8798 110.356 74.7734 110.966C75.6671 111.575 76.718 111.912 77.799 111.936C78.88 111.96 79.9449 111.67 80.8647 111.101C81.7845 110.532 82.52 109.708 82.982 108.73C83.4441 107.751 83.613 106.659 83.4683 105.586C83.3236 104.513 82.8716 103.505 82.1668 102.684C81.462 101.863 80.5347 101.264 79.4971 100.96C78.4594 100.655 77.3559 100.66 76.3199 100.97Z" fill="#292A2E"/>
<path d="M77.9287 122.193C83.6533 122.193 88.294 119.09 88.294 115.262C88.294 111.434 83.6533 108.331 77.9287 108.331C72.2042 108.331 67.5635 111.434 67.5635 115.262C67.5635 119.09 72.2042 122.193 77.9287 122.193Z" fill="white"/>
<path d="M82.5168 122.703C81.0307 123.143 79.4888 123.364 77.9392 123.361C71.472 123.361 66.3989 119.813 66.3989 115.272C66.3989 110.731 71.4568 107.171 77.9217 107.164C80.7403 107.109 83.5133 107.88 85.9008 109.381C86.973 109.94 87.8717 110.783 88.4993 111.818C89.1268 112.852 89.4591 114.039 89.4602 115.25C89.4613 116.46 89.1311 117.648 88.5054 118.684C87.8797 119.719 86.9825 120.564 85.9113 121.125C84.864 121.816 83.72 122.348 82.5168 122.703ZM74.0516 110.053C70.9369 110.987 68.7291 113.002 68.7303 115.266C68.7303 118.391 72.9466 121.027 77.9392 121.022C80.2976 121.072 82.6193 120.433 84.6209 119.183C85.3715 118.837 86.0072 118.282 86.4526 117.585C86.898 116.888 87.1344 116.078 87.1336 115.251C87.1329 114.423 86.8951 113.613 86.4485 112.917C86.0019 112.221 85.3651 111.668 84.6139 111.323C82.6109 110.076 80.288 109.441 77.9298 109.495C76.6169 109.492 75.3105 109.68 74.0516 110.053Z" fill="#292A2E"/>
<path d="M80.471 121.982L80.2262 108.502L76.8783 108.367L76.644 122.139L80.471 121.982Z" fill="#292A2E"/>
<path d="M64.177 118.194C64.768 118.194 65.2471 117.715 65.2471 117.123C65.2471 116.531 64.768 116.052 64.177 116.052C63.586 116.052 63.1069 116.531 63.1069 117.123C63.1069 117.715 63.586 118.194 64.177 118.194Z" fill="#292A2E"/>
<path d="M65.013 112.462C65.604 112.462 66.0831 111.982 66.0831 111.39C66.0831 110.799 65.604 110.319 65.013 110.319C64.422 110.319 63.9429 110.799 63.9429 111.39C63.9429 111.982 64.422 112.462 65.013 112.462Z" fill="#292A2E"/>
<path d="M411.268 154.945C411.018 154.945 410.776 154.865 410.575 154.716C410.374 154.568 410.227 154.359 410.154 154.12C406.287 139.664 405.255 124.596 407.116 109.747C410.129 88.0401 422.087 59.5512 461.938 47.0765C467.545 45.2716 473.297 43.9515 479.129 43.1307C481.007 31.389 488.15 18.6518 504.126 9.86384C542.083 -11.0171 567.722 7.71763 567.976 7.90903C568.224 8.09474 568.387 8.37121 568.431 8.67762C568.475 8.98403 568.395 9.29529 568.209 9.5429C568.024 9.79052 567.748 9.95422 567.442 9.998C567.136 10.0418 566.825 9.96203 566.577 9.77631C566.335 9.59425 541.832 -8.21615 505.25 11.9109C490.322 20.1234 483.489 31.9107 481.546 42.8529C499.123 41.1199 507.54 46.9902 511.318 51.4238C513.656 54.09 515.158 57.3858 515.637 60.9007C516.117 64.4155 515.553 67.994 514.016 71.1902C512.801 73.7736 510.832 75.9273 508.369 77.3669C505.906 78.8065 503.064 79.4642 500.22 79.2533C490.404 78.6768 482.28 70.4094 479.527 58.1904C478.618 54.0541 478.377 49.7989 478.811 45.5862C473.325 46.3753 467.914 47.6209 462.635 49.3103C431.575 59.033 413.676 79.4786 409.424 110.075C407.602 124.587 408.607 139.314 412.382 153.443C412.436 153.617 412.448 153.802 412.417 153.982C412.386 154.162 412.313 154.332 412.205 154.479C412.097 154.625 411.955 154.745 411.793 154.827C411.63 154.909 411.45 154.952 411.268 154.952V154.945ZM481.188 45.2944C480.702 49.4269 480.909 53.6116 481.801 57.6757C484.32 68.8537 491.603 76.4081 500.356 76.9227C502.742 77.0939 505.124 76.5391 507.189 75.3311C509.254 74.1232 510.906 72.3185 511.929 70.1538C513.262 67.3667 513.746 64.2486 513.322 61.1879C512.897 58.1272 511.583 55.2591 509.542 52.941C504.091 46.5373 494.144 43.9511 481.188 45.2944Z" fill="#292A2E"/>
<path d="M595.13 19.7045C593.56 19.7012 592.022 19.2535 590.696 18.413C589.369 17.5726 588.307 16.3736 587.631 14.9546C586.956 13.5355 586.695 11.9542 586.879 10.3931C587.063 8.83208 587.684 7.35489 588.671 6.13206C589.657 4.90924 590.969 3.99063 592.455 3.48226C593.94 2.97388 595.539 2.89647 597.067 3.25895C598.595 3.62142 599.989 4.40902 601.089 5.53083C602.188 6.65264 602.949 8.06294 603.282 9.59896C603.544 10.8166 603.53 12.0773 603.241 13.2888C602.953 14.5002 602.398 15.6318 601.616 16.6006C600.834 17.5695 599.846 18.351 598.724 18.8881C597.602 19.4251 596.374 19.7041 595.13 19.7045ZM595.147 5.36839C593.907 5.36836 592.698 5.75334 591.686 6.47026C590.674 7.18718 589.909 8.20075 589.496 9.37128C589.083 10.5418 589.043 11.8117 589.382 13.0058C589.72 14.2 590.42 15.2597 591.385 16.0388C592.351 16.818 593.533 17.2783 594.771 17.3562C596.008 17.4341 597.239 17.1259 598.294 16.474C599.349 15.8221 600.176 14.8586 600.662 13.7163C601.147 12.574 601.266 11.3092 601.004 10.0961C600.719 8.75398 599.982 7.55095 598.915 6.68977C597.848 5.82859 596.517 5.36192 595.147 5.36839Z" fill="#292A2E"/>
<path d="M591.619 38.7519C589.483 38.7518 587.428 37.9316 585.877 36.4602C584.326 34.9888 583.398 32.9782 583.284 30.8422C583.169 28.7063 583.876 26.6076 585.261 24.9783C586.645 23.3489 588.6 22.3128 590.724 22.0833C592.849 21.8538 594.98 22.4484 596.679 23.7446C598.379 25.0408 599.517 26.94 599.86 29.0513C600.203 31.1625 599.725 33.3251 598.524 35.0938C597.322 36.8626 595.489 38.1029 593.402 38.5594C592.816 38.6873 592.219 38.7519 591.619 38.7519ZM591.649 24.4147C591.217 24.4149 590.788 24.4614 590.366 24.5536C588.877 24.881 587.57 25.7673 586.714 27.0302C585.858 28.2931 585.518 29.8365 585.764 31.3428C586.01 32.8491 586.823 34.2038 588.036 35.1282C589.249 36.0525 590.77 36.4762 592.286 36.312C593.801 36.1479 595.196 35.4084 596.184 34.2456C597.172 33.0829 597.677 31.5855 597.595 30.0613C597.513 28.5372 596.851 27.1024 595.745 26.052C594.639 25.0017 593.173 24.4157 591.649 24.4147Z" fill="#292A2E"/>
<path d="M604.139 23.1139C604.873 19.1277 600.636 15.0034 594.675 13.9021C588.714 12.8008 583.286 15.1395 582.551 19.1258C581.816 23.112 586.053 27.2363 592.015 28.3376C597.976 29.4389 603.404 27.1002 604.139 23.1139Z" fill="white"/>
<path d="M594.95 29.7785C593.895 29.7767 592.841 29.6791 591.803 29.4867C588.871 28.9997 586.145 27.667 583.959 25.6517C583.002 24.8344 582.266 23.7886 581.82 22.6112C581.374 21.4338 581.231 20.1628 581.405 18.9155C581.687 17.6883 582.274 16.552 583.111 15.6117C583.947 14.6713 585.007 13.9573 586.193 13.5354C588.965 12.4869 591.972 12.2173 594.887 12.7558C597.801 13.2944 600.514 14.6205 602.73 16.5907C603.687 17.4081 604.423 18.4539 604.869 19.6313C605.315 20.8087 605.458 22.0797 605.284 23.327C605.002 24.5542 604.415 25.6905 603.579 26.6308C602.742 27.5712 601.682 28.2852 600.497 28.7071C598.739 29.4354 596.852 29.7998 594.95 29.7785ZM591.731 14.7958C590.148 14.7757 588.577 15.0762 587.113 15.6793C586.285 15.9569 585.539 16.4369 584.943 17.076C584.346 17.715 583.918 18.4929 583.698 19.3392C583.602 20.2084 583.725 21.0879 584.054 21.8979C584.383 22.7079 584.909 23.4229 585.584 23.9782C587.47 25.6258 589.763 26.7352 592.224 27.19C594.685 27.6449 597.223 27.4284 599.572 26.5632C600.401 26.2856 601.147 25.8056 601.743 25.1665C602.339 24.5275 602.767 23.7496 602.988 22.9033C603.084 22.034 602.962 21.1543 602.633 20.3442C602.303 19.5341 601.777 18.8191 601.102 18.2643C599.246 16.5695 596.937 15.453 594.457 15.0514C593.56 14.884 592.648 14.7985 591.735 14.7958H591.731Z" fill="#292A2E"/>
<path d="M591.998 13.6334L589.654 27.7151L593.113 28.504L596.013 14.2088L591.998 13.6334Z" fill="#292A2E"/>
<path d="M606.051 28.783C606.677 28.783 607.184 28.2752 607.184 27.6487C607.184 27.0222 606.677 26.5143 606.051 26.5143C605.425 26.5143 604.918 27.0222 604.918 27.6487C604.918 28.2752 605.425 28.783 606.051 28.783Z" fill="#292A2E"/>
<path d="M608.026 22.9758C608.651 22.9758 609.159 22.4679 609.159 21.8414C609.159 21.2149 608.651 20.707 608.026 20.707C607.4 20.707 606.893 21.2149 606.893 21.8414C606.893 22.4679 607.4 22.9758 608.026 22.9758Z" fill="#292A2E"/>
</g>
<defs>
<clipPath id="clip0_159_5038">
<rect width="650.561" height="555.282" fill="white" transform="translate(0.219727)"/>
</clipPath>
</defs>
</svg>
