<svg width="455" height="357" viewBox="0 0 455 357" fill="none" xmlns="http://www.w3.org/2000/svg">
<g filter="url(#filter0_d_181_1764)">
<ellipse cx="221.5" cy="311.307" rx="201.5" ry="13.9598" fill="#0284C7" fill-opacity="0.5" shape-rendering="crispEdges"/>
</g>
<g clip-path="url(#clip0_181_1764)">
<path d="M39.815 313.87H403.619C399.633 303.455 392.272 294.619 381.894 291.997C366.713 288.168 350.647 298.696 335.5 294.739C326.894 292.492 320.12 285.943 313.001 280.504C286.143 259.988 249.338 253.923 217.557 264.783C200.945 270.456 185.808 280.378 168.791 284.596C146.786 290.052 123.774 285.526 101.144 284.782C79.1047 284.059 47.5268 293.259 39.815 313.87Z" fill="#BAE6FD"/>
<path d="M219.986 175.437C267.269 175.437 305.6 136.164 305.6 87.7186C305.6 39.273 267.269 0 219.986 0C172.703 0 134.373 39.273 134.373 87.7186C134.373 136.164 172.703 175.437 219.986 175.437Z" fill="#DEE8F5"/>
<path d="M307.036 308.838C306.031 300.177 306.031 299.285 306.031 298.992H315.566C315.566 298.963 315.566 298.924 315.566 298.878C315.6 299.601 316.081 304.012 316.507 307.684L307.036 308.838Z" fill="#E98862"/>
<path d="M345.028 310.006C345.028 310.006 344.996 299.889 344.996 298.993H354.53C354.53 299.887 354.563 309.972 354.563 309.972L345.028 310.006Z" fill="#E98862"/>
<path d="M320.316 305.752L303.517 305.459C304.306 284.976 304.354 263.49 304.6 242.957C307.879 220.826 309.605 196.523 313.651 174.551L313.772 174.587L314.128 172.108L348.669 169.921C348.669 169.921 349.668 187.264 350.013 193.044C351.696 221.086 354.966 273.033 357.018 305.196L340.278 306.645C337.262 275.111 332.595 229.164 329.724 196.037C326.427 212.165 324.185 228.865 321.318 244.855C320.747 264.872 320.262 285.796 320.316 305.752Z" fill="#262626"/>
<path d="M333.437 313.784C333.181 313.782 332.928 313.727 332.693 313.621C332.458 313.515 332.248 313.36 332.074 313.167C331.9 312.974 331.767 312.746 331.683 312.497C331.599 312.249 331.566 311.986 331.586 311.724C331.614 311.361 331.743 311.013 331.956 310.722C332.17 310.432 332.461 310.209 332.794 310.082L343.892 306.274C344.107 306.201 344.334 306.176 344.559 306.202C344.784 306.228 345.001 306.303 345.196 306.422C346.721 307.507 348.546 308.062 350.402 308.004C351.848 307.899 353.236 307.379 354.407 306.505C354.51 306.419 354.635 306.364 354.767 306.347C354.899 306.33 355.033 306.353 355.153 306.411C355.274 306.47 355.375 306.562 355.446 306.678C355.517 306.793 355.555 306.927 355.554 307.063V312.623C355.554 312.787 355.523 312.95 355.461 313.101C355.4 313.253 355.31 313.39 355.197 313.506C355.083 313.622 354.949 313.713 354.801 313.776C354.653 313.838 354.494 313.87 354.334 313.869L333.437 313.784Z" fill="#C1D8ED"/>
<path d="M295.42 313.784C295.163 313.782 294.91 313.727 294.675 313.621C294.441 313.515 294.23 313.36 294.056 313.167C293.882 312.973 293.75 312.746 293.666 312.497C293.582 312.249 293.549 311.986 293.569 311.724C293.597 311.361 293.725 311.013 293.939 310.722C294.152 310.432 294.443 310.209 294.776 310.082L305.874 306.274C306.089 306.201 306.316 306.176 306.542 306.202C306.767 306.228 306.984 306.303 307.178 306.422C308.703 307.507 310.528 308.062 312.384 308.004C313.83 307.899 315.218 307.379 316.389 306.505C316.492 306.419 316.617 306.364 316.749 306.347C316.881 306.331 317.015 306.353 317.136 306.411C317.256 306.47 317.358 306.562 317.429 306.678C317.5 306.793 317.537 306.927 317.537 307.063V312.623C317.537 312.787 317.505 312.95 317.444 313.101C317.382 313.253 317.292 313.39 317.179 313.506C317.066 313.622 316.931 313.713 316.783 313.776C316.635 313.838 316.476 313.87 316.316 313.869L295.42 313.784Z" fill="#C1D8ED"/>
<path d="M337.531 122.104C337.531 122.104 334.02 120.196 334.804 110.401L327.55 109.023C327.55 109.023 328.367 117.805 324.695 120.594L337.531 122.104Z" fill="#E98862"/>
<path d="M338.919 106.603C338.417 109.575 336.834 112.389 334.276 113.348C331.238 114.488 328.988 114.565 325.487 114.565C320.708 114.565 320.866 109.459 320.732 104.313C320.596 99.1467 320.998 93.6049 322.887 91.8045C326.655 88.2114 337.721 90.4871 339.067 96.4974C339.763 99.6063 339.397 103.774 338.919 106.603Z" fill="#E98862"/>
<path d="M318.17 94.792C318.17 94.792 316.213 94.344 316.749 92.3446C317.104 91.0183 318.763 91.3128 318.763 91.3128C318.763 91.3128 317.193 91.0183 317.193 89.6139C317.193 88.73 317.856 87.2302 319.858 88.0871C322.207 89.0924 324.886 88.9631 326.923 88.6123C328.076 88.3538 329.245 88.1846 330.423 88.1062H330.429C331.782 88.0819 333.131 88.2668 334.43 88.6547C338.072 89.7711 343.668 93.1303 342.411 100.7C341.053 108.881 336.191 112.476 335.521 112.974C334.264 113.911 326.532 114.1 325.766 113.316C324.619 112.141 323.995 107.416 324.227 99.1858C321.059 98.674 318.881 98.4526 318.881 98.4526C318.881 98.4526 316.248 98.554 316.248 96.5816C316.248 94.6092 318.17 94.792 318.17 94.792Z" fill="#0F1011"/>
<path d="M321.916 105.289C321.866 106.038 322.107 106.777 322.585 107.346C323.063 107.915 323.741 108.268 324.471 108.33C325.202 108.391 325.926 108.155 326.488 107.673C327.05 107.191 327.405 106.502 327.475 105.754C327.511 105.379 327.473 105 327.364 104.64C327.254 104.28 327.075 103.946 326.837 103.659C326.599 103.371 326.307 103.136 325.978 102.966C325.649 102.797 325.29 102.697 324.923 102.672C322.935 102.608 322.041 103.716 321.916 105.289Z" fill="#E98862"/>
<path d="M358.837 186.686C358.837 188.073 358.122 192.707 359.271 193.038C359.961 193.237 360.774 189.782 360.774 189.782" fill="#E98862"/>
<path d="M364.261 185.958C364.261 185.958 368.013 195.315 363.734 200.691C363.625 200.827 363.478 200.927 363.312 200.977C363.147 201.027 362.971 201.025 362.807 200.97C362.643 200.916 362.498 200.812 362.393 200.673C362.287 200.533 362.225 200.364 362.214 200.188C362.007 196.563 361.293 189.119 358.961 189.988V184.144" fill="#E98862"/>
<path d="M279.656 136.106C279.656 136.106 274.416 131.841 274.046 130.309C273.675 128.777 277.365 125.764 277.365 125.764C277.365 125.764 272.458 120.696 273.437 119.961C274.591 119.094 280.286 126.466 280.286 126.466C280.286 126.466 279.481 123.814 280.484 123.64C280.896 123.568 281.222 123.983 281.867 125.86C282.601 127.999 284.07 131.216 284.07 131.216L279.656 136.106Z" fill="#E98862"/>
<path d="M285.174 130.436L300.673 148.304L312.796 126.068C313.943 122.555 316.557 120.202 321.887 119.968C323.71 119.888 332.605 119.875 339.117 119.875C343.492 119.875 347.084 121.251 349.159 123.376C350.203 124.431 350.985 125.728 351.438 127.158L351.501 127.134L361.922 156.169C362.039 156.495 362.123 156.832 362.173 157.175L366.379 186.21L356.586 187.698L352.455 159.18L348.246 147.453C347.808 149.256 347.568 151.103 347.532 152.96C347.532 162.729 351.845 167.11 351.527 172.126C351.028 180.009 313.648 178.146 311.744 173.669C309.783 169.051 313.763 166.206 313.589 151.102C313.57 149.458 313.446 147.739 313.275 145.988L305.92 159.479C305.535 160.185 304.99 160.787 304.332 161.234C303.673 161.681 302.92 161.96 302.135 162.048C301.35 162.135 300.555 162.029 299.818 161.738C299.081 161.447 298.423 160.979 297.899 160.374L277.52 135.951L285.174 130.436Z" fill="#367CFF"/>
<path d="M214.571 45.9883C214.571 49.0528 216.996 51.5371 219.987 51.5371C222.977 51.5371 225.402 49.0528 225.402 45.9883V40.8418C225.402 37.7773 222.977 35.2929 219.987 35.2929C216.996 35.2929 214.571 37.7773 214.571 40.8418V45.9883Z" fill="#0CBC8B"/>
<path d="M207.325 127.172C207.345 130.599 208.688 133.879 211.06 136.295C213.432 138.711 216.641 140.067 219.986 140.067C223.331 140.067 226.54 138.711 228.912 136.295C231.285 133.879 232.627 130.599 232.647 127.172" fill="#F3F5FD"/>
<path d="M207.325 127.172C207.345 130.599 208.688 133.879 211.06 136.295C213.432 138.711 216.641 140.067 219.986 140.067C223.331 140.067 226.54 138.711 228.912 136.295C231.285 133.879 232.627 130.599 232.647 127.172" fill="#9EBCEA"/>
<path d="M180.293 128.763C179.666 128.763 179.05 128.59 178.511 128.262C177.972 127.934 177.529 127.463 177.23 126.899C176.93 126.335 176.784 125.698 176.807 125.056C176.831 124.414 177.023 123.791 177.363 123.251C179.088 120.507 180.829 117.351 181.152 115.335C183.272 102.126 184.456 78.1129 184.456 78.1129C184.523 68.5037 188.296 59.3115 194.952 52.5409C201.607 45.7703 210.606 41.9707 219.984 41.9707C229.363 41.9707 238.362 45.7703 245.017 52.5409C251.673 59.3115 255.445 68.5037 255.512 78.1129C255.512 78.1129 256.697 102.126 258.816 115.335C259.14 117.351 260.878 120.506 262.606 123.251C262.946 123.791 263.138 124.414 263.161 125.056C263.185 125.698 263.039 126.335 262.739 126.899C262.439 127.463 261.996 127.934 261.457 128.262C260.918 128.59 260.303 128.763 259.676 128.763H180.293Z" fill="#0CBC8B"/>
<path d="M108.427 310.378C100.644 307.907 93.0925 304.677 86.2117 295.638C84.7996 293.786 83.4729 291.413 84.2466 289.196C84.8291 287.528 86.5136 286.459 88.2253 286.186C88.8626 286.091 89.5085 286.073 90.1499 286.132C90.1531 286.132 90.1563 286.132 90.1576 286.132C91.1441 286.235 92.1192 286.431 93.0707 286.718L93.3431 286.797C97.8844 288.119 102.21 290.121 106.181 292.737C106.541 292.972 106.968 293.076 107.392 293.031C107.817 292.986 108.214 292.795 108.519 292.489C108.824 292.184 109.019 291.781 109.073 291.347C109.127 290.914 109.035 290.474 108.814 290.1C108.409 289.422 107.937 288.788 107.407 288.209C106.625 287.37 105.768 286.609 104.847 285.934C103.623 285.02 102.318 284.204 101.04 283.368C96.2909 280.269 91.7913 276.785 87.5846 272.95C84.5826 270.209 81.6464 267.168 80.2193 263.315C79.5637 261.544 79.2659 259.501 80.0473 257.785C81.3376 254.964 84.9935 254.176 87.9828 254.761C93.221 255.789 97.4058 259.723 101.117 263.646C104.194 266.903 107.642 270.513 112.063 270.713C112.817 270.785 113.575 270.629 114.243 270.265C115.504 269.483 115.828 267.669 115.378 266.229C114.928 264.789 113.888 263.639 112.884 262.534C107.048 256.119 101.306 249.446 97.5152 241.586C93.7245 233.726 92.0473 224.445 94.6803 216.1C95.4521 213.66 96.6126 211.286 98.4224 209.514C100.232 207.741 102.77 206.63 105.254 206.969C108.639 207.426 111.187 210.353 112.903 213.374C118.798 223.744 118.437 236.448 120.097 248.326C120.562 251.652 121.238 255.062 123.17 257.799C123.349 258.062 123.58 258.283 123.849 258.447C125.438 259.391 126.867 257.488 127.465 255.873C129.823 249.484 130.412 242.177 134.634 236.889C136.244 234.876 138.525 233.193 141.064 233.209C144.167 233.231 146.823 235.886 147.728 238.928C148.634 241.969 148.092 245.271 147.122 248.291C145.322 253.89 142.094 258.919 138.292 263.341C136.286 265.675 134.02 268.034 133.418 271.079C133.234 272.114 133.311 273.18 133.642 274.176C133.973 275.172 134.547 276.065 135.309 276.77C135.666 277.088 136.081 277.329 136.53 277.479C136.979 277.63 137.454 277.686 137.925 277.646C138.936 277.474 139.899 277.084 140.752 276.501C141.125 276.283 141.499 276.063 141.875 275.846C143.358 274.982 144.841 274.116 146.324 273.248C150.093 271.044 154.647 268.792 158.575 270.69C160.581 271.66 161.892 273.568 162.51 275.758C163.062 277.744 163.062 279.849 162.51 281.836C161.34 285.968 153.966 297.466 150.925 300.432C147.375 303.894 135.057 318.836 108.427 310.378Z" fill="#8DDBE0"/>
</g>
<defs>
<filter id="filter0_d_181_1764" x="0" y="276.348" width="455" height="79.9197" filterUnits="userSpaceOnUse" color-interpolation-filters="sRGB">
<feFlood flood-opacity="0" result="BackgroundImageFix"/>
<feColorMatrix in="SourceAlpha" type="matrix" values="0 0 0 0 0 0 0 0 0 0 0 0 0 0 0 0 0 0 127 0" result="hardAlpha"/>
<feMorphology radius="6" operator="dilate" in="SourceAlpha" result="effect1_dropShadow_181_1764"/>
<feOffset dx="6" dy="5"/>
<feGaussianBlur stdDeviation="10"/>
<feComposite in2="hardAlpha" operator="out"/>
<feColorMatrix type="matrix" values="0 0 0 0 0 0 0 0 0 0 0 0 0 0 0 0 0 0 0.3 0"/>
<feBlend mode="normal" in2="BackgroundImageFix" result="effect1_dropShadow_181_1764"/>
<feBlend mode="normal" in="SourceGraphic" in2="effect1_dropShadow_181_1764" result="shape"/>
</filter>
<clipPath id="clip0_181_1764">
<rect width="363.804" height="313.87" fill="white" transform="translate(39.815)"/>
</clipPath>
</defs>
</svg>
