<svg width="21" height="22" viewBox="0 0 21 22" fill="none" xmlns="http://www.w3.org/2000/svg">
<path d="M4.8934 2.21192C5.00897 2.07399 5.06585 1.89624 5.05184 1.71684C5.03782 1.53743 4.95402 1.37068 4.81843 1.25237C4.68284 1.13406 4.50627 1.07362 4.32663 1.08404C4.14698 1.09446 3.97857 1.1749 3.85757 1.30809L2.67324 2.66475C2.00167 3.43436 1.62204 4.41556 1.60074 5.43675L1.54849 7.92917C1.54662 8.01945 1.56256 8.10922 1.59538 8.19335C1.62821 8.27747 1.67728 8.35431 1.7398 8.41947C1.80232 8.48463 1.87707 8.53683 1.95977 8.57311C2.04246 8.60938 2.13149 8.62901 2.22178 8.63088C2.31206 8.63274 2.40183 8.61681 2.48595 8.58398C2.57008 8.55116 2.64692 8.50208 2.71208 8.43956C2.77724 8.37704 2.82944 8.3023 2.86572 8.2196C2.90199 8.1369 2.92162 8.04787 2.92349 7.95759L2.97482 5.46609C2.98953 4.76734 3.24943 4.096 3.70907 3.5695L4.8934 2.21192Z" fill="#0C4A6E"/>
<path fill-rule="evenodd" clip-rule="evenodd" d="M4.71729 7.05834C4.77885 6.07763 5.21184 5.15725 5.92813 4.48456C6.64442 3.81187 7.59015 3.43745 8.57278 3.43751H9.08337V2.75001C9.08337 2.5069 9.17995 2.27374 9.35185 2.10183C9.52376 1.92992 9.75692 1.83334 10 1.83334C10.2432 1.83334 10.4763 1.92992 10.6482 2.10183C10.8201 2.27374 10.9167 2.5069 10.9167 2.75001V3.43751H11.4273C12.4099 3.43745 13.3557 3.81187 14.0719 4.48456C14.7882 5.15725 15.2212 6.07763 15.2828 7.05834L15.4854 10.2978C15.5626 11.533 15.9773 12.7233 16.6844 13.739C16.8305 13.949 16.9197 14.1932 16.9435 14.4479C16.9672 14.7026 16.9247 14.9591 16.8199 15.1924C16.7152 15.4258 16.5519 15.6281 16.3458 15.7796C16.1397 15.9312 15.8979 16.0268 15.644 16.0573L12.5209 16.4313V17.4167C12.5209 18.0852 12.2553 18.7264 11.7825 19.1992C11.3098 19.6719 10.6686 19.9375 10 19.9375C9.33147 19.9375 8.69028 19.6719 8.21754 19.1992C7.74479 18.7264 7.4792 18.0852 7.4792 17.4167V16.4313L4.35612 16.0563C4.10229 16.0258 3.86067 15.9302 3.65473 15.7787C3.44879 15.6272 3.28553 15.425 3.18082 15.1918C3.0761 14.9586 3.03349 14.7022 3.05713 14.4477C3.08076 14.1931 3.16984 13.949 3.3157 13.739C4.02273 12.7233 4.43745 11.533 4.5147 10.2978L4.71729 7.05926V7.05834ZM8.57278 4.81251C7.93989 4.81243 7.33077 5.05357 6.86942 5.48682C6.40807 5.92007 6.12918 6.51286 6.08954 7.14451L5.88787 10.384C5.79468 11.8699 5.29563 13.3018 4.44504 14.5237C4.43446 14.5389 4.428 14.5565 4.42628 14.5749C4.42455 14.5934 4.42762 14.6119 4.43519 14.6288C4.44275 14.6457 4.45456 14.6603 4.46945 14.6713C4.48435 14.6823 4.50183 14.6892 4.5202 14.6914L7.94579 15.103C9.3107 15.2662 10.6894 15.2662 12.0543 15.103L15.4799 14.6914C15.4982 14.6892 15.5157 14.6823 15.5306 14.6713C15.5455 14.6603 15.5573 14.6457 15.5649 14.6288C15.5725 14.6119 15.5755 14.5934 15.5738 14.5749C15.5721 14.5565 15.5656 14.5389 15.555 14.5237C14.7047 13.3017 14.206 11.8698 14.1131 10.384L13.9105 7.14451C13.8709 6.51286 13.592 5.92007 13.1307 5.48682C12.6693 5.05357 12.0602 4.81243 11.4273 4.81251H8.57278ZM10 18.5625C9.36754 18.5625 8.8542 18.0492 8.8542 17.4167V16.7292H11.1459V17.4167C11.1459 18.0492 10.6325 18.5625 10 18.5625Z" fill="#0C4A6E"/>
<path d="M15.1729 1.24208C15.0356 1.36196 14.9515 1.53147 14.9391 1.71333C14.9267 1.8952 14.9871 2.07454 15.1069 2.21192L16.2912 3.56858C16.7507 4.09545 17.0103 4.76713 17.0246 5.46608L17.0768 7.95667C17.0806 8.139 17.1566 8.31237 17.2882 8.43864C17.4198 8.56491 17.5962 8.63373 17.7785 8.62996C17.9609 8.62619 18.1342 8.55014 18.2605 8.41855C18.3868 8.28695 18.4556 8.11059 18.4518 7.92825L18.3996 5.43675C18.3783 4.41556 17.9986 3.43435 17.3271 2.66475L16.1427 1.30808C16.0228 1.17076 15.8533 1.08666 15.6715 1.07428C15.4896 1.0619 15.3103 1.12226 15.1729 1.24208Z" fill="#0C4A6E"/>
</svg>
