<svg width="21" height="21" viewBox="0 0 21 21" fill="none" xmlns="http://www.w3.org/2000/svg">
<g clip-path="url(#clip0_299_902)">
<path d="M5.62514 2.11138C5.73546 1.97971 5.78976 1.81004 5.77638 1.6388C5.763 1.46755 5.68301 1.30837 5.55358 1.19544C5.42416 1.0825 5.25561 1.02482 5.08413 1.03476C4.91265 1.04471 4.7519 1.12149 4.63639 1.24863L3.50589 2.54363C2.86485 3.27825 2.50248 4.21485 2.48214 5.18963L2.43227 7.56875C2.42867 7.7428 2.49436 7.91115 2.61489 8.03676C2.73542 8.16238 2.90091 8.23497 3.07496 8.23856C3.249 8.24216 3.41735 8.17647 3.54297 8.05594C3.66858 7.93541 3.74117 7.76992 3.74477 7.59588L3.79377 5.21763C3.80781 4.55064 4.0559 3.90982 4.49464 3.40725L5.62514 2.11138Z" fill="#0C4A6E"/>
<path fill-rule="evenodd" clip-rule="evenodd" d="M5.45745 6.7375C5.51622 5.80137 5.92953 4.92282 6.61326 4.28071C7.29699 3.63859 8.19973 3.28119 9.1377 3.28125H9.62508V2.625C9.62508 2.39294 9.71727 2.17038 9.88136 2.00628C10.0455 1.84219 10.268 1.75 10.5001 1.75C10.7321 1.75 10.9547 1.84219 11.1188 2.00628C11.2829 2.17038 11.3751 2.39294 11.3751 2.625V3.28125H11.8625C12.8004 3.28119 13.7032 3.63859 14.3869 4.28071C15.0706 4.92282 15.4839 5.80137 15.5427 6.7375L15.7361 9.82975C15.8098 11.0088 16.2057 12.145 16.8806 13.1145C17.02 13.3149 17.1052 13.548 17.1279 13.7911C17.1506 14.0343 17.11 14.2791 17.01 14.5019C16.91 14.7246 16.7541 14.9177 16.5574 15.0624C16.3607 15.207 16.1299 15.2983 15.8875 15.3274L12.9063 15.6844V16.625C12.9063 17.2632 12.6528 17.8752 12.2016 18.3265C11.7503 18.7777 11.1383 19.0312 10.5001 19.0312C9.8619 19.0312 9.24986 18.7777 8.7986 18.3265C8.34734 17.8752 8.09383 17.2632 8.09383 16.625V15.6844L5.1127 15.3265C4.87041 15.2974 4.63977 15.2061 4.44319 15.0615C4.24661 14.9169 4.09078 14.7239 3.99082 14.5012C3.89087 14.2786 3.8502 14.0339 3.87276 13.7909C3.89532 13.5479 3.98035 13.3149 4.11958 13.1145C4.79447 12.1449 5.19034 11.0088 5.26408 9.82975L5.45745 6.73838V6.7375ZM9.40633 16.625C9.40633 16.9151 9.52156 17.1933 9.72668 17.3984C9.9318 17.6035 10.21 17.7188 10.5001 17.7188C10.7902 17.7188 11.0684 17.6035 11.2735 17.3984C11.4786 17.1933 11.5938 16.9151 11.5938 16.625V15.9688H9.40633V16.625Z" fill="#0C4A6E"/>
<path d="M15.4376 1.18562C15.3065 1.30004 15.2262 1.46185 15.2144 1.63545C15.2026 1.80905 15.2602 1.98023 15.3746 2.11137L16.5051 3.40637C16.9437 3.90928 17.1915 4.55044 17.2051 5.21762L17.255 7.59499C17.2567 7.68117 17.2755 7.76616 17.3101 7.84509C17.3447 7.92403 17.3946 7.99538 17.4568 8.05506C17.519 8.11474 17.5923 8.16158 17.6726 8.19291C17.7529 8.22425 17.8386 8.23946 17.9248 8.23768C18.0109 8.2359 18.0959 8.21716 18.1749 8.18253C18.2538 8.14791 18.3252 8.09808 18.3848 8.03588C18.4445 7.97368 18.4914 7.90034 18.5227 7.82003C18.554 7.73973 18.5692 7.65405 18.5675 7.56787L18.5176 5.18962C18.4972 4.21484 18.1349 3.27824 17.4938 2.54362L16.3633 1.24862C16.2489 1.11753 16.0871 1.03726 15.9135 1.02544C15.7399 1.01363 15.5687 1.07124 15.4376 1.18562Z" fill="#0C4A6E"/>
</g>
<defs>
<clipPath id="clip0_299_902">
<rect width="21" height="21" fill="white"/>
</clipPath>
</defs>
</svg>
