<svg width="21" height="21" viewBox="0 0 21 21" fill="none" xmlns="http://www.w3.org/2000/svg">
<g clip-path="url(#clip0_913_180)">
<path d="M10.5 21C4.70105 21 0 16.299 0 10.5C0 4.70072 4.70105 0 10.5 0C16.2993 0 21 4.70072 21 10.5C21 16.299 16.2993 21 10.5 21ZM10.5 1.29183C5.43408 1.29183 1.3125 5.43408 1.3125 10.5C1.3125 15.566 5.43408 19.6875 10.5 19.6875C15.5659 19.6875 19.6875 15.5659 19.6875 10.5C19.6875 5.43414 15.5659 1.29183 10.5 1.29183ZM15.0938 11.1562H11.1562V15.0938C11.1562 15.456 10.8623 15.75 10.5 15.75C10.1377 15.75 9.84375 15.456 9.84375 15.0938V11.1562H5.90625C5.544 11.1562 5.25 10.8623 5.25 10.5C5.25 10.1377 5.544 9.84375 5.90625 9.84375H9.84375V5.90625C9.84375 5.544 10.1377 5.25 10.5 5.25C10.8623 5.25 11.1562 5.544 11.1562 5.90625V9.84375H15.0938C15.456 9.84375 15.75 10.1377 15.75 10.5C15.75 10.8623 15.456 11.1562 15.0938 11.1562Z" fill="#F0F9FF"/>
</g>
<defs>
<clipPath id="clip0_913_180">
<rect width="21" height="21" fill="white" transform="matrix(1 0 0 -1 0 21)"/>
</clipPath>
</defs>
</svg>
