<svg width="442" height="357" viewBox="0 0 442 357" fill="none" xmlns="http://www.w3.org/2000/svg">
<g filter="url(#filter0_d_181_1950)">
<ellipse cx="215" cy="312.004" rx="195" ry="13.5095" fill="#0284C7" fill-opacity="0.5" shape-rendering="crispEdges"/>
</g>
<g clip-path="url(#clip0_181_1950)">
<g opacity="0.7">
<path d="M329.338 2.66565H271.866V70.7691H329.338V2.66565Z" fill="#F4F4F4"/>
<path d="M329.338 70.769H331.202V2.66562H329.338V70.769Z" fill="#F4F4F4"/>
<path opacity="0.05" d="M329.338 70.769H331.202V2.66562H329.338V70.769Z" fill="#292A2E"/>
<path opacity="0.05" d="M318.869 16.2881H282.335V57.1469H318.869V16.2881Z" fill="#292A2E"/>
<path opacity="0.03" d="M318.869 16.2881H316.965V57.1469H318.869V16.2881Z" fill="#292A2E"/>
<path d="M376.34 89.1591H329.338V136.577H376.34V89.1591Z" fill="#F4F4F4"/>
<path opacity="0.05" d="M367.778 97.797H337.9V127.94H367.778V97.797Z" fill="#292A2E"/>
<path d="M376.34 136.578H378.205V89.1591H376.34V136.578Z" fill="#F4F4F4"/>
<path opacity="0.05" d="M376.34 136.578H378.205V89.1591H376.34V136.578Z" fill="#292A2E"/>
<path opacity="0.03" d="M367.778 97.797H365.874V127.94H367.778V97.797Z" fill="#292A2E"/>
</g>
<g opacity="0.7">
<path d="M211.664 0H76.3591V135.26H211.664V0Z" fill="#F4F4F4"/>
<path d="M76.3591 0H74.8083V135.26H76.3591V0Z" fill="#F4F4F4"/>
<path opacity="0.05" d="M76.3591 0H74.8083V135.26H76.3591V0Z" fill="#292A2E"/>
<path opacity="0.05" d="M109.137 93.2054V57.817H138.135V78.3768H183.053V114.781H202.144V135.26H183.053H179.375H82.8678V93.2054H109.137Z" fill="#292A2E"/>
<path opacity="0.34" d="M134.413 61.6593H113.297V65.5016H134.413V61.6593Z" fill="#FFFFFA"/>
<path opacity="0.34" d="M134.413 69.6217H113.297V73.464H134.413V69.6217Z" fill="#FFFFFA"/>
<path opacity="0.34" d="M134.413 77.5837H113.297V81.426H134.413V77.5837Z" fill="#FFFFFA"/>
<path opacity="0.34" d="M90.5045 96.9352H86.6125V100.777H90.5045V96.9352Z" fill="#FFFFFA"/>
<path opacity="0.34" d="M90.5045 104.898H86.6125V108.74H90.5045V104.898Z" fill="#FFFFFA"/>
<path opacity="0.34" d="M90.5045 112.86H86.6125V116.702H90.5045V112.86Z" fill="#FFFFFA"/>
<path opacity="0.34" d="M97.7049 96.9352H93.8129V100.777H97.7049V96.9352Z" fill="#FFFFFA"/>
<path opacity="0.34" d="M97.7049 104.898H93.8129V108.74H97.7049V104.898Z" fill="#FFFFFA"/>
<path opacity="0.34" d="M97.7049 112.86H93.8129V116.702H97.7049V112.86Z" fill="#FFFFFA"/>
<path opacity="0.34" d="M104.711 96.9352H100.819V100.777H104.711V96.9352Z" fill="#FFFFFA"/>
<path opacity="0.34" d="M104.711 104.898H100.819V108.74H104.711V104.898Z" fill="#FFFFFA"/>
<path opacity="0.34" d="M104.711 112.86H100.819V116.702H104.711V112.86Z" fill="#FFFFFA"/>
<path d="M76.3591 66.8713H103.585V0H105.836V66.8713H179.375V0H181.627V66.8713H211.664V69.1222H181.627V135.26H179.375V69.1222H105.836V135.26H103.585V69.1222H76.3591V66.8713Z" fill="white"/>
<path d="M217.054 135.097H70.9691V139.595H217.054V135.097Z" fill="#F4F4F4"/>
<path opacity="0.1" d="M217.054 135.097H70.9691V139.595H217.054V135.097Z" fill="#292A2E"/>
<path opacity="0.1" d="M70.9691 135.097H68.8601V139.595H70.9691V135.097Z" fill="#292A2E"/>
<path opacity="0.1" d="M70.9691 135.097H68.8601V139.595H70.9691V135.097Z" fill="#292A2E"/>
</g>
<path d="M154.451 16.7955H312.821C315.102 16.7955 317.29 17.7015 318.903 19.3141C320.517 20.9267 321.423 23.1138 321.423 25.3944V215.015C321.423 217.345 320.497 219.579 318.849 221.227C317.2 222.875 314.965 223.8 312.634 223.8H154.638C152.307 223.8 150.072 222.875 148.423 221.227C146.775 219.579 145.849 217.345 145.849 215.015V25.3934C145.85 23.113 146.756 20.9262 148.369 19.3138C149.982 17.7015 152.17 16.7956 154.451 16.7955Z" fill="white"/>
<path d="M312.634 224.134H154.638C152.219 224.134 149.898 223.173 148.187 221.463C146.476 219.753 145.515 217.433 145.515 215.014V25.0595C145.516 22.7792 146.422 20.5923 148.035 18.9799C149.648 17.3675 151.836 16.4617 154.117 16.4617H313.155C315.436 16.4617 317.624 17.3676 319.237 18.9801C320.85 20.5926 321.757 22.7797 321.757 25.0602V215.014C321.757 217.433 320.796 219.753 319.085 221.463C317.374 223.173 315.054 224.134 312.634 224.134ZM146.183 25.379V215.014C146.183 216.124 146.402 217.223 146.827 218.249C147.252 219.274 147.874 220.206 148.66 220.991C149.445 221.776 150.377 222.398 151.403 222.823C152.428 223.248 153.528 223.466 154.638 223.466H312.634C314.876 223.466 317.027 222.576 318.612 220.991C320.198 219.406 321.089 217.256 321.089 215.014V25.2956C321.089 24.2231 320.877 23.1611 320.467 22.1702C320.056 21.1794 319.454 20.2792 318.695 19.5209C317.937 18.7626 317.036 18.1611 316.045 17.7508C315.053 17.3405 313.991 17.1294 312.918 17.1295H154.436C152.248 17.1295 150.149 17.9986 148.601 19.5457C147.053 21.0928 146.184 23.1911 146.183 25.379Z" fill="#292A2E"/>
<path d="M179.908 57.9589H160.716C159.646 57.9576 158.621 57.5324 157.864 56.7764C157.108 56.0204 156.682 54.9954 156.681 53.9262V34.7398C156.682 33.6705 157.108 32.6454 157.864 31.8892C158.62 31.1331 159.646 30.7078 160.716 30.7065H179.908C180.978 30.7077 182.003 31.133 182.76 31.8891C183.516 32.6452 183.942 33.6705 183.943 34.7398V53.9262C183.941 54.9955 183.516 56.0205 182.759 56.7765C182.003 57.5325 180.977 57.9577 179.908 57.9589ZM160.716 31.3737C159.823 31.3748 158.967 31.7297 158.336 32.3606C157.705 32.9915 157.35 33.8469 157.349 34.7392V53.9262C157.35 54.8185 157.705 55.6739 158.336 56.3048C158.967 56.9357 159.823 57.2907 160.716 57.2917H179.908C180.8 57.2907 181.656 56.9359 182.287 56.3049C182.919 55.674 183.274 54.8186 183.275 53.9262V34.7398C183.274 33.8475 182.919 32.9921 182.287 32.3611C181.656 31.7302 180.8 31.3753 179.908 31.3744L160.716 31.3737Z" fill="#292A2E"/>
<path d="M179.908 95.9704H160.716C159.646 95.9692 158.62 95.5438 157.864 94.7877C157.108 94.0316 156.682 93.0064 156.681 91.9371V72.751C156.682 71.6817 157.107 70.6564 157.864 69.9002C158.62 69.144 159.646 68.7186 160.716 68.7174H179.908C180.978 68.7186 182.003 69.144 182.76 69.9002C183.516 70.6564 183.942 71.6816 183.943 72.751V91.9371C183.942 93.0065 183.516 94.0317 182.76 94.7878C182.003 95.544 180.978 95.9693 179.908 95.9704ZM160.716 69.3862C159.823 69.3873 158.967 69.7423 158.336 70.3732C157.705 71.0042 157.35 71.8597 157.349 72.752V91.9381C157.35 92.8304 157.705 93.6858 158.336 94.3168C158.967 94.9477 159.823 95.3026 160.716 95.3036H179.908C180.8 95.3026 181.656 94.9477 182.287 94.3168C182.919 93.6859 183.274 92.8304 183.275 91.9381V72.751C183.274 71.8587 182.919 71.0032 182.287 70.3722C181.656 69.7412 180.801 69.3863 179.908 69.3852L160.716 69.3862Z" fill="#292A2E"/>
<path d="M179.908 133.982H160.716C159.646 133.981 158.62 133.555 157.864 132.799C157.108 132.043 156.682 131.018 156.681 129.949V110.763C156.682 109.693 157.108 108.668 157.864 107.912C158.62 107.156 159.646 106.73 160.716 106.729H179.908C180.978 106.73 182.003 107.156 182.76 107.912C183.516 108.668 183.942 109.693 183.943 110.763V129.949C183.942 131.018 183.516 132.043 182.76 132.799C182.003 133.555 180.978 133.981 179.908 133.982ZM160.716 107.397C159.823 107.398 158.967 107.753 158.336 108.384C157.705 109.015 157.35 109.87 157.349 110.763V129.949C157.35 130.841 157.705 131.696 158.336 132.327C158.967 132.958 159.823 133.313 160.716 133.314H179.908C180.8 133.313 181.656 132.958 182.287 132.327C182.919 131.696 183.274 130.841 183.275 129.949V110.763C183.274 109.87 182.919 109.015 182.287 108.384C181.656 107.753 180.8 107.398 179.908 107.397H160.716Z" fill="#292A2E"/>
<path d="M179.908 171.471H160.716C159.646 171.47 158.62 171.045 157.864 170.289C157.108 169.532 156.682 168.507 156.681 167.438V148.252C156.682 147.183 157.107 146.157 157.864 145.401C158.62 144.645 159.646 144.219 160.716 144.218H179.908C180.978 144.219 182.003 144.645 182.76 145.401C183.516 146.157 183.942 147.182 183.943 148.252V167.438C183.942 168.507 183.516 169.533 182.76 170.289C182.003 171.045 180.978 171.47 179.908 171.471ZM160.716 144.886C159.823 144.887 158.967 145.242 158.336 145.873C157.705 146.504 157.35 147.36 157.349 148.252V167.438C157.35 168.33 157.705 169.186 158.336 169.817C158.967 170.447 159.823 170.802 160.716 170.803H179.908C180.8 170.802 181.656 170.448 182.287 169.817C182.919 169.186 183.274 168.33 183.275 167.438V148.252C183.274 147.36 182.919 146.504 182.288 145.873C181.656 145.242 180.801 144.887 179.908 144.886H160.716Z" fill="#292A2E"/>
<path d="M179.908 208.96H160.716C159.646 208.959 158.62 208.534 157.864 207.777C157.107 207.021 156.682 205.996 156.681 204.927V185.741C156.682 184.672 157.107 183.646 157.864 182.89C158.62 182.134 159.646 181.709 160.716 181.707H179.908C180.978 181.709 182.003 182.134 182.76 182.89C183.516 183.646 183.942 184.671 183.943 185.741V204.927C183.941 205.996 183.516 207.021 182.76 207.778C182.003 208.534 180.978 208.959 179.908 208.96ZM160.716 182.375C159.823 182.376 158.967 182.731 158.336 183.362C157.705 183.993 157.35 184.848 157.349 185.741V204.927C157.35 205.819 157.705 206.674 158.336 207.305C158.967 207.936 159.823 208.291 160.716 208.292H179.908C180.801 208.291 181.656 207.936 182.287 207.305C182.919 206.674 183.274 205.819 183.275 204.927V185.741C183.274 184.849 182.919 183.993 182.287 183.362C181.656 182.731 180.801 182.376 179.908 182.375L160.716 182.375Z" fill="#292A2E"/>
<path d="M166.898 90.0198C166.553 90.02 166.221 89.8863 165.972 89.6468L160.378 84.2709C160.251 84.1493 160.15 84.0041 160.08 83.8434C160.009 83.6827 159.971 83.5097 159.968 83.3343C159.964 83.159 159.995 82.9846 160.059 82.8213C160.123 82.6579 160.219 82.5088 160.34 82.3823C160.462 82.2558 160.607 82.1546 160.768 82.0842C160.929 82.0139 161.102 81.9759 161.277 81.9725C161.453 81.969 161.627 82.0001 161.79 82.064C161.954 82.1279 162.103 82.2233 162.23 82.3449L166.875 86.8096L178.519 75.0627C178.77 74.8152 179.107 74.6765 179.459 74.6766C179.811 74.6768 180.149 74.8158 180.399 75.0634C180.649 75.3111 180.791 75.6474 180.795 75.9992C180.798 76.3511 180.663 76.6901 180.418 76.9426L167.847 89.6228C167.723 89.7486 167.575 89.8485 167.412 89.9166C167.249 89.9848 167.074 90.0198 166.898 90.0198Z" fill="#0CBC8B"/>
<path d="M166.898 128.031C166.553 128.032 166.221 127.898 165.972 127.659L160.378 122.283C160.122 122.037 159.975 121.7 159.968 121.346C159.961 120.992 160.095 120.65 160.34 120.394C160.586 120.139 160.923 119.991 161.277 119.984C161.632 119.977 161.974 120.111 162.23 120.357L166.875 124.82L178.519 113.074C178.769 112.823 179.108 112.68 179.462 112.679C179.817 112.677 180.157 112.816 180.409 113.066C180.661 113.315 180.803 113.654 180.805 114.008C180.806 114.362 180.667 114.703 180.418 114.955L167.847 127.635C167.723 127.76 167.575 127.86 167.412 127.928C167.249 127.996 167.074 128.031 166.898 128.031Z" fill="#0CBC8B"/>
<path opacity="0.5" d="M306.993 38.3918H194.432C193.917 38.3918 193.5 38.8091 193.5 39.3238C193.5 39.8385 193.917 40.2557 194.432 40.2557H306.993C307.507 40.2557 307.925 39.8385 307.925 39.3238C307.925 38.8091 307.507 38.3918 306.993 38.3918Z" fill="#262626"/>
<path opacity="0.5" d="M266.91 48.4091H194.432C193.917 48.4091 193.5 48.8263 193.5 49.341C193.5 49.8557 193.917 50.2729 194.432 50.2729H266.91C267.425 50.2729 267.843 49.8557 267.843 49.341C267.843 48.8263 267.425 48.4091 266.91 48.4091Z" fill="#262626"/>
<path opacity="0.5" d="M306.993 76.4033H194.432C193.917 76.4033 193.5 76.8206 193.5 77.3353C193.5 77.85 193.917 78.2672 194.432 78.2672H306.993C307.507 78.2672 307.925 77.85 307.925 77.3353C307.925 76.8206 307.507 76.4033 306.993 76.4033Z" fill="#262626"/>
<path opacity="0.5" d="M266.91 86.4207H194.432C193.917 86.4207 193.5 86.8379 193.5 87.3526C193.5 87.8673 193.917 88.2845 194.432 88.2845H266.91C267.425 88.2845 267.843 87.8673 267.843 87.3526C267.843 86.8379 267.425 86.4207 266.91 86.4207Z" fill="#262626"/>
<path opacity="0.5" d="M306.993 114.415H194.432C193.917 114.415 193.5 114.832 193.5 115.347C193.5 115.862 193.917 116.279 194.432 116.279H306.993C307.507 116.279 307.925 115.862 307.925 115.347C307.925 114.832 307.507 114.415 306.993 114.415Z" fill="#262626"/>
<path opacity="0.5" d="M266.91 124.432H194.432C193.917 124.432 193.5 124.849 193.5 125.364C193.5 125.879 193.917 126.296 194.432 126.296H266.91C267.425 126.296 267.843 125.879 267.843 125.364C267.843 124.849 267.425 124.432 266.91 124.432Z" fill="#262626"/>
<path opacity="0.5" d="M306.993 151.904H194.432C193.917 151.904 193.5 152.321 193.5 152.836C193.5 153.351 193.917 153.768 194.432 153.768H306.993C307.507 153.768 307.925 153.351 307.925 152.836C307.925 152.321 307.507 151.904 306.993 151.904Z" fill="#262626"/>
<path opacity="0.5" d="M266.91 161.922H194.432C193.917 161.922 193.5 162.339 193.5 162.853C193.5 163.368 193.917 163.785 194.432 163.785H266.91C267.425 163.785 267.843 163.368 267.843 162.853C267.843 162.339 267.425 161.922 266.91 161.922Z" fill="#262626"/>
<path opacity="0.5" d="M306.993 189.393H194.432C193.917 189.393 193.5 189.81 193.5 190.325C193.5 190.84 193.917 191.257 194.432 191.257H306.993C307.507 191.257 307.925 190.84 307.925 190.325C307.925 189.81 307.507 189.393 306.993 189.393Z" fill="#262626"/>
<path opacity="0.5" d="M266.91 199.41H194.432C193.917 199.41 193.5 199.828 193.5 200.342C193.5 200.857 193.917 201.274 194.432 201.274H266.91C267.425 201.274 267.843 200.857 267.843 200.342C267.843 199.828 267.425 199.41 266.91 199.41Z" fill="#262626"/>
<path d="M165.934 51.1635C166.031 50.9243 166.204 50.7234 166.426 50.5914C166.648 50.4595 166.907 50.4037 167.164 50.4326C167.164 50.4119 167.146 50.3618 167.182 50.3621L166.347 49.8345C166.097 49.6844 165.911 49.449 165.821 49.1718C165.731 48.8946 165.745 48.5943 165.86 48.3266C165.982 48.0657 166.196 47.8594 166.462 47.7476C166.727 47.6359 167.025 47.6267 167.296 47.7219C167.294 47.7105 167.301 47.6992 167.302 47.6885L166.958 47.4718C166.724 47.3293 166.545 47.1102 166.454 46.8515C166.362 46.5928 166.363 46.3104 166.455 46.052C166.517 45.8913 166.613 45.7462 166.738 45.6273C166.862 45.5084 167.011 45.4185 167.175 45.3642C167.338 45.3099 167.512 45.2925 167.682 45.3133C167.853 45.3341 168.018 45.3925 168.163 45.4844L168.956 45.9852C168.958 45.9805 168.956 45.9755 168.958 45.9712C168.96 45.9669 168.969 45.9648 168.973 45.9598C168.787 45.7736 168.67 45.5296 168.64 45.268C168.611 45.0063 168.671 44.7425 168.812 44.5197C169.137 43.921 169.973 43.9904 170.486 44.314L172.022 45.459C172.259 45.6356 172.449 45.8681 172.574 46.1358C172.699 46.4034 172.756 46.6979 172.74 46.993C172.604 49.5467 172.087 56.2088 170.45 55.1737L166.423 52.6313C166.189 52.4759 166.015 52.2471 165.926 51.9813C165.838 51.7154 165.84 51.4276 165.934 51.1635Z" fill="#E98862"/>
<path d="M166.898 51.6276C166.553 51.6279 166.221 51.4942 165.972 51.2546L160.378 45.8787C160.249 45.7576 160.146 45.6123 160.074 45.4511C160.002 45.29 159.963 45.1162 159.959 44.9398C159.955 44.7633 159.985 44.5878 160.049 44.4233C160.113 44.2589 160.209 44.1087 160.331 43.9815C160.454 43.8542 160.6 43.7525 160.762 43.6822C160.924 43.6118 161.098 43.5742 161.275 43.5716C161.451 43.569 161.626 43.6013 161.79 43.6668C161.954 43.7323 162.104 43.8296 162.23 43.9531L166.875 48.4168L178.519 36.6708C178.643 36.5462 178.79 36.4472 178.951 36.3793C179.113 36.3114 179.287 36.2761 179.462 36.2753C179.638 36.2745 179.812 36.3082 179.974 36.3746C180.137 36.441 180.284 36.5387 180.409 36.6621C180.534 36.7856 180.633 36.9324 180.701 37.0941C180.768 37.2559 180.804 37.4294 180.805 37.6048C180.805 37.7802 180.772 37.9541 180.705 38.1164C180.639 38.2788 180.541 38.4265 180.418 38.5511L167.847 51.2313C167.723 51.3569 167.575 51.4567 167.412 51.5247C167.249 51.5928 167.074 51.6278 166.898 51.6276Z" fill="#0CBC8B"/>
<path d="M163.048 48.3674C163.076 48.1729 163.144 47.9861 163.246 47.8185C163.349 47.6509 163.485 47.5059 163.645 47.3924C163.806 47.279 163.988 47.1994 164.18 47.1586C164.372 47.1177 164.571 47.1165 164.763 47.1549C165.134 47.2424 165.457 47.4671 165.668 47.7837C165.88 48.1002 165.963 48.4851 165.901 48.8605L165.861 50.9111C165.853 51.3448 166.003 51.7667 166.284 52.097C166.566 52.4273 166.958 52.6433 167.388 52.7042C167.809 52.7639 168.238 52.6706 168.596 52.4412C168.954 52.2119 169.218 51.8617 169.34 51.4544L170.386 47.954L169.248 46.2554C169.646 45.6143 169.98 43.9564 170.67 44.4503C171.253 44.8129 172.579 45.6897 172.941 46.5205C172.948 46.5238 173.627 53.6518 173.258 54.2462L169.992 62.9799C168.425 65.5016 160.863 63.5502 160.863 63.5502L163.048 48.3674Z" fill="#E98862"/>
<path d="M166.875 48.4167L178.519 36.6708C178.643 36.5462 178.79 36.4472 178.951 36.3793C179.113 36.3114 179.287 36.2761 179.462 36.2753C179.638 36.2745 179.812 36.3082 179.974 36.3746C180.137 36.441 180.284 36.5387 180.409 36.6621C180.534 36.7856 180.633 36.9324 180.701 37.0941C180.768 37.2559 180.804 37.4294 180.805 37.6048C180.805 37.7802 180.772 37.9541 180.705 38.1164C180.639 38.2788 180.541 38.4265 180.418 38.5511L167.847 51.2313" fill="#0CBC8B"/>
<path d="M107.446 109.124L154.572 105.16C158.041 105.251 161.063 102.367 162.335 99.1309L174.682 60.4448L158.531 54.0979L147.632 87.236L106.187 90.1357L107.446 109.124Z" fill="#367CFF"/>
<path d="M80.0831 291.269C80.0831 291.269 81.5912 299.082 88.9106 299.519C96.2299 299.956 94.6427 305.783 94.6427 305.783H66.6723V291.813L80.0831 291.269Z" fill="#367CFF"/>
<path d="M71.4561 148.712C71.4561 148.712 71.5439 146.363 71.5252 151.692C71.4561 171.569 71.111 194.274 70.268 207.56C68.9129 228.918 65.4381 296.256 65.4381 296.256L83.8178 296.102L101.632 147.905L71.4561 148.712Z" fill="#262626"/>
<path d="M92.2117 172.152C92.2117 172.152 92.9732 186.577 93.1135 189.964C93.4402 197.795 93.5537 205.904 93.5537 215.098L96.4517 190.996C96.4517 190.996 94.3317 183.443 92.2117 172.152Z" fill="#0A0A0A"/>
<path d="M112.804 291.269C112.804 291.269 114.312 299.082 121.631 299.519C128.951 299.956 127.363 305.783 127.363 305.783H99.3931V291.813L112.804 291.269Z" fill="#367CFF"/>
<path d="M121.703 150.256C121.703 150.256 123.331 218.192 123.093 221.512L116.258 295.74L98.1816 296.074L99.9432 218.827C99.9432 218.827 98.7006 197.518 93.5504 177.731C90.9154 167.576 89.3295 157.177 88.8177 146.699L121.703 150.256Z" fill="#262626"/>
<path d="M71.2557 148.71L71.1955 148.714C71.1955 148.714 71.2393 147.554 71.2557 148.71Z" fill="#333333"/>
<path d="M124.29 114.551C123.912 119.002 122.068 144.773 121.703 150.256H71.4761C71.1925 145.311 69.9183 123.685 68.8424 114.014C67.8153 104.785 65.8001 100.165 67.2772 97.4366C69.6908 92.9776 76.2863 90.4012 80.7835 89.7925C83.5298 89.4208 106.943 89.1537 106.999 89.1537C108.838 89.1537 119.546 90.0178 121.914 91.8403C126.197 95.138 124.952 106.788 124.29 114.551Z" fill="#367CFF"/>
<path d="M124.984 107.78C125.027 107.78 125.068 107.764 125.099 107.735C125.13 107.705 125.149 107.665 125.151 107.623L125.556 101.222C125.559 101.177 125.544 101.134 125.514 101.101C125.485 101.068 125.444 101.048 125.399 101.045C125.355 101.043 125.312 101.058 125.279 101.088C125.246 101.117 125.226 101.158 125.223 101.202L124.818 107.604C124.815 107.648 124.83 107.691 124.86 107.724C124.889 107.757 124.931 107.777 124.975 107.78L124.984 107.78Z" fill="#0C0C0C"/>
<path d="M60.6172 149.965C59.1401 149.964 57.6849 149.607 56.3756 148.924C55.0662 148.24 53.9414 147.25 53.0969 146.039C52.2523 144.827 51.713 143.43 51.5249 141.965C51.3367 140.501 51.5053 139.012 52.0162 137.627C52.5336 136.22 64.6986 104.017 67.0136 98.0499L84.1618 104.995C82.8591 108.35 78.1418 121.067 74.3514 131.311L80.6483 130.627L82.6303 148.853L61.6089 149.911C61.2795 149.947 60.9485 149.965 60.6172 149.965Z" fill="#367CFF"/>
<path d="M112.983 88.5446C112.926 88.5372 111.386 94.3332 99.362 93.431C91.0383 92.8076 89.0074 87.1438 88.8177 87.1438C89.7152 86.9532 91.1729 86.7552 91.5713 86.5428C92.882 85.8386 93.837 84.9818 94.3173 83.1423C94.6931 81.7041 94.8851 76.1669 94.8851 73.3888L107.694 76.2661C107.515 79.3998 106.265 86.665 110.645 87.9509C111.374 88.1633 112.159 88.3586 112.983 88.5446Z" fill="#E98862"/>
<path d="M107.25 82.4267C102.201 82.825 95.7142 80.6937 94.482 73.9591L93.3704 67.8819C92.1382 61.1473 94.6777 55.0408 101.021 53.8811C107.364 52.7215 113.104 57.3144 114.336 64.049L114.828 66.7393C115.301 69.3237 116.259 81.7161 107.25 82.4267Z" fill="#E98862"/>
<path d="M111.932 76.2433C111.026 71.6908 110.61 68.6533 110.658 65.4491C111.935 63.2119 111.599 60.6408 111.309 59.5309C112.188 60.089 113.222 60.3539 114.262 60.2875C114.262 60.2875 112.15 51.8169 104.974 49.5376C103.654 49.0244 100.285 48.376 95.8117 48.9894C92.0069 49.5109 82.6277 52.3548 81.2876 62.9107V62.9167C81.2435 63.267 80.343 72.9927 78.5486 77.6591C76.1353 83.9319 72.7467 85.881 72.8326 93.1191C72.9431 102.429 90.0639 103.668 100.389 102.972C110.714 102.275 116.48 98.881 116.556 92.1718C116.638 84.6538 113.746 85.3521 111.932 76.2433Z" fill="#0A0A0A"/>
<path d="M70.4068 114.2L70.073 114.211L71.3071 150.262L71.6409 150.25L70.4068 114.2Z" fill="#0C0C0C"/>
<path d="M370.6 306.018H56.4827C56.4207 306.018 56.3612 305.993 56.3174 305.949C56.2735 305.905 56.2489 305.846 56.2489 305.784C56.2489 305.722 56.2735 305.662 56.3174 305.619C56.3612 305.575 56.4207 305.55 56.4827 305.55H370.6C370.662 305.55 370.721 305.575 370.765 305.619C370.809 305.662 370.834 305.722 370.834 305.784C370.834 305.846 370.809 305.905 370.765 305.949C370.721 305.993 370.662 306.018 370.6 306.018Z" fill="#292A2E"/>
<path d="M338.177 262.257C338.088 262.257 338.003 262.222 337.941 262.159C337.47 261.689 336.703 253.057 334.637 227.358C333.792 216.843 332.993 206.911 332.41 200.874C332.368 200.443 332.201 200.393 332.146 200.377C331.349 200.136 328.922 202.048 327.568 203.723C327.54 203.757 327.506 203.785 327.468 203.806C327.429 203.827 327.387 203.84 327.343 203.845C327.3 203.85 327.255 203.846 327.213 203.833C327.171 203.821 327.132 203.8 327.098 203.773C327.064 203.745 327.036 203.711 327.015 203.672C326.994 203.634 326.98 203.592 326.976 203.548C326.971 203.504 326.975 203.46 326.988 203.418C327 203.376 327.021 203.337 327.048 203.303C327.944 202.196 330.863 199.293 332.338 199.737C332.636 199.826 333.006 200.085 333.075 200.81C333.658 206.851 334.457 216.787 335.303 227.305C336.559 242.922 337.981 260.614 338.448 261.728C338.484 261.778 338.505 261.837 338.51 261.898C338.515 261.96 338.502 262.021 338.474 262.076C338.446 262.13 338.404 262.176 338.351 262.208C338.299 262.24 338.238 262.257 338.177 262.257Z" fill="#494949"/>
<path d="M331.552 211.95C337.094 207.509 338.931 200.596 335.655 196.51C332.378 192.423 325.229 192.711 319.686 197.153C314.144 201.594 312.307 208.507 315.583 212.593C318.86 216.68 326.009 216.392 331.552 211.95Z" fill="#0CBC8B"/>
<path opacity="0.2" d="M331.552 211.95C337.094 207.509 338.931 200.596 335.655 196.51C332.378 192.423 325.229 192.711 319.686 197.153C314.144 201.594 312.307 208.507 315.583 212.593C318.86 216.68 326.009 216.392 331.552 211.95Z" fill="white"/>
<path d="M317.137 213.633C317.105 213.633 317.074 213.624 317.048 213.607C317.021 213.59 317 213.565 316.986 213.537C316.973 213.508 316.968 213.476 316.972 213.445C316.976 213.413 316.989 213.384 317.009 213.359L332.805 194.317C332.819 194.299 332.836 194.285 332.855 194.274C332.875 194.264 332.896 194.257 332.918 194.255C332.94 194.253 332.963 194.255 332.984 194.261C333.005 194.268 333.025 194.279 333.042 194.293C333.059 194.307 333.073 194.324 333.083 194.344C333.094 194.364 333.1 194.385 333.102 194.407C333.103 194.429 333.101 194.452 333.094 194.473C333.087 194.494 333.076 194.513 333.062 194.53L317.266 213.573C317.25 213.591 317.23 213.607 317.208 213.617C317.186 213.627 317.162 213.633 317.137 213.633Z" fill="white"/>
<path d="M341.622 258.175C341.569 258.175 341.516 258.162 341.469 258.138C341.422 258.113 341.381 258.078 341.35 258.034C341.319 257.991 341.299 257.941 341.292 257.888C341.284 257.835 341.289 257.781 341.307 257.731L347.24 240.673C347.415 240.171 347.712 239.722 348.106 239.366C348.499 239.009 348.976 238.757 349.492 238.633C350.008 238.508 350.547 238.515 351.06 238.653C351.573 238.791 352.043 239.055 352.427 239.421L355.564 242.418C355.628 242.479 355.665 242.563 355.667 242.652C355.669 242.74 355.636 242.826 355.575 242.89C355.513 242.954 355.429 242.991 355.341 242.993C355.252 242.995 355.166 242.962 355.102 242.901L351.965 239.905C351.662 239.616 351.291 239.408 350.887 239.299C350.482 239.19 350.056 239.185 349.649 239.283C349.241 239.381 348.865 239.58 348.555 239.862C348.244 240.143 348.009 240.498 347.871 240.893L341.938 257.951C341.915 258.016 341.872 258.073 341.816 258.113C341.759 258.153 341.692 258.175 341.622 258.175Z" fill="#494949"/>
<path d="M364.328 251.862C368.436 248.612 368.192 241.463 363.783 235.895C359.374 230.327 352.47 228.448 348.363 231.698C344.255 234.949 344.499 242.097 348.908 247.665C353.317 253.233 360.221 255.112 364.328 251.862Z" fill="#0CBC8B"/>
<path d="M335.481 261.169C335.406 261.169 335.333 261.144 335.274 261.097C335.216 261.051 335.174 260.986 335.157 260.913L325.2 219.293C325.132 219.009 324.987 218.75 324.781 218.543C324.575 218.336 324.316 218.191 324.032 218.122C323.748 218.052 323.451 218.063 323.173 218.152C322.895 218.241 322.647 218.405 322.456 218.625L319.387 222.171C319.329 222.238 319.247 222.279 319.158 222.286C319.07 222.292 318.983 222.263 318.916 222.205C318.849 222.147 318.807 222.065 318.801 221.977C318.795 221.888 318.824 221.801 318.882 221.734L321.951 218.188C322.223 217.875 322.575 217.642 322.97 217.516C323.366 217.39 323.788 217.375 324.191 217.473C324.594 217.572 324.962 217.779 325.254 218.073C325.547 218.367 325.753 218.736 325.849 219.139L335.807 260.759C335.818 260.808 335.819 260.859 335.808 260.909C335.797 260.958 335.775 261.004 335.744 261.044C335.713 261.083 335.673 261.115 335.627 261.137C335.582 261.159 335.532 261.171 335.481 261.171V261.169Z" fill="#494949"/>
<path d="M331.611 231.423C332.819 224.429 329.615 218.037 324.455 217.146C319.295 216.256 314.133 221.205 312.925 228.199C311.717 235.194 314.922 241.586 320.082 242.476C325.242 243.367 330.404 238.418 331.611 231.423Z" fill="#0CBC8B"/>
<path d="M338.178 262.257C338.164 262.257 338.15 262.256 338.136 262.255C338.093 262.249 338.051 262.235 338.012 262.214C337.974 262.192 337.941 262.163 337.914 262.129C337.887 262.094 337.867 262.054 337.855 262.012C337.843 261.97 337.84 261.926 337.846 261.882L344.204 210.274C344.273 209.712 344.503 209.182 344.867 208.747C345.23 208.313 345.711 207.992 346.253 207.825C346.794 207.657 347.372 207.649 347.918 207.802C348.463 207.955 348.953 208.263 349.328 208.687L356.596 216.916C356.654 216.982 356.684 217.069 356.679 217.158C356.673 217.246 356.633 217.329 356.566 217.387C356.5 217.446 356.413 217.476 356.324 217.47C356.236 217.465 356.153 217.425 356.095 217.358L348.827 209.13C348.537 208.801 348.159 208.564 347.737 208.446C347.315 208.327 346.869 208.333 346.45 208.463C346.032 208.592 345.66 208.84 345.379 209.176C345.098 209.511 344.92 209.921 344.867 210.356L338.509 261.964C338.499 262.045 338.459 262.119 338.399 262.173C338.338 262.227 338.259 262.257 338.178 262.257Z" fill="#494949"/>
<path d="M364.05 221.489C366.585 216.906 363.602 210.405 357.386 206.968C351.17 203.53 344.075 204.459 341.54 209.042C339.004 213.624 341.987 220.126 348.203 223.563C354.419 227 361.514 226.071 364.05 221.489Z" fill="#0CBC8B"/>
<path opacity="0.2" d="M364.328 251.862C368.436 248.612 368.192 241.463 363.783 235.895C359.374 230.327 352.47 228.448 348.363 231.698C344.255 234.949 344.499 242.097 348.908 247.665C353.317 253.233 360.221 255.112 364.328 251.862Z" fill="white"/>
<path opacity="0.5" d="M331.611 231.423C332.819 224.429 329.615 218.037 324.455 217.146C319.295 216.256 314.133 221.205 312.925 228.199C311.717 235.194 314.922 241.586 320.082 242.476C325.242 243.367 330.404 238.418 331.611 231.423Z" fill="white"/>
<path opacity="0.5" d="M364.05 221.489C366.585 216.906 363.602 210.405 357.386 206.968C351.17 203.53 344.075 204.459 341.54 209.042C339.004 213.624 341.987 220.126 348.203 223.563C354.419 227 361.514 226.071 364.05 221.489Z" fill="white"/>
<path d="M346.31 306.046H330.044L327.349 254.022H349.005L346.31 306.046Z" fill="#292A2E"/>
<path opacity="0.3" d="M346.31 306.046H330.044L327.349 254.022H349.005L346.31 306.046Z" fill="white"/>
<path d="M364.329 252.027C364.303 252.027 364.278 252.021 364.256 252.01C364.233 251.999 364.213 251.983 364.197 251.963L348.231 231.8C348.204 231.765 348.191 231.721 348.196 231.677C348.201 231.633 348.224 231.592 348.259 231.565C348.293 231.537 348.338 231.525 348.382 231.53C348.426 231.535 348.466 231.558 348.493 231.592L364.459 251.756C364.479 251.78 364.491 251.81 364.495 251.841C364.498 251.872 364.493 251.904 364.479 251.932C364.465 251.96 364.444 251.984 364.418 252.001C364.391 252.018 364.36 252.027 364.329 252.027Z" fill="white"/>
<path d="M362.987 223.104C362.952 223.104 362.918 223.092 362.889 223.071L342.459 208.159C342.441 208.146 342.426 208.13 342.414 208.111C342.403 208.092 342.395 208.071 342.392 208.05C342.389 208.028 342.39 208.006 342.395 207.985C342.4 207.963 342.409 207.943 342.422 207.925C342.435 207.908 342.451 207.893 342.47 207.881C342.489 207.87 342.51 207.862 342.531 207.859C342.553 207.856 342.575 207.856 342.597 207.862C342.618 207.867 342.638 207.876 342.656 207.889L363.088 222.802C363.116 222.823 363.136 222.853 363.147 222.886C363.157 222.92 363.157 222.956 363.146 222.989C363.135 223.022 363.114 223.051 363.085 223.071C363.057 223.092 363.022 223.103 362.987 223.103V223.104Z" fill="white"/>
<path d="M319.44 242.253C319.426 242.253 319.411 242.251 319.397 242.248C319.354 242.236 319.318 242.208 319.296 242.17C319.273 242.132 319.267 242.086 319.279 242.043L325.783 217.684C325.788 217.662 325.798 217.642 325.811 217.624C325.824 217.606 325.841 217.592 325.86 217.58C325.879 217.569 325.9 217.562 325.922 217.559C325.944 217.556 325.967 217.557 325.988 217.563C326.009 217.569 326.029 217.578 326.047 217.592C326.064 217.606 326.079 217.622 326.09 217.642C326.101 217.661 326.108 217.682 326.111 217.704C326.113 217.726 326.112 217.749 326.105 217.77L319.601 242.13C319.592 242.165 319.571 242.196 319.542 242.219C319.513 242.241 319.477 242.253 319.44 242.253Z" fill="white"/>
</g>
<defs>
<filter id="filter0_d_181_1950" x="0" y="277.494" width="442" height="79.019" filterUnits="userSpaceOnUse" color-interpolation-filters="sRGB">
<feFlood flood-opacity="0" result="BackgroundImageFix"/>
<feColorMatrix in="SourceAlpha" type="matrix" values="0 0 0 0 0 0 0 0 0 0 0 0 0 0 0 0 0 0 127 0" result="hardAlpha"/>
<feMorphology radius="6" operator="dilate" in="SourceAlpha" result="effect1_dropShadow_181_1950"/>
<feOffset dx="6" dy="5"/>
<feGaussianBlur stdDeviation="10"/>
<feComposite in2="hardAlpha" operator="out"/>
<feColorMatrix type="matrix" values="0 0 0 0 0 0 0 0 0 0 0 0 0 0 0 0 0 0 0.3 0"/>
<feBlend mode="normal" in2="BackgroundImageFix" result="effect1_dropShadow_181_1950"/>
<feBlend mode="normal" in="SourceGraphic" in2="effect1_dropShadow_181_1950" result="shape"/>
</filter>
<clipPath id="clip0_181_1950">
<rect width="326.756" height="306.046" fill="white" transform="translate(51.4484)"/>
</clipPath>
</defs>
</svg>
