<svg width="453" height="356" viewBox="0 0 453 356" fill="none" xmlns="http://www.w3.org/2000/svg">
<g filter="url(#filter0_d_181_1621)">
<ellipse cx="220.5" cy="310.377" rx="200.5" ry="13.8906" fill="#0284C7" fill-opacity="0.5" shape-rendering="crispEdges"/>
</g>
<g clip-path="url(#clip0_181_1621)">
<path d="M307.692 216.047L326.091 174.678L354.1 162.056L397.772 181.424L370.068 243.709L307.692 216.047Z" fill="#F4F4F4"/>
<path opacity="0.05" d="M375.334 208.988L330.681 189.06C330.246 188.866 329.736 189.061 329.541 189.495L329.541 189.495C329.347 189.93 329.542 190.439 329.977 190.633L374.629 210.561C375.064 210.755 375.575 210.561 375.769 210.126L375.769 210.126C375.964 209.692 375.769 209.182 375.334 208.988Z" fill="#292A2E"/>
<path opacity="0.05" d="M371.582 217.932L326.929 198.004C326.494 197.81 325.984 198.005 325.79 198.439L325.79 198.439C325.595 198.874 325.79 199.383 326.225 199.577L370.878 219.505C371.313 219.699 371.823 219.505 372.017 219.07L372.018 219.07C372.212 218.636 372.017 218.126 371.582 217.932Z" fill="#292A2E"/>
<path opacity="0.05" d="M349.124 218.686L323.098 207.153C322.889 207.06 322.651 207.053 322.438 207.135C322.224 207.216 322.051 207.379 321.958 207.588C321.911 207.691 321.886 207.802 321.883 207.916C321.88 208.029 321.899 208.141 321.94 208.247C321.98 208.353 322.041 208.449 322.119 208.532C322.197 208.614 322.29 208.68 322.394 208.726L348.419 220.259C348.628 220.353 348.866 220.359 349.079 220.277C349.293 220.196 349.466 220.033 349.559 219.824C349.652 219.616 349.659 219.378 349.577 219.165C349.496 218.952 349.332 218.779 349.124 218.686Z" fill="#292A2E"/>
<path opacity="0.4" d="M354.1 162.056L345.051 183.064L326.091 174.678L354.1 162.056Z" fill="white"/>
<path d="M85.1407 114.556L74.9294 70.4543L89.7087 43.55L136.266 32.802L151.637 99.2033L85.1407 114.556Z" fill="#F4F4F4"/>
<path opacity="0.05" d="M134.936 68.2982L87.2581 79.1883C86.7937 79.2944 86.5033 79.7564 86.6095 80.2202L86.6096 80.2205C86.7158 80.6843 87.1785 80.9743 87.643 80.8682L135.321 69.9781C135.785 69.872 136.076 69.41 135.969 68.9462L135.969 68.9459C135.863 68.4821 135.4 68.1921 134.936 68.2982Z" fill="#292A2E"/>
<path opacity="0.05" d="M137.324 77.6978L89.6465 88.5879C89.182 88.694 88.8916 89.156 88.9978 89.6198L88.9979 89.6202C89.1042 90.084 89.5668 90.374 90.0313 90.2679L137.709 79.3778C138.174 79.2717 138.464 78.8097 138.358 78.3459L138.358 78.3455C138.251 77.8817 137.789 77.5917 137.324 77.6978Z" fill="#292A2E"/>
<path opacity="0.05" d="M119.833 91.7863L92.0938 98.1997C91.8706 98.2506 91.6768 98.3879 91.555 98.5814C91.4332 98.7749 91.3934 99.0088 91.4443 99.2317C91.4694 99.3421 91.5162 99.4464 91.5818 99.5388C91.6473 99.6312 91.7305 99.7097 91.8265 99.7699C91.9225 99.8302 92.0295 99.8709 92.1413 99.8898C92.2531 99.9088 92.3675 99.9055 92.478 99.8802L120.218 93.4667C120.441 93.4158 120.635 93.2785 120.756 93.0849C120.878 92.8913 120.918 92.6573 120.867 92.4345C120.816 92.2116 120.679 92.0182 120.485 91.8967C120.291 91.7751 120.057 91.7354 119.833 91.7863Z" fill="#292A2E"/>
<path opacity="0.4" d="M89.7087 43.55L95.1294 65.7699L74.9294 70.4543L89.7087 43.55Z" fill="white"/>
<path d="M306.818 249.75H120.268C117.75 249.75 115.335 248.751 113.555 246.973C111.775 245.195 110.774 242.784 110.774 240.27L117.269 29.9812H322.447L316.313 240.27C316.313 241.515 316.067 242.747 315.59 243.898C315.113 245.048 314.414 246.093 313.532 246.973C312.65 247.854 311.604 248.552 310.452 249.029C309.3 249.505 308.065 249.75 306.818 249.75Z" fill="#292A2E"/>
<path opacity="0.9" d="M306.818 249.75H120.268C117.75 249.75 115.335 248.751 113.555 246.973C111.775 245.195 110.774 242.784 110.774 240.27L117.269 29.9812H322.447L316.313 240.27C316.313 241.515 316.067 242.747 315.59 243.898C315.113 245.048 314.414 246.093 313.532 246.973C312.65 247.854 311.604 248.552 310.452 249.029C309.3 249.505 308.065 249.75 306.818 249.75Z" fill="white"/>
<path d="M306.818 250.11H120.268C117.655 250.107 115.15 249.069 113.303 247.224C111.455 245.38 110.416 242.878 110.413 240.269L116.908 29.6208H322.807L316.673 240.269C316.671 242.878 315.631 245.38 313.784 247.224C311.936 249.069 309.431 250.107 306.818 250.11ZM117.629 30.3415L111.134 240.269C111.137 242.687 112.1 245.005 113.813 246.715C115.525 248.425 117.847 249.387 120.268 249.389H306.818C309.24 249.387 311.561 248.425 313.273 246.715C314.986 245.005 315.949 242.687 315.951 240.269L322.085 30.3415H117.629Z" fill="#292A2E"/>
<path d="M313.674 9.13013H127.124C124.511 9.13299 122.006 10.1707 120.158 12.0157C118.311 13.8606 117.272 16.3621 117.269 18.9712L116.908 30.3415H322.807L323.529 18.9712C323.526 16.3621 322.487 13.8606 320.639 12.0157C318.792 10.1707 316.287 9.13299 313.674 9.13013Z" fill="#0C0C0C"/>
<path d="M317.282 9.13013H128.567C125.954 9.13299 123.449 10.1707 121.602 12.0157C119.754 13.8606 118.715 16.3621 118.712 18.9712V30.3415H327.137V18.9712C327.134 16.3621 326.095 13.8606 324.248 12.0157C322.4 10.1707 319.895 9.13299 317.282 9.13013Z" fill="#292A2E"/>
<path d="M119.072 29.9792H326.776V243.872C326.776 246.387 325.776 248.798 323.995 250.576C322.215 252.354 319.8 253.353 317.282 253.353H128.567C126.049 253.353 123.634 252.354 121.854 250.576C120.073 248.798 119.073 246.387 119.073 243.872V29.9792H119.072Z" fill="white"/>
<path d="M317.282 253.713H128.567C125.954 253.71 123.449 252.672 121.602 250.828C119.754 248.983 118.715 246.481 118.712 243.872V29.6208H327.137V243.872C327.134 246.481 326.095 248.983 324.247 250.828C322.4 252.672 319.895 253.71 317.282 253.713ZM119.433 30.3415V243.872C119.436 246.29 120.399 248.609 122.112 250.318C123.824 252.028 126.146 252.99 128.567 252.992H317.282C319.704 252.99 322.025 252.028 323.737 250.318C325.449 248.608 326.413 246.29 326.415 243.872V30.3415H119.433Z" fill="#292A2E"/>
<path d="M155.864 74.3996H135.132C133.976 74.3984 132.868 73.9395 132.051 73.1235C131.234 72.3076 130.775 71.2014 130.773 70.0474V49.3441C130.775 48.1902 131.234 47.0839 132.051 46.268C132.868 45.4521 133.976 44.9932 135.132 44.9919H155.864C157.02 44.9933 158.128 45.4522 158.945 46.2681C159.762 47.084 160.221 48.1903 160.223 49.3441V70.0474C160.221 71.2013 159.762 72.3075 158.945 73.1234C158.128 73.9393 157.02 74.3983 155.864 74.3996ZM135.132 45.7126C134.168 45.7136 133.243 46.0965 132.561 46.7774C131.88 47.4582 131.496 48.3813 131.495 49.3441V70.0474C131.496 71.0103 131.88 71.9334 132.561 72.6142C133.243 73.295 134.168 73.6779 135.132 73.679H155.864C156.829 73.6778 157.753 73.2949 158.435 72.6141C159.116 71.9333 159.5 71.0102 159.501 70.0474V49.3441C159.5 48.3813 159.116 47.4583 158.435 46.7775C157.753 46.0967 156.829 45.7137 155.864 45.7126H135.132Z" fill="#292A2E"/>
<path d="M155.864 115.416H135.132C133.976 115.415 132.868 114.956 132.051 114.14C131.234 113.324 130.775 112.218 130.773 111.064V90.3613C130.774 89.2071 131.234 88.1004 132.051 87.2841C132.868 86.4679 133.976 86.0087 135.132 86.0073H155.864C157.02 86.0087 158.128 86.4677 158.945 87.2836C159.762 88.0996 160.222 89.2059 160.223 90.3599V111.063C160.222 112.217 159.762 113.324 158.945 114.14C158.128 114.956 157.02 115.415 155.864 115.416ZM135.132 86.7279C134.168 86.7291 133.243 87.1121 132.561 87.793C131.88 88.4738 131.496 89.397 131.495 90.3599V111.063C131.496 112.026 131.88 112.949 132.561 113.63C133.243 114.31 134.168 114.693 135.132 114.694H155.864C156.829 114.693 157.753 114.31 158.435 113.63C159.117 112.949 159.5 112.026 159.501 111.063V90.3613C159.5 89.3982 159.117 88.4747 158.435 87.7935C157.754 87.1123 156.829 86.7291 155.864 86.7279H135.132Z" fill="#292A2E"/>
<path d="M155.864 156.433H135.132C133.976 156.432 132.868 155.973 132.051 155.157C131.234 154.341 130.775 153.235 130.773 152.081V131.378C130.775 130.224 131.234 129.118 132.051 128.302C132.868 127.486 133.976 127.027 135.132 127.026H155.864C157.02 127.027 158.128 127.486 158.945 128.302C159.762 129.118 160.221 130.224 160.223 131.378V152.081C160.221 153.235 159.762 154.341 158.945 155.157C158.128 155.973 157.02 156.432 155.864 156.433ZM135.132 127.746C134.168 127.748 133.243 128.13 132.561 128.811C131.88 129.492 131.496 130.415 131.495 131.378V152.081C131.496 153.044 131.88 153.967 132.561 154.648C133.243 155.329 134.168 155.712 135.132 155.713H155.864C156.829 155.712 157.753 155.329 158.435 154.648C159.117 153.967 159.5 153.044 159.501 152.081V131.378C159.5 130.415 159.117 129.492 158.435 128.811C157.753 128.13 156.829 127.748 155.864 127.746H135.132Z" fill="#292A2E"/>
<path d="M155.864 196.887H135.132C133.976 196.885 132.868 196.427 132.051 195.611C131.234 194.795 130.775 193.688 130.773 192.535V171.833C130.775 170.679 131.234 169.573 132.051 168.757C132.868 167.941 133.976 167.482 135.132 167.48H155.864C157.02 167.482 158.128 167.941 158.945 168.757C159.762 169.573 160.222 170.679 160.223 171.833V192.536C160.221 193.69 159.761 194.795 158.944 195.611C158.127 196.427 157.02 196.885 155.864 196.887ZM135.132 168.2C134.168 168.201 133.243 168.584 132.561 169.265C131.879 169.945 131.496 170.869 131.495 171.832V192.535C131.496 193.497 131.88 194.42 132.561 195.101C133.243 195.782 134.168 196.165 135.132 196.166H155.864C156.829 196.165 157.753 195.782 158.435 195.101C159.116 194.42 159.5 193.497 159.501 192.535V171.833C159.5 170.87 159.117 169.947 158.435 169.266C157.753 168.585 156.829 168.202 155.864 168.201L135.132 168.2Z" fill="#292A2E"/>
<path d="M155.864 237.34H135.132C133.976 237.339 132.868 236.88 132.051 236.064C131.234 235.248 130.775 234.141 130.773 232.987V212.284C130.775 211.13 131.234 210.024 132.051 209.208C132.868 208.392 133.976 207.933 135.132 207.932H155.864C157.02 207.933 158.128 208.392 158.945 209.208C159.762 210.024 160.222 211.13 160.223 212.284V232.987C160.222 234.141 159.762 235.248 158.945 236.064C158.128 236.88 157.02 237.339 155.864 237.34ZM135.132 208.653C134.168 208.654 133.243 209.037 132.561 209.718C131.88 210.398 131.496 211.322 131.495 212.284V232.987C131.496 233.95 131.88 234.873 132.561 235.554C133.243 236.235 134.168 236.618 135.132 236.619H155.864C156.829 236.618 157.753 236.235 158.435 235.554C159.117 234.873 159.5 233.95 159.501 232.987V212.284C159.5 211.322 159.117 210.398 158.435 209.718C157.753 209.037 156.829 208.654 155.864 208.653H135.132Z" fill="#292A2E"/>
<path d="M141.809 67.9787C141.436 67.9791 141.078 67.8348 140.809 67.5762L134.766 61.7753C134.628 61.6446 134.516 61.4878 134.439 61.3139C134.361 61.14 134.319 60.9524 134.314 60.7621C134.309 60.5717 134.342 60.3823 134.411 60.2048C134.48 60.0273 134.584 59.8653 134.716 59.728C134.848 59.5907 135.006 59.481 135.181 59.405C135.356 59.3291 135.544 59.2886 135.735 59.2857C135.926 59.2829 136.115 59.3178 136.292 59.3884C136.469 59.4591 136.631 59.5641 136.767 59.6974L141.785 64.5136L154.366 51.8401C154.499 51.7034 154.658 51.5944 154.833 51.5194C155.008 51.4443 155.197 51.4047 155.387 51.4029C155.578 51.4011 155.768 51.437 155.944 51.5087C156.121 51.5803 156.282 51.6863 156.417 51.8204C156.553 51.9545 156.66 52.1141 156.734 52.2899C156.807 52.4658 156.845 52.6544 156.845 52.8449C156.845 53.0355 156.807 53.2241 156.733 53.3998C156.659 53.5756 156.552 53.7351 156.416 53.869L142.837 67.5517C142.703 67.6874 142.543 67.7951 142.366 67.8684C142.19 67.9417 142 67.9792 141.809 67.9787Z" fill="#367CFF"/>
<path d="M141.809 108.995C141.436 108.995 141.078 108.851 140.809 108.592L134.766 102.792C134.49 102.527 134.331 102.163 134.324 101.781C134.316 101.399 134.461 101.029 134.726 100.754C134.991 100.478 135.355 100.319 135.738 100.311C136.121 100.304 136.491 100.448 136.767 100.713L141.785 105.53L154.366 92.8567C154.636 92.5898 155.001 92.4402 155.381 92.4404C155.762 92.4407 156.126 92.5907 156.397 92.858C156.667 93.1252 156.82 93.4881 156.824 93.8678C156.827 94.2474 156.681 94.6132 156.416 94.8856L142.837 108.568C142.703 108.704 142.542 108.812 142.366 108.885C142.19 108.958 142 108.995 141.809 108.995Z" fill="#367CFF"/>
<path d="M141.809 150.012C141.436 150.013 141.078 149.868 140.809 149.61L134.766 143.809C134.49 143.544 134.331 143.181 134.324 142.798C134.316 142.416 134.461 142.047 134.726 141.771C134.991 141.496 135.355 141.337 135.738 141.329C136.121 141.321 136.491 141.466 136.767 141.731L141.785 146.547L154.366 133.874C154.636 133.607 155.001 133.457 155.381 133.457C155.762 133.458 156.126 133.608 156.397 133.875C156.667 134.142 156.82 134.505 156.824 134.885C156.827 135.264 156.681 135.63 156.416 135.902L142.837 149.585C142.703 149.721 142.543 149.829 142.366 149.902C142.19 149.975 142 150.013 141.809 150.012Z" fill="#367CFF"/>
<path opacity="0.5" d="M311.188 53.2856H171.554C170.998 53.2856 170.547 53.7359 170.547 54.2913C170.547 54.8467 170.998 55.2969 171.554 55.2969H311.188C311.744 55.2969 312.195 54.8467 312.195 54.2913C312.195 53.7359 311.744 53.2856 311.188 53.2856Z" fill="#262626"/>
<path opacity="0.5" d="M253.457 64.0947H171.554C170.998 64.0947 170.547 64.545 170.547 65.1003C170.547 65.6557 170.998 66.106 171.554 66.106H253.457C254.013 66.106 254.464 65.6557 254.464 65.1003C254.464 64.545 254.013 64.0947 253.457 64.0947Z" fill="#262626"/>
<path opacity="0.5" d="M311.188 94.3025H171.554C170.998 94.3025 170.547 94.7527 170.547 95.3081C170.547 95.8635 170.998 96.3137 171.554 96.3137H311.188C311.744 96.3137 312.195 95.8635 312.195 95.3081C312.195 94.7527 311.744 94.3025 311.188 94.3025Z" fill="#262626"/>
<path opacity="0.5" d="M253.457 105.112H171.554C170.998 105.112 170.547 105.562 170.547 106.117C170.547 106.673 170.998 107.123 171.554 107.123H253.457C254.013 107.123 254.464 106.673 254.464 106.117C254.464 105.562 254.013 105.112 253.457 105.112Z" fill="#262626"/>
<path opacity="0.5" d="M311.188 135.319H171.554C170.998 135.319 170.547 135.769 170.547 136.325C170.547 136.88 170.998 137.33 171.554 137.33H311.188C311.744 137.33 312.195 136.88 312.195 136.325C312.195 135.769 311.744 135.319 311.188 135.319Z" fill="#262626"/>
<path opacity="0.5" d="M253.457 146.128H171.554C170.998 146.128 170.547 146.579 170.547 147.134C170.547 147.689 170.998 148.14 171.554 148.14H253.457C254.013 148.14 254.464 147.689 254.464 147.134C254.464 146.579 254.013 146.128 253.457 146.128Z" fill="#262626"/>
<path opacity="0.5" d="M311.188 175.772H171.554C170.998 175.772 170.547 176.223 170.547 176.778C170.547 177.333 170.998 177.784 171.554 177.784H311.188C311.744 177.784 312.195 177.333 312.195 176.778C312.195 176.223 311.744 175.772 311.188 175.772Z" fill="#262626"/>
<path opacity="0.5" d="M253.457 186.582H171.554C170.998 186.582 170.547 187.032 170.547 187.587C170.547 188.143 170.998 188.593 171.554 188.593H253.457C254.013 188.593 254.464 188.143 254.464 187.587C254.464 187.032 254.013 186.582 253.457 186.582Z" fill="#262626"/>
<path opacity="0.5" d="M311.188 216.225H171.554C170.998 216.225 170.547 216.676 170.547 217.231C170.547 217.786 170.998 218.237 171.554 218.237H311.188C311.744 218.237 312.195 217.786 312.195 217.231C312.195 216.676 311.744 216.225 311.188 216.225Z" fill="#262626"/>
<path opacity="0.5" d="M253.457 227.035H171.554C170.998 227.035 170.547 227.485 170.547 228.04C170.547 228.596 170.998 229.046 171.554 229.046H253.457C254.013 229.046 254.464 228.596 254.464 228.04C254.464 227.485 254.013 227.035 253.457 227.035Z" fill="#262626"/>
<path d="M144.031 0.614258C141.77 0.616833 139.602 1.51487 138.003 3.11135C136.404 4.70783 135.505 6.87239 135.502 9.13015H136.224C136.224 7.63422 136.655 6.16984 137.465 4.91176C138.276 3.65368 139.432 2.65504 140.795 2.03504C142.158 1.41503 143.672 1.19983 145.154 1.41513C146.636 1.63043 148.026 2.26713 149.156 3.24925C150.286 4.23136 151.109 5.51741 151.527 6.95391C151.945 8.39041 151.94 9.91669 151.513 11.3506C151.086 12.7845 150.255 14.0655 149.119 15.0406C147.983 16.0158 146.59 16.6439 145.106 16.8501C144.981 16.5928 144.768 16.3887 144.506 16.2747C144.243 16.1606 143.948 16.1442 143.675 16.2284C143.401 16.3126 143.167 16.4919 143.014 16.7337C142.861 16.9755 142.8 17.264 142.841 17.5469C142.883 17.8299 143.025 18.0885 143.241 18.2762C143.457 18.4638 143.733 18.568 144.02 18.5699C144.306 18.5719 144.584 18.4714 144.802 18.2866C145.021 18.1019 145.166 17.8452 145.211 17.5628C147.35 17.2647 149.296 16.1673 150.656 14.4924C152.016 12.8174 152.689 10.6895 152.539 8.53837C152.389 6.38719 151.428 4.37292 149.848 2.90218C148.269 1.43144 146.19 0.613774 144.031 0.614258Z" fill="#F4F4F4"/>
<path d="M310.346 9.13015C310.346 6.8716 309.448 4.70555 307.848 3.10851C306.249 1.51147 304.08 0.614258 301.818 0.614258C299.556 0.614258 297.387 1.51147 295.788 3.10851C294.189 4.70555 293.29 6.8716 293.29 9.13015H294.012C294.011 7.63422 294.442 6.16984 295.253 4.91176C296.063 3.65368 297.219 2.65504 298.583 2.03504C299.946 1.41503 301.459 1.19983 302.942 1.41513C304.424 1.63043 305.813 2.26713 306.943 3.24925C308.073 4.23136 308.896 5.51741 309.314 6.95391C309.732 8.39041 309.728 9.91669 309.301 11.3506C308.874 12.7845 308.043 14.0655 306.907 15.0406C305.771 16.0158 304.378 16.6439 302.894 16.8501C302.769 16.5928 302.556 16.3887 302.293 16.2747C302.031 16.1606 301.736 16.1442 301.462 16.2284C301.189 16.3126 300.954 16.4919 300.801 16.7337C300.648 16.9755 300.587 17.264 300.629 17.5469C300.671 17.8299 300.812 18.0885 301.028 18.2762C301.245 18.4638 301.521 18.568 301.807 18.5699C302.094 18.5719 302.371 18.4714 302.59 18.2866C302.808 18.1019 302.954 17.8452 302.999 17.5628C305.035 17.276 306.899 16.2652 308.249 14.7161C309.599 13.1669 310.343 11.1835 310.346 9.13015Z" fill="#F4F4F4"/>
<path d="M287.805 9.13005C287.79 6.88104 286.886 4.72913 285.288 3.14399C283.69 1.55885 281.529 0.669189 279.277 0.669189C277.025 0.669189 274.864 1.55885 273.266 3.14399C271.668 4.72913 270.763 6.88104 270.749 9.13005H271.47C271.47 7.63402 271.901 6.16951 272.711 4.91131C273.522 3.65311 274.678 2.65437 276.041 2.03428C277.405 1.41419 278.918 1.19895 280.401 1.41424C281.883 1.62954 283.272 2.26627 284.402 3.24846C285.533 4.23064 286.356 5.51679 286.774 6.9534C287.192 8.39 287.187 9.91639 286.76 11.3504C286.333 12.7844 285.502 14.0654 284.366 15.0406C283.23 16.0158 281.837 16.6439 280.353 16.85C280.228 16.5927 280.015 16.3886 279.752 16.2746C279.489 16.1605 279.195 16.1441 278.921 16.2283C278.647 16.3125 278.413 16.4918 278.26 16.7336C278.107 16.9754 278.046 17.2639 278.088 17.5468C278.129 17.8298 278.271 18.0884 278.487 18.2761C278.703 18.4637 278.98 18.5679 279.266 18.5698C279.552 18.5718 279.83 18.4713 280.048 18.2865C280.267 18.1018 280.412 17.8451 280.458 17.5627C282.494 17.276 284.358 16.2652 285.708 14.7161C287.058 13.1669 287.802 11.1835 287.805 9.13005Z" fill="#F4F4F4"/>
<path d="M265.264 9.13005C265.25 6.88104 264.345 4.72913 262.747 3.14399C261.149 1.55885 258.988 0.669189 256.736 0.669189C254.484 0.669189 252.323 1.55885 250.725 3.14399C249.127 4.72913 248.222 6.88104 248.208 9.13005H248.929C248.929 7.63411 249.36 6.16969 250.171 4.91157C250.981 3.65344 252.137 2.65474 253.5 2.03464C254.863 1.41454 256.377 1.19924 257.859 1.41442C259.342 1.6296 260.731 2.26618 261.861 3.24819C262.991 4.23021 263.814 5.51618 264.233 6.95265C264.651 8.38911 264.646 9.91541 264.22 11.3494C263.793 12.7834 262.962 14.0645 261.826 15.0398C260.69 16.0152 259.297 16.6436 257.814 16.85C257.689 16.5927 257.476 16.3886 257.213 16.2746C256.95 16.1605 256.656 16.1441 256.382 16.2283C256.108 16.3125 255.874 16.4918 255.721 16.7336C255.568 16.9754 255.507 17.2639 255.549 17.5468C255.59 17.8298 255.732 18.0884 255.948 18.2761C256.164 18.4637 256.44 18.5679 256.727 18.5698C257.013 18.5718 257.291 18.4713 257.509 18.2865C257.728 18.1018 257.873 17.8451 257.919 17.5627C259.955 17.2756 261.818 16.2646 263.168 14.7155C264.517 13.1664 265.262 11.1832 265.264 9.13005Z" fill="#F4F4F4"/>
<path d="M242.723 9.13015C242.723 6.8716 241.824 4.70554 240.225 3.10851C238.626 1.51147 236.457 0.614258 234.195 0.614258C231.933 0.614258 229.764 1.51147 228.165 3.10851C226.565 4.70554 225.667 6.8716 225.667 9.13015H226.389C226.388 7.63422 226.819 6.16984 227.63 4.91176C228.44 3.65368 229.596 2.65504 230.959 2.03504C232.323 1.41503 233.836 1.19983 235.318 1.41513C236.801 1.63043 238.19 2.26713 239.32 3.24925C240.45 4.23136 241.273 5.51741 241.691 6.95391C242.109 8.39041 242.105 9.91669 241.678 11.3506C241.251 12.7845 240.42 14.0655 239.284 15.0406C238.148 16.0158 236.755 16.6439 235.271 16.8501C235.146 16.5927 234.933 16.3883 234.67 16.2741C234.408 16.1599 234.113 16.1433 233.839 16.2274C233.565 16.3115 233.33 16.4906 233.177 16.7325C233.024 16.9743 232.963 17.2629 233.005 17.5459C233.046 17.8289 233.188 18.0878 233.404 18.2756C233.62 18.4634 233.896 18.5678 234.183 18.5698C234.469 18.5718 234.747 18.4714 234.966 18.2867C235.185 18.102 235.33 17.8452 235.376 17.5628C237.412 17.2761 239.276 16.2653 240.626 14.7162C241.975 13.167 242.72 11.1836 242.723 9.13015Z" fill="#F4F4F4"/>
<path d="M220.182 9.13005C220.167 6.88104 219.262 4.72913 217.665 3.14399C216.067 1.55885 213.906 0.669189 211.654 0.669189C209.402 0.669189 207.241 1.55885 205.643 3.14399C204.045 4.72913 203.14 6.88104 203.126 9.13005H203.847C203.847 7.63402 204.278 6.16951 205.088 4.91131C205.899 3.65311 207.055 2.65437 208.418 2.03428C209.782 1.41419 211.295 1.19895 212.777 1.41424C214.26 1.62954 215.649 2.26627 216.779 3.24846C217.909 4.23064 218.733 5.51679 219.151 6.9534C219.569 8.39 219.564 9.91639 219.137 11.3504C218.71 12.7844 217.879 14.0654 216.743 15.0406C215.607 16.0158 214.213 16.6439 212.73 16.85C212.605 16.5927 212.392 16.3886 212.129 16.2746C211.866 16.1605 211.571 16.1441 211.298 16.2283C211.024 16.3125 210.79 16.4918 210.637 16.7336C210.484 16.9754 210.423 17.2639 210.465 17.5468C210.506 17.8298 210.648 18.0884 210.864 18.2761C211.08 18.4637 211.356 18.5679 211.643 18.5698C211.929 18.5718 212.207 18.4713 212.425 18.2865C212.644 18.1018 212.789 17.8451 212.835 17.5627C214.871 17.276 216.735 16.2652 218.085 14.7161C219.435 13.1669 220.179 11.1835 220.182 9.13005Z" fill="#F4F4F4"/>
<path d="M197.641 9.13015C197.641 6.8716 196.742 4.70554 195.143 3.10851C193.544 1.51147 191.374 0.614258 189.113 0.614258C186.851 0.614258 184.682 1.51147 183.082 3.10851C181.483 4.70554 180.585 6.8716 180.585 9.13015H181.306C181.306 7.63422 181.737 6.16984 182.548 4.91176C183.358 3.65368 184.514 2.65504 185.877 2.03504C187.241 1.41503 188.754 1.19983 190.236 1.41513C191.719 1.63043 193.108 2.26713 194.238 3.24924C195.368 4.23136 196.191 5.51741 196.609 6.95391C197.027 8.39041 197.022 9.91669 196.595 11.3506C196.169 12.7845 195.338 14.0655 194.201 15.0406C193.065 16.0158 191.672 16.6439 190.189 16.8501C190.064 16.5927 189.851 16.3883 189.588 16.2741C189.326 16.1599 189.031 16.1433 188.757 16.2274C188.483 16.3115 188.248 16.4906 188.095 16.7325C187.942 16.9743 187.881 17.2629 187.923 17.5459C187.964 17.8289 188.106 18.0878 188.322 18.2756C188.538 18.4634 188.814 18.5678 189.101 18.5698C189.387 18.5718 189.665 18.4714 189.884 18.2867C190.102 18.102 190.248 17.8452 190.293 17.5628C192.33 17.2761 194.194 16.2653 195.544 14.7162C196.893 13.167 197.638 11.1836 197.641 9.13015Z" fill="#F4F4F4"/>
<path d="M175.1 9.13005C175.085 6.88104 174.18 4.72913 172.582 3.14399C170.985 1.55885 168.824 0.669189 166.572 0.669189C164.319 0.669189 162.159 1.55885 160.561 3.14399C158.963 4.72913 158.058 6.88104 158.043 9.13005H158.765C158.765 7.63402 159.196 6.16951 160.006 4.91131C160.817 3.65311 161.973 2.65437 163.336 2.03428C164.699 1.41419 166.213 1.19895 167.695 1.41424C169.178 1.62954 170.567 2.26627 171.697 3.24846C172.827 4.23064 173.65 5.51679 174.068 6.9534C174.486 8.39 174.482 9.91639 174.055 11.3504C173.628 12.7844 172.797 14.0654 171.661 15.0406C170.524 16.0158 169.131 16.6439 167.647 16.85C167.522 16.5927 167.309 16.3886 167.047 16.2746C166.784 16.1605 166.489 16.1441 166.216 16.2283C165.942 16.3125 165.707 16.4918 165.555 16.7336C165.402 16.9754 165.341 17.2639 165.382 17.5468C165.424 17.8298 165.566 18.0884 165.782 18.2761C165.998 18.4637 166.274 18.5679 166.561 18.5698C166.847 18.5718 167.125 18.4713 167.343 18.2865C167.562 18.1018 167.707 17.8451 167.752 17.5627C169.789 17.276 171.653 16.2652 173.003 14.7161C174.352 13.1669 175.097 11.1835 175.1 9.13005Z" fill="#F4F4F4"/>
<g opacity="0.6">
<path d="M144.031 0.614258C141.77 0.616833 139.602 1.51487 138.003 3.11135C136.404 4.70783 135.505 6.87239 135.502 9.13015H136.224C136.224 7.63422 136.655 6.16984 137.465 4.91176C138.276 3.65368 139.432 2.65504 140.795 2.03504C142.158 1.41503 143.672 1.19983 145.154 1.41513C146.636 1.63043 148.026 2.26713 149.156 3.24925C150.286 4.23136 151.109 5.51741 151.527 6.95391C151.945 8.39041 151.94 9.91669 151.513 11.3506C151.086 12.7845 150.255 14.0655 149.119 15.0406C147.983 16.0158 146.59 16.6439 145.106 16.8501C144.981 16.5928 144.768 16.3887 144.506 16.2747C144.243 16.1606 143.948 16.1442 143.675 16.2284C143.401 16.3126 143.167 16.4919 143.014 16.7337C142.861 16.9755 142.8 17.264 142.841 17.5469C142.883 17.8299 143.025 18.0885 143.241 18.2762C143.457 18.4638 143.733 18.568 144.02 18.5699C144.306 18.5719 144.584 18.4714 144.802 18.2866C145.021 18.1019 145.166 17.8452 145.211 17.5628C147.35 17.2647 149.296 16.1673 150.656 14.4924C152.016 12.8174 152.689 10.6895 152.539 8.53837C152.389 6.38719 151.428 4.37292 149.848 2.90218C148.269 1.43144 146.19 0.613774 144.031 0.614258Z" fill="#292A2E"/>
<path d="M310.346 9.13015C310.346 6.8716 309.448 4.70555 307.848 3.10851C306.249 1.51147 304.08 0.614258 301.818 0.614258C299.556 0.614258 297.387 1.51147 295.788 3.10851C294.189 4.70555 293.29 6.8716 293.29 9.13015H294.012C294.011 7.63422 294.442 6.16984 295.253 4.91176C296.063 3.65368 297.219 2.65504 298.583 2.03504C299.946 1.41503 301.459 1.19983 302.942 1.41513C304.424 1.63043 305.813 2.26713 306.943 3.24925C308.073 4.23136 308.896 5.51741 309.314 6.95391C309.732 8.39041 309.728 9.91669 309.301 11.3506C308.874 12.7845 308.043 14.0655 306.907 15.0406C305.771 16.0158 304.378 16.6439 302.894 16.8501C302.769 16.5928 302.556 16.3887 302.293 16.2747C302.031 16.1606 301.736 16.1442 301.462 16.2284C301.189 16.3126 300.954 16.4919 300.801 16.7337C300.648 16.9755 300.587 17.264 300.629 17.5469C300.671 17.8299 300.812 18.0885 301.028 18.2762C301.245 18.4638 301.521 18.568 301.807 18.5699C302.094 18.5719 302.371 18.4714 302.59 18.2866C302.808 18.1019 302.954 17.8452 302.999 17.5628C305.035 17.276 306.899 16.2652 308.249 14.7161C309.599 13.1669 310.343 11.1835 310.346 9.13015Z" fill="#292A2E"/>
<path d="M287.805 9.13005C287.79 6.88104 286.886 4.72913 285.288 3.14399C283.69 1.55885 281.529 0.669189 279.277 0.669189C277.025 0.669189 274.864 1.55885 273.266 3.14399C271.668 4.72913 270.763 6.88104 270.749 9.13005H271.47C271.47 7.63402 271.901 6.16951 272.711 4.91131C273.522 3.65311 274.678 2.65437 276.041 2.03428C277.405 1.41419 278.918 1.19895 280.401 1.41424C281.883 1.62954 283.272 2.26627 284.402 3.24846C285.533 4.23064 286.356 5.51679 286.774 6.9534C287.192 8.39 287.187 9.91639 286.76 11.3504C286.333 12.7844 285.502 14.0654 284.366 15.0406C283.23 16.0158 281.837 16.6439 280.353 16.85C280.228 16.5927 280.015 16.3886 279.752 16.2746C279.489 16.1605 279.195 16.1441 278.921 16.2283C278.647 16.3125 278.413 16.4918 278.26 16.7336C278.107 16.9754 278.046 17.2639 278.088 17.5468C278.129 17.8298 278.271 18.0884 278.487 18.2761C278.703 18.4637 278.98 18.5679 279.266 18.5698C279.552 18.5718 279.83 18.4713 280.048 18.2865C280.267 18.1018 280.412 17.8451 280.458 17.5627C282.494 17.276 284.358 16.2652 285.708 14.7161C287.058 13.1669 287.802 11.1835 287.805 9.13005Z" fill="#292A2E"/>
<path d="M265.264 9.13005C265.25 6.88104 264.345 4.72913 262.747 3.14399C261.149 1.55885 258.988 0.669189 256.736 0.669189C254.484 0.669189 252.323 1.55885 250.725 3.14399C249.127 4.72913 248.222 6.88104 248.208 9.13005H248.929C248.929 7.63411 249.36 6.16969 250.171 4.91157C250.981 3.65344 252.137 2.65474 253.5 2.03464C254.863 1.41454 256.377 1.19924 257.859 1.41442C259.342 1.6296 260.731 2.26618 261.861 3.24819C262.991 4.23021 263.814 5.51618 264.233 6.95265C264.651 8.38911 264.646 9.91541 264.22 11.3494C263.793 12.7834 262.962 14.0645 261.826 15.0398C260.69 16.0152 259.297 16.6436 257.814 16.85C257.689 16.5927 257.476 16.3886 257.213 16.2746C256.95 16.1605 256.656 16.1441 256.382 16.2283C256.108 16.3125 255.874 16.4918 255.721 16.7336C255.568 16.9754 255.507 17.2639 255.549 17.5468C255.59 17.8298 255.732 18.0884 255.948 18.2761C256.164 18.4637 256.44 18.5679 256.727 18.5698C257.013 18.5718 257.291 18.4713 257.509 18.2865C257.728 18.1018 257.873 17.8451 257.919 17.5627C259.955 17.2756 261.818 16.2646 263.168 14.7155C264.517 13.1664 265.262 11.1832 265.264 9.13005Z" fill="#292A2E"/>
<path d="M242.723 9.13015C242.723 6.8716 241.824 4.70554 240.225 3.10851C238.626 1.51147 236.457 0.614258 234.195 0.614258C231.933 0.614258 229.764 1.51147 228.165 3.10851C226.565 4.70554 225.667 6.8716 225.667 9.13015H226.389C226.388 7.63422 226.819 6.16984 227.63 4.91176C228.44 3.65368 229.596 2.65504 230.959 2.03504C232.323 1.41503 233.836 1.19983 235.318 1.41513C236.801 1.63043 238.19 2.26713 239.32 3.24925C240.45 4.23136 241.273 5.51741 241.691 6.95391C242.109 8.39041 242.105 9.91669 241.678 11.3506C241.251 12.7845 240.42 14.0655 239.284 15.0406C238.148 16.0158 236.755 16.6439 235.271 16.8501C235.146 16.5927 234.933 16.3883 234.67 16.2741C234.408 16.1599 234.113 16.1433 233.839 16.2274C233.565 16.3115 233.33 16.4906 233.177 16.7325C233.024 16.9743 232.963 17.2629 233.005 17.5459C233.046 17.8289 233.188 18.0878 233.404 18.2756C233.62 18.4634 233.896 18.5678 234.183 18.5698C234.469 18.5718 234.747 18.4714 234.966 18.2867C235.185 18.102 235.33 17.8452 235.376 17.5628C237.412 17.2761 239.276 16.2653 240.626 14.7162C241.975 13.167 242.72 11.1836 242.723 9.13015Z" fill="#292A2E"/>
<path d="M220.182 9.13005C220.167 6.88104 219.262 4.72913 217.665 3.14399C216.067 1.55885 213.906 0.669189 211.654 0.669189C209.402 0.669189 207.241 1.55885 205.643 3.14399C204.045 4.72913 203.14 6.88104 203.126 9.13005H203.847C203.847 7.63402 204.278 6.16951 205.088 4.91131C205.899 3.65311 207.055 2.65437 208.418 2.03428C209.782 1.41419 211.295 1.19895 212.777 1.41424C214.26 1.62954 215.649 2.26627 216.779 3.24846C217.909 4.23064 218.733 5.51679 219.151 6.9534C219.569 8.39 219.564 9.91639 219.137 11.3504C218.71 12.7844 217.879 14.0654 216.743 15.0406C215.607 16.0158 214.213 16.6439 212.73 16.85C212.605 16.5927 212.392 16.3886 212.129 16.2746C211.866 16.1605 211.571 16.1441 211.298 16.2283C211.024 16.3125 210.79 16.4918 210.637 16.7336C210.484 16.9754 210.423 17.2639 210.465 17.5468C210.506 17.8298 210.648 18.0884 210.864 18.2761C211.08 18.4637 211.356 18.5679 211.643 18.5698C211.929 18.5718 212.207 18.4713 212.425 18.2865C212.644 18.1018 212.789 17.8451 212.835 17.5627C214.871 17.276 216.735 16.2652 218.085 14.7161C219.435 13.1669 220.179 11.1835 220.182 9.13005Z" fill="#292A2E"/>
<path d="M197.641 9.13015C197.641 6.8716 196.742 4.70554 195.143 3.10851C193.544 1.51147 191.374 0.614258 189.113 0.614258C186.851 0.614258 184.682 1.51147 183.082 3.10851C181.483 4.70554 180.585 6.8716 180.585 9.13015H181.306C181.306 7.63422 181.737 6.16984 182.548 4.91176C183.358 3.65368 184.514 2.65504 185.877 2.03504C187.241 1.41503 188.754 1.19983 190.236 1.41513C191.719 1.63043 193.108 2.26713 194.238 3.24924C195.368 4.23136 196.191 5.51741 196.609 6.95391C197.027 8.39041 197.022 9.91669 196.595 11.3506C196.169 12.7845 195.338 14.0655 194.201 15.0406C193.065 16.0158 191.672 16.6439 190.189 16.8501C190.064 16.5927 189.851 16.3883 189.588 16.2741C189.326 16.1599 189.031 16.1433 188.757 16.2274C188.483 16.3115 188.248 16.4906 188.095 16.7325C187.942 16.9743 187.881 17.2629 187.923 17.5459C187.964 17.8289 188.106 18.0878 188.322 18.2756C188.538 18.4634 188.814 18.5678 189.101 18.5698C189.387 18.5718 189.665 18.4714 189.884 18.2867C190.102 18.102 190.248 17.8452 190.293 17.5628C192.33 17.2761 194.194 16.2653 195.544 14.7162C196.893 13.167 197.638 11.1836 197.641 9.13015Z" fill="#292A2E"/>
<path d="M175.1 9.13005C175.085 6.88104 174.18 4.72913 172.582 3.14399C170.985 1.55885 168.824 0.669189 166.572 0.669189C164.319 0.669189 162.159 1.55885 160.561 3.14399C158.963 4.72913 158.058 6.88104 158.043 9.13005H158.765C158.765 7.63402 159.196 6.16951 160.006 4.91131C160.817 3.65311 161.973 2.65437 163.336 2.03428C164.699 1.41419 166.213 1.19895 167.695 1.41424C169.178 1.62954 170.567 2.26627 171.697 3.24846C172.827 4.23064 173.65 5.51679 174.068 6.9534C174.486 8.39 174.482 9.91639 174.055 11.3504C173.628 12.7844 172.797 14.0654 171.661 15.0406C170.524 16.0158 169.131 16.6439 167.647 16.85C167.522 16.5927 167.309 16.3886 167.047 16.2746C166.784 16.1605 166.489 16.1441 166.216 16.2283C165.942 16.3125 165.707 16.4918 165.555 16.7336C165.402 16.9754 165.341 17.2639 165.382 17.5468C165.424 17.8298 165.566 18.0884 165.782 18.2761C165.998 18.4637 166.274 18.5679 166.561 18.5698C166.847 18.5718 167.125 18.4713 167.343 18.2865C167.562 18.1018 167.707 17.8451 167.752 17.5627C169.789 17.276 171.653 16.2652 173.003 14.7161C174.352 13.1669 175.097 11.1835 175.1 9.13005Z" fill="#292A2E"/>
</g>
<path d="M97.825 261.766C97.7776 261.766 97.7307 261.757 97.6869 261.739C97.6431 261.721 97.6034 261.694 97.5699 261.66C97.0615 261.153 96.2327 251.839 94.0007 224.108C93.0874 212.761 92.2247 202.043 91.5951 195.53C91.5503 195.065 91.3696 195.011 91.3104 194.993C90.4484 194.733 87.8277 196.797 86.3646 198.604C86.3348 198.641 86.298 198.672 86.2564 198.694C86.2147 198.717 86.169 198.731 86.1219 198.736C86.0748 198.741 86.0271 198.737 85.9816 198.723C85.9362 198.71 85.8938 198.688 85.8569 198.658C85.8201 198.628 85.7894 198.591 85.7668 198.55C85.7441 198.508 85.7299 198.463 85.7249 198.415C85.7199 198.368 85.7243 198.321 85.7377 198.275C85.7511 198.23 85.7734 198.188 85.8032 198.151C86.7709 196.956 89.9245 193.824 91.5179 194.303C91.839 194.399 92.2377 194.678 92.3117 195.461C92.9417 201.98 93.8048 212.701 94.7184 224.05C96.0747 240.902 97.6111 259.993 98.1162 261.196C98.1548 261.249 98.1779 261.313 98.1829 261.378C98.1879 261.444 98.1746 261.51 98.1445 261.569C98.1145 261.628 98.0688 261.678 98.0124 261.712C97.9561 261.747 97.8912 261.766 97.825 261.766Z" fill="#494949"/>
<path d="M90.6684 207.481C96.6559 202.688 98.6403 195.229 95.1009 190.819C91.5614 186.41 83.8384 186.721 77.851 191.513C71.8636 196.306 69.8791 203.766 73.4186 208.175C76.958 212.584 84.681 212.273 90.6684 207.481Z" fill="#0CBC8B"/>
<path opacity="0.2" d="M90.6684 207.481C96.6559 202.688 98.6403 195.229 95.1009 190.819C91.5614 186.41 83.8384 186.721 77.851 191.513C71.8636 196.306 69.8791 203.766 73.4186 208.175C76.958 212.584 84.681 212.273 90.6684 207.481Z" fill="white"/>
<path d="M75.0969 209.296C75.0548 209.296 75.014 209.281 74.9818 209.254C74.9454 209.224 74.9224 209.18 74.918 209.133C74.9135 209.086 74.9279 209.039 74.958 209.002L92.0216 188.454C92.0367 188.436 92.0553 188.421 92.0763 188.409C92.0973 188.398 92.1202 188.392 92.1438 188.389C92.1674 188.387 92.1912 188.39 92.2139 188.397C92.2365 188.404 92.2576 188.415 92.2758 188.43C92.294 188.445 92.3091 188.464 92.3202 188.485C92.3312 188.506 92.3381 188.529 92.3403 188.552C92.3425 188.576 92.34 188.6 92.333 188.622C92.326 188.645 92.3146 188.666 92.2994 188.684L75.2376 209.231C75.2204 209.251 75.1989 209.268 75.1746 209.279C75.1502 209.29 75.1237 209.296 75.0969 209.296Z" fill="white"/>
<path d="M101.547 257.359C101.489 257.359 101.432 257.345 101.381 257.319C101.33 257.293 101.286 257.254 101.253 257.208C101.219 257.161 101.198 257.107 101.189 257.05C101.181 256.993 101.187 256.935 101.206 256.88L107.616 238.473C107.804 237.933 108.126 237.448 108.551 237.063C108.976 236.679 109.491 236.407 110.048 236.272C110.606 236.138 111.188 236.145 111.742 236.294C112.296 236.443 112.803 236.728 113.218 237.123L116.607 240.355C116.677 240.421 116.717 240.512 116.719 240.608C116.721 240.703 116.685 240.796 116.619 240.865C116.553 240.934 116.462 240.974 116.366 240.976C116.271 240.978 116.178 240.943 116.109 240.877L112.72 237.644C112.393 237.332 111.992 237.107 111.554 236.989C111.117 236.872 110.657 236.866 110.217 236.972C109.777 237.078 109.371 237.293 109.035 237.597C108.7 237.9 108.446 238.283 108.297 238.71L101.888 257.118C101.863 257.188 101.817 257.25 101.756 257.293C101.695 257.336 101.621 257.359 101.547 257.359Z" fill="#494949"/>
<path d="M126.074 250.546C130.511 247.038 130.247 239.325 125.485 233.316C120.722 227.308 113.264 225.281 108.827 228.788C104.39 232.295 104.653 240.009 109.416 246.017C114.178 252.025 121.636 254.053 126.074 250.546Z" fill="#0CBC8B"/>
<path d="M94.9132 260.591C94.8321 260.591 94.7534 260.563 94.6898 260.513C94.6262 260.463 94.5813 260.393 94.5625 260.314L83.806 215.403C83.7324 215.097 83.5758 214.817 83.3533 214.594C83.1308 214.372 82.851 214.214 82.5448 214.14C82.2386 214.065 81.9177 214.076 81.6174 214.172C81.3172 214.268 81.0492 214.445 80.843 214.683L77.527 218.509C77.4961 218.545 77.4584 218.575 77.4159 218.597C77.3735 218.619 77.3271 218.632 77.2796 218.635C77.232 218.639 77.1842 218.633 77.139 218.618C77.0937 218.603 77.0518 218.58 77.0158 218.548C76.9797 218.517 76.9502 218.479 76.929 218.437C76.9077 218.394 76.8951 218.348 76.8919 218.3C76.8887 218.253 76.895 218.205 76.9104 218.16C76.9257 218.115 76.9499 218.073 76.9814 218.037L80.297 214.211C80.5903 213.873 80.9713 213.622 81.3981 213.486C81.825 213.35 82.2812 213.334 82.7165 213.44C83.1518 213.546 83.5494 213.77 83.8655 214.087C84.1816 214.404 84.404 214.802 84.5082 215.238L95.2632 260.146C95.2855 260.239 95.2698 260.337 95.2198 260.419C95.1697 260.5 95.0893 260.558 94.9962 260.581C94.969 260.587 94.9412 260.591 94.9132 260.591Z" fill="#494949"/>
<path d="M90.9445 228.486C92.2521 220.935 88.7916 214.034 83.2153 213.071C77.639 212.108 72.0585 217.448 70.7509 224.999C69.4434 232.549 72.9039 239.451 78.4802 240.414C84.0565 241.377 89.6369 236.036 90.9445 228.486Z" fill="#0CBC8B"/>
<path d="M97.8251 261.766C97.8102 261.766 97.7954 261.765 97.7807 261.763C97.7336 261.758 97.6881 261.743 97.6469 261.719C97.6056 261.696 97.5693 261.665 97.5402 261.628C97.511 261.59 97.4894 261.548 97.4768 261.502C97.4641 261.456 97.4606 261.409 97.4664 261.362L104.335 205.672C104.41 205.065 104.659 204.493 105.052 204.024C105.444 203.555 105.964 203.209 106.549 203.029C107.134 202.848 107.758 202.839 108.347 203.004C108.937 203.169 109.466 203.501 109.871 203.959L117.722 212.838C117.753 212.874 117.777 212.915 117.793 212.96C117.808 213.005 117.814 213.052 117.812 213.099C117.809 213.146 117.796 213.193 117.775 213.235C117.755 213.278 117.726 213.316 117.69 213.347C117.655 213.378 117.613 213.402 117.568 213.418C117.524 213.433 117.476 213.439 117.429 213.436C117.381 213.434 117.335 213.421 117.293 213.401C117.25 213.38 117.212 213.351 117.181 213.315L109.33 204.436C109.017 204.082 108.608 203.826 108.152 203.698C107.697 203.571 107.214 203.577 106.762 203.717C106.31 203.857 105.909 204.124 105.605 204.486C105.302 204.848 105.109 205.291 105.052 205.76L98.183 261.448C98.1727 261.535 98.1305 261.616 98.0645 261.675C97.9986 261.733 97.9134 261.766 97.8251 261.766Z" fill="#494949"/>
<path d="M125.774 217.772C128.513 212.827 125.29 205.812 118.575 202.103C111.861 198.394 104.197 199.396 101.458 204.341C98.7185 209.286 101.941 216.301 108.656 220.01C115.371 223.719 123.035 222.717 125.774 217.772Z" fill="#0CBC8B"/>
<path opacity="0.2" d="M126.074 250.546C130.511 247.038 130.247 239.325 125.485 233.316C120.722 227.308 113.264 225.281 108.827 228.788C104.39 232.295 104.653 240.009 109.416 246.017C114.178 252.025 121.636 254.053 126.074 250.546Z" fill="white"/>
<path opacity="0.5" d="M90.9445 228.486C92.2521 220.935 88.7916 214.034 83.2153 213.071C77.639 212.108 72.0585 217.448 70.7509 224.999C69.4434 232.549 72.9039 239.451 78.4802 240.414C84.0565 241.377 89.6369 236.036 90.9445 228.486Z" fill="white"/>
<path opacity="0.5" d="M125.774 217.772C128.513 212.827 125.29 205.812 118.575 202.103C111.861 198.394 104.197 199.396 101.458 204.341C98.7185 209.286 101.941 216.301 108.656 220.01C115.371 223.719 123.035 222.717 125.774 217.772Z" fill="white"/>
<path d="M106.61 309.016H89.0394L86.1279 252.878H109.522L106.61 309.016Z" fill="#292A2E"/>
<path opacity="0.3" d="M106.61 309.016H89.0394L86.1279 252.878H109.522L106.61 309.016Z" fill="white"/>
<path d="M126.075 250.725C126.048 250.725 126.021 250.719 125.996 250.707C125.972 250.695 125.95 250.678 125.933 250.656L108.686 228.899C108.671 228.88 108.661 228.859 108.654 228.836C108.648 228.813 108.646 228.79 108.648 228.766C108.651 228.743 108.658 228.72 108.67 228.699C108.681 228.679 108.697 228.66 108.716 228.646C108.734 228.631 108.755 228.62 108.778 228.614C108.801 228.607 108.825 228.605 108.848 228.608C108.872 228.611 108.895 228.618 108.915 228.629C108.936 228.641 108.954 228.656 108.969 228.675L126.216 250.433C126.237 250.459 126.251 250.491 126.254 250.525C126.258 250.558 126.252 250.593 126.238 250.623C126.223 250.654 126.2 250.679 126.171 250.697C126.142 250.715 126.109 250.725 126.075 250.725Z" fill="white"/>
<path d="M124.627 219.516C124.588 219.516 124.55 219.503 124.519 219.48L102.45 203.389C102.431 203.375 102.415 203.357 102.403 203.337C102.39 203.317 102.382 203.295 102.379 203.271C102.375 203.248 102.376 203.224 102.381 203.201C102.387 203.178 102.397 203.156 102.411 203.137C102.425 203.118 102.443 203.102 102.463 203.09C102.483 203.077 102.506 203.069 102.529 203.065C102.552 203.062 102.576 203.063 102.599 203.068C102.622 203.074 102.644 203.084 102.663 203.098L124.733 219.19C124.764 219.213 124.786 219.244 124.797 219.28C124.809 219.316 124.808 219.355 124.797 219.391C124.785 219.426 124.762 219.458 124.732 219.48C124.701 219.502 124.665 219.514 124.627 219.515V219.516Z" fill="white"/>
<path d="M77.5829 240.179C77.5672 240.179 77.5516 240.177 77.5364 240.173C77.4902 240.161 77.4508 240.13 77.4268 240.089C77.4028 240.048 77.3963 239.999 77.4087 239.952L84.4342 213.667C84.4476 213.622 84.478 213.584 84.5189 213.561C84.5599 213.538 84.6082 213.532 84.6536 213.544C84.699 213.556 84.7379 213.585 84.762 213.625C84.7861 213.666 84.7936 213.714 84.7828 213.759L77.759 240.045C77.7487 240.084 77.7258 240.118 77.6939 240.142C77.662 240.166 77.623 240.179 77.5829 240.179Z" fill="white"/>
<path d="M374.408 107.558L375.423 106.724C375.742 106.45 375.945 106.066 375.991 105.649C376.037 105.232 375.923 104.812 375.672 104.476C375.536 104.307 375.368 104.167 375.176 104.065C374.984 103.963 374.774 103.901 374.558 103.883C374.341 103.865 374.123 103.891 373.918 103.96C373.712 104.029 373.522 104.139 373.36 104.284L361.319 114.957L364.648 118.897C365.682 120.121 367.058 121.008 368.6 121.446C370.142 121.883 371.78 121.851 373.304 121.353L380.201 119.084C380.562 118.974 380.873 118.742 381.082 118.428C381.292 118.114 381.386 117.738 381.349 117.363C381.255 116.624 374.408 107.558 374.408 107.558Z" fill="#E98862"/>
<path d="M367.211 107.641L333.996 117.918L313.741 83.6553L296.437 93.7594L321.971 134.967L322.133 135.173C323.472 136.831 325.295 138.031 327.349 138.606C329.403 139.181 331.585 139.102 333.592 138.38L373.184 124.059L367.211 107.641Z" fill="#367CFF"/>
<path d="M387.482 287.945L359.789 289.245L349.108 107.681L376.802 106.382L387.482 287.945Z" fill="#367CFF"/>
<path opacity="0.5" d="M387.482 287.945L359.789 289.245L349.108 107.681L376.802 106.382L387.482 287.945Z" fill="white"/>
<path d="M375.86 86.3755L348.167 87.6753L349.109 107.679L376.802 106.379L375.86 86.3755Z" fill="#262626"/>
<path d="M387.483 287.945C387.483 287.945 383.684 294.534 380.259 300.425C377.543 305.098 375.063 309.332 374.903 309.49C374.739 309.654 371.643 305.544 368.297 300.987C364.229 295.449 359.788 289.246 359.788 289.246L387.483 287.945Z" fill="#367CFF"/>
<path opacity="0.9" d="M387.483 287.945C387.483 287.945 383.684 294.534 380.259 300.425C377.543 305.098 375.063 309.332 374.903 309.49C374.739 309.654 371.643 305.544 368.297 300.987C364.229 295.449 359.788 289.246 359.788 289.246L387.483 287.945Z" fill="white"/>
<path d="M380.259 300.427C377.543 305.099 375.063 309.334 374.903 309.492C374.739 309.656 371.643 305.546 368.297 300.988L380.259 300.427Z" fill="#262626"/>
<path d="M378.857 288.297L367.688 106.846L368.952 106.782L380.12 288.234L378.857 288.297Z" fill="white"/>
<path d="M368.023 288.81L356.854 107.358L358.118 107.295L369.286 288.746L368.023 288.81Z" fill="white"/>
<path d="M372.637 116.024C372.636 115.676 372.75 115.336 372.96 115.058C373.17 114.78 373.466 114.578 373.802 114.483C373.79 114.458 373.743 114.404 373.788 114.386L372.473 114.153C372.084 114.093 371.73 113.894 371.476 113.594C371.222 113.293 371.086 112.911 371.093 112.518C371.112 112.13 371.275 111.763 371.549 111.488C371.824 111.213 372.191 111.049 372.58 111.029C372.57 111.017 372.573 110.999 372.568 110.984L372.027 110.888C371.661 110.83 371.326 110.647 371.079 110.37C370.832 110.094 370.688 109.741 370.672 109.371C370.667 109.138 370.713 108.908 370.808 108.696C370.903 108.484 371.044 108.295 371.22 108.144C371.397 107.992 371.605 107.882 371.829 107.821C372.054 107.759 372.289 107.749 372.518 107.789L373.766 108.009C373.766 108.003 373.76 107.998 373.761 107.991C373.762 107.984 373.771 107.977 373.774 107.969C373.446 107.831 373.175 107.587 373.004 107.275C372.834 106.963 372.774 106.602 372.836 106.252C372.937 105.338 374.018 104.998 374.825 105.141L377.331 105.789C377.717 105.889 378.073 106.083 378.367 106.353C378.66 106.623 378.882 106.962 379.013 107.339C380.148 110.599 382.906 119.186 380.332 118.73L373.994 117.609C373.623 117.533 373.289 117.336 373.043 117.049C372.797 116.762 372.654 116.401 372.637 116.024Z" fill="#E98862"/>
<path d="M267.318 50.0104C267.318 50.0104 263.583 46.7827 263.066 39.8933C262.666 34.5607 267.318 38.3079 267.318 38.3079C267.318 38.3079 267.067 34.4641 269.82 35.0291C272.573 35.5941 273.861 39.6994 273.861 39.6994" fill="#0C0C0C"/>
<path d="M284.158 36.4363C284.158 36.4363 297.851 38.8356 291.613 57.1645H287.899" fill="#0C0C0C"/>
<path d="M293.937 287.18C293.937 287.18 298.318 294.57 292.713 300.159C287.108 305.748 292.569 309.319 292.569 309.319L315.181 289.307L305.169 278.025L293.937 287.18Z" fill="#367CFF"/>
<path d="M255.462 141.511C255.462 141.511 252.915 214.823 253.239 218.401C254.464 231.935 294.35 293.263 294.35 293.263L309.203 280.6L290.237 242.237L278.246 215.502C278.246 215.502 280.31 192.509 285.874 171.158C288.72 160.2 290.433 148.979 290.986 137.672L255.462 141.511Z" fill="#262626"/>
<path d="M293.205 293.672C293.205 293.672 291.576 302.103 283.669 302.575C275.763 303.046 277.478 309.335 277.478 309.335H307.693V294.26L293.205 293.672Z" fill="#367CFF"/>
<path d="M309.741 139.845C309.741 139.845 309.646 137.311 309.667 143.061C309.741 164.51 309.026 299.054 309.026 299.054L289.171 298.887L277.144 138.973L309.741 139.845Z" fill="#262626"/>
<path d="M281.222 193.486L279.593 168.621C279.593 168.621 277.921 178.958 277.921 187.868C277.921 192.223 278.819 209.465 278.819 209.465L281.222 193.486Z" fill="#0A0A0A"/>
<path d="M283.87 228.04L288 283.312L284.134 277.101L280.182 219.819L283.87 228.04Z" fill="#0A0A0A"/>
<path d="M268.737 76.22C268.797 76.2121 269.472 87.3863 282.472 86.4124C291.471 85.739 294.68 76.2041 294.887 76.2041C293.916 75.9984 292.717 75.6857 292.24 75.5786C291.202 75.3379 290.261 74.7871 289.544 73.9994C288.826 73.2118 288.366 72.2248 288.224 71.1695C287.961 69.5842 288.407 61.4823 288.27 59.8796L274.455 62.9588C274.648 66.3432 275.999 74.1897 271.264 75.5786C270.476 75.8082 269.628 76.0193 268.737 76.22Z" fill="#E98862"/>
<path opacity="0.52" d="M274.262 72.3718C274.478 71.6755 274.617 70.9576 274.677 70.2309C274.829 68.5726 274.799 66.9028 274.587 65.2511C277.395 64.8725 280.04 63.7152 282.222 61.9106C282.479 62.8568 283.889 66.991 283.499 67.8892C282.761 69.5888 279.291 72.3718 274.262 72.3718Z" fill="#0C0C0C"/>
<path d="M276.714 69.6721C282.184 69.5489 288.923 66.5536 289.511 59.1889L290.042 52.5437C290.631 45.179 287.234 38.9003 280.29 38.3476C273.346 37.7941 267.678 43.3508 267.09 50.7155L266.855 53.6574C266.792 54.6689 266.798 55.6835 266.873 56.6941C267.054 59.3669 267.334 63.4319 268.952 66.2758C270.478 68.9608 273.219 69.7506 276.714 69.6721Z" fill="#E98862"/>
<path opacity="0.52" d="M274.643 62.7676C273.517 62.7433 272.413 62.4551 271.42 61.9263C271.398 61.9163 271.379 61.9021 271.364 61.8846C271.348 61.8671 271.336 61.8466 271.328 61.8244C271.321 61.8022 271.318 61.7787 271.319 61.7553C271.321 61.7319 271.327 61.7091 271.338 61.6882C271.349 61.6672 271.363 61.6487 271.381 61.6335C271.399 61.6184 271.42 61.607 271.442 61.6001C271.465 61.5931 271.489 61.5907 271.512 61.593C271.535 61.5953 271.558 61.6023 271.579 61.6135C273.723 62.7009 275.736 62.6977 277.401 61.6034C277.434 61.5802 277.469 61.5588 277.505 61.5393C277.547 61.5189 277.595 61.5159 277.639 61.531C277.684 61.5461 277.72 61.5782 277.74 61.62C277.761 61.6619 277.764 61.7101 277.749 61.7542C277.734 61.7983 277.701 61.8345 277.66 61.8549C277.646 61.8621 277.623 61.8769 277.594 61.8967C276.719 62.4738 275.691 62.7771 274.643 62.7676Z" fill="#0C0C0C"/>
<path opacity="0.52" d="M274.584 64.4295C274.381 64.4284 274.178 64.4099 273.978 64.3744C273.933 64.3664 273.892 64.3405 273.865 64.3024C273.838 64.2643 273.827 64.2172 273.835 64.1713C273.843 64.1255 273.869 64.0846 273.907 64.0578C273.946 64.031 273.993 64.0205 274.039 64.0285C275.245 64.2389 275.862 63.7218 275.888 63.6995C275.923 63.6688 275.968 63.6533 276.015 63.6564C276.062 63.6595 276.105 63.6809 276.136 63.7159C276.166 63.7509 276.182 63.7967 276.179 63.8431C276.176 63.8896 276.154 63.9329 276.119 63.9636C275.677 64.2917 275.134 64.4563 274.584 64.4295Z" fill="#0C0C0C"/>
<path d="M269.15 54.1511C269.624 54.1511 270.008 53.7675 270.008 53.2943C270.008 52.8211 269.624 52.4375 269.15 52.4375C268.676 52.4375 268.292 52.8211 268.292 53.2943C268.292 53.7675 268.676 54.1511 269.15 54.1511Z" fill="#0C0C0C"/>
<path d="M277.102 54.2051C277.576 54.2051 277.96 53.8215 277.96 53.3483C277.96 52.8751 277.576 52.4915 277.102 52.4915C276.628 52.4915 276.244 52.8751 276.244 53.3483C276.244 53.8215 276.628 54.2051 277.102 54.2051Z" fill="#0C0C0C"/>
<path d="M288.901 61.3984C291.011 61.5663 292.902 59.4484 293.07 57.341C293.239 55.2335 291.621 53.9354 289.51 53.7671L288.31 55.093L287.086 61.2543L288.901 61.3984Z" fill="#E98862"/>
<path d="M252.585 100.821C252.994 105.624 254.987 135.594 255.38 141.511H309.638C309.944 136.175 311.321 112.839 312.483 102.404C313.592 92.4454 315.769 87.0995 314.173 84.1554C311.566 79.3438 304.442 76.9236 299.583 76.2668C296.617 75.8661 292.155 75.5786 292.155 75.5786C292.155 75.5786 291.777 83.2099 282.769 83.6348C270.506 84.2112 271.325 75.5786 271.264 75.5786C266.813 75.5786 258.386 76.6422 255.153 78.838C247.882 83.7753 251.716 90.641 252.585 100.821Z" fill="#367CFF"/>
<path d="M287.027 57.8673C287.027 57.8673 287.014 47.3898 283.888 46.5338C281.807 45.9637 276.491 48.6091 271.814 47.3898C269.768 46.8562 267.766 47.2371 267.5 48.2013C267.395 48.5832 266.477 42.9335 270.006 38.9287C272.816 35.7403 281.336 35.357 285.111 36.7168C295.56 40.4816 289.913 54.2544 289.913 54.2544L289.197 57.8186L287.027 57.8673Z" fill="#0C0C0C"/>
<g opacity="0.52">
<path d="M273.531 60.2191H273.518C272.838 60.1668 271.702 60.0029 271.741 59.4948C271.774 59.074 273.279 54.6184 273.451 54.1118C273.458 54.0903 273.47 54.0703 273.485 54.0532C273.5 54.036 273.518 54.022 273.538 54.0119C273.559 54.0018 273.581 53.9958 273.604 53.9943C273.627 53.9928 273.649 53.9957 273.671 54.003C273.693 54.0103 273.713 54.0218 273.73 54.0368C273.747 54.0517 273.761 54.07 273.771 54.0904C273.781 54.1108 273.787 54.133 273.789 54.1557C273.79 54.1784 273.787 54.2012 273.78 54.2228C273.112 56.1962 272.11 59.2358 272.088 59.5215C272.145 59.6469 272.84 59.8188 273.544 59.8732C273.588 59.8772 273.63 59.898 273.659 59.9314C273.688 59.9648 273.704 60.0082 273.702 60.0526C273.701 60.0971 273.682 60.1392 273.65 60.1703C273.618 60.2014 273.576 60.2191 273.531 60.2198V60.2191Z" fill="#0C0C0C"/>
</g>
<path d="M271.561 50.664C271.293 50.5518 271.012 50.4761 270.724 50.4388C270.426 50.3976 270.123 50.3976 269.825 50.4388C269.525 50.4763 269.232 50.559 268.957 50.6842C268.676 50.8103 268.412 50.9711 268.172 51.1627L268.153 51.1771C268.09 51.223 268.013 51.2431 267.936 51.2334C267.86 51.2236 267.79 51.1848 267.741 51.1248C267.692 51.0649 267.668 50.9885 267.675 50.9115C267.681 50.8346 267.716 50.763 267.774 50.7116C268.041 50.4642 268.338 50.2513 268.658 50.0782C268.983 49.9008 269.332 49.7731 269.695 49.6995C270.435 49.5439 271.204 49.5916 271.919 49.8375C271.975 49.8572 272.027 49.8877 272.071 49.9272C272.115 49.9668 272.151 50.0147 272.177 50.0681C272.202 50.1215 272.217 50.1795 272.22 50.2386C272.223 50.2978 272.215 50.357 272.195 50.4129C272.176 50.4688 272.145 50.5202 272.105 50.5643C272.066 50.6084 272.018 50.6443 271.964 50.6699C271.911 50.6955 271.853 50.7103 271.794 50.7135C271.734 50.7167 271.675 50.7082 271.619 50.6885C271.608 50.6846 271.598 50.6806 271.587 50.6759L271.561 50.664Z" fill="#0C0C0C"/>
<path d="M276.598 49.9088C276.958 49.7825 277.335 49.7082 277.716 49.6883C278.087 49.6652 278.459 49.693 278.822 49.7708C279.185 49.8446 279.534 49.9722 279.859 50.1495C280.179 50.3229 280.476 50.536 280.742 50.7836C280.801 50.8345 280.838 50.9063 280.845 50.9838C280.852 51.0613 280.829 51.1385 280.78 51.199C280.731 51.2595 280.66 51.2986 280.583 51.308C280.505 51.3174 280.427 51.2964 280.365 51.2495L280.345 51.2344C280.104 51.0427 279.84 50.882 279.56 50.7559C279.285 50.6307 278.993 50.5479 278.694 50.5101C278.395 50.4689 278.093 50.4689 277.795 50.5101C277.507 50.5474 277.225 50.6231 276.957 50.7353L276.932 50.7465C276.878 50.7705 276.819 50.7835 276.76 50.7849C276.701 50.7863 276.642 50.7761 276.586 50.7547C276.531 50.7334 276.481 50.7013 276.438 50.6604C276.395 50.6195 276.36 50.5706 276.336 50.5164C276.312 50.4623 276.299 50.4039 276.298 50.3447C276.296 50.2855 276.307 50.2265 276.328 50.1713C276.349 50.116 276.381 50.0655 276.422 50.0226C276.463 49.9798 276.512 49.9454 276.567 49.9214C276.576 49.9171 276.587 49.9124 276.598 49.9088Z" fill="#0C0C0C"/>
<path d="M277.331 39.4681C277.966 37.2025 277.231 35.0166 275.69 34.5858C274.149 34.1551 272.384 35.6426 271.749 37.9082C271.114 40.1738 271.849 42.3597 273.391 42.7905C274.932 43.2212 276.696 41.7337 277.331 39.4681Z" fill="#0C0C0C"/>
<path d="M250.471 149.34C250.695 149.263 250.899 149.138 251.069 148.973C251.238 148.808 251.369 148.608 251.452 148.386C251.534 148.165 251.567 147.928 251.546 147.692C251.526 147.457 251.454 147.229 251.334 147.024L252.381 148.812C252.585 149.178 252.922 149.454 253.322 149.582C253.722 149.711 254.156 149.683 254.537 149.505C254.73 149.406 254.901 149.268 255.039 149.101C255.177 148.934 255.28 148.74 255.34 148.532C255.401 148.324 255.419 148.106 255.392 147.89C255.366 147.675 255.296 147.468 255.186 147.281L255.659 148.09C255.844 148.418 256.137 148.673 256.488 148.811C256.839 148.949 257.227 148.961 257.586 148.846C257.81 148.77 258.014 148.644 258.184 148.479C258.353 148.314 258.484 148.114 258.567 147.892C258.649 147.671 258.682 147.434 258.661 147.198C258.641 146.963 258.569 146.735 258.449 146.53L257.62 145.113C257.833 145.479 258.184 145.744 258.594 145.852C259.003 145.959 259.439 145.9 259.805 145.687C260.644 145.269 260.588 144.119 260.168 143.4L258.609 140.5L259.639 141.314C259.974 141.568 260.393 141.686 260.811 141.643C261.229 141.601 261.616 141.401 261.892 141.085C262.029 140.917 262.131 140.723 262.19 140.514C262.25 140.306 262.266 140.087 262.238 139.872C262.21 139.657 262.138 139.45 262.028 139.264C261.917 139.077 261.769 138.915 261.594 138.787L252.219 132.883L245.454 133.359C244.474 134.625 243.895 136.155 243.791 137.753C243.687 139.351 244.063 140.943 244.872 142.325L248.544 148.582C248.729 148.91 249.021 149.166 249.372 149.304C249.723 149.442 250.112 149.455 250.471 149.34Z" fill="#E98862"/>
<path d="M256.564 143.341C256.56 143.306 256.568 143.271 256.588 143.242C256.607 143.213 256.636 143.191 256.669 143.181C256.703 143.171 256.739 143.172 256.771 143.186C256.803 143.199 256.83 143.224 256.846 143.255L257.879 145.219C257.888 145.237 257.894 145.256 257.896 145.276C257.897 145.295 257.895 145.315 257.889 145.334C257.884 145.353 257.874 145.37 257.861 145.385C257.849 145.4 257.833 145.413 257.816 145.422C257.798 145.431 257.779 145.437 257.76 145.439C257.74 145.44 257.72 145.438 257.701 145.432C257.682 145.427 257.665 145.417 257.65 145.404C257.635 145.392 257.622 145.376 257.613 145.359L256.58 143.394C256.572 143.377 256.566 143.359 256.564 143.341Z" fill="#E98862"/>
<path d="M253.781 144.804C253.778 144.769 253.786 144.735 253.806 144.706C253.825 144.677 253.853 144.655 253.887 144.645C253.92 144.635 253.956 144.636 253.988 144.649C254.02 144.662 254.047 144.686 254.063 144.717L255.501 147.401C255.511 147.419 255.517 147.438 255.519 147.457C255.52 147.477 255.519 147.497 255.513 147.515C255.507 147.534 255.498 147.552 255.485 147.567C255.473 147.582 255.457 147.595 255.44 147.604C255.423 147.614 255.404 147.619 255.384 147.621C255.364 147.623 255.344 147.621 255.326 147.616C255.307 147.61 255.289 147.601 255.274 147.588C255.259 147.576 255.246 147.56 255.237 147.543L253.798 144.858C253.789 144.841 253.784 144.823 253.781 144.804Z" fill="#E98862"/>
<path d="M250.759 146.371C250.755 146.336 250.764 146.301 250.783 146.272C250.803 146.242 250.832 146.221 250.866 146.211C250.899 146.201 250.936 146.203 250.968 146.217C251 146.231 251.027 146.256 251.042 146.287L251.692 147.571C251.71 147.606 251.713 147.648 251.701 147.685C251.688 147.723 251.661 147.754 251.626 147.772C251.59 147.79 251.549 147.794 251.511 147.781C251.473 147.769 251.442 147.742 251.424 147.706L250.774 146.422C250.766 146.406 250.761 146.389 250.759 146.371Z" fill="#E98862"/>
<path opacity="0.2" d="M256.564 143.341C256.56 143.306 256.568 143.271 256.588 143.242C256.607 143.213 256.636 143.191 256.669 143.181C256.703 143.171 256.739 143.172 256.771 143.186C256.803 143.199 256.83 143.224 256.846 143.255L257.879 145.219C257.888 145.237 257.894 145.256 257.896 145.276C257.897 145.295 257.895 145.315 257.889 145.334C257.884 145.353 257.874 145.37 257.861 145.385C257.849 145.4 257.833 145.413 257.816 145.422C257.798 145.431 257.779 145.437 257.76 145.439C257.74 145.44 257.72 145.438 257.701 145.432C257.682 145.427 257.665 145.417 257.65 145.404C257.635 145.392 257.622 145.376 257.613 145.359L256.58 143.394C256.572 143.377 256.566 143.359 256.564 143.341Z" fill="#0C0C0C"/>
<path opacity="0.2" d="M253.781 144.804C253.778 144.769 253.786 144.735 253.806 144.706C253.825 144.677 253.853 144.655 253.887 144.645C253.92 144.635 253.956 144.636 253.988 144.649C254.02 144.662 254.047 144.686 254.063 144.717L255.501 147.401C255.511 147.419 255.517 147.438 255.519 147.457C255.52 147.477 255.519 147.497 255.513 147.515C255.507 147.534 255.498 147.552 255.485 147.567C255.473 147.582 255.457 147.595 255.44 147.604C255.423 147.614 255.404 147.619 255.384 147.621C255.364 147.623 255.344 147.621 255.326 147.616C255.307 147.61 255.289 147.601 255.274 147.588C255.259 147.576 255.246 147.56 255.237 147.543L253.798 144.858C253.789 144.841 253.784 144.823 253.781 144.804Z" fill="#0C0C0C"/>
<path opacity="0.2" d="M250.759 146.371C250.755 146.336 250.764 146.301 250.783 146.272C250.803 146.242 250.832 146.221 250.866 146.211C250.899 146.201 250.936 146.203 250.968 146.217C251 146.231 251.027 146.256 251.042 146.287L251.692 147.571C251.71 147.606 251.713 147.648 251.701 147.685C251.688 147.723 251.661 147.754 251.626 147.772C251.59 147.79 251.549 147.794 251.511 147.781C251.473 147.769 251.442 147.742 251.424 147.706L250.774 146.422C250.766 146.406 250.761 146.389 250.759 146.371Z" fill="#0C0C0C"/>
<path d="M264.754 97.3371C264.754 97.3371 260.399 76.9498 255.459 78.6476C251.539 79.9944 222.088 104.229 221.194 105.108C219.225 107.043 218.107 109.68 218.085 112.439C218.063 115.197 219.139 117.851 221.077 119.817L244 146.008L257.229 133.625L239.833 114.853L264.754 97.3371Z" fill="#367CFF"/>
<path d="M252.885 106.167C252.85 106.167 252.816 106.154 252.79 106.13C252.764 106.106 252.749 106.073 252.746 106.038L252.163 97.9779C252.162 97.9596 252.164 97.9413 252.17 97.924C252.176 97.9066 252.185 97.8906 252.197 97.8767C252.209 97.8629 252.223 97.8515 252.24 97.8433C252.256 97.835 252.274 97.8301 252.292 97.8287C252.31 97.827 252.329 97.829 252.346 97.8346C252.364 97.8402 252.38 97.8492 252.394 97.8612C252.408 97.8731 252.42 97.8878 252.428 97.9042C252.436 97.9207 252.441 97.9386 252.442 97.957L253.024 106.017C253.025 106.036 253.023 106.054 253.018 106.071C253.012 106.089 253.003 106.105 252.991 106.119C252.979 106.133 252.964 106.144 252.948 106.152C252.932 106.16 252.914 106.165 252.896 106.167L252.885 106.167Z" fill="#0C0C0C"/>
<path d="M311.254 118.458H311.244C311.207 118.456 311.173 118.44 311.148 118.413C311.123 118.386 311.11 118.351 311.111 118.314L312.074 99.0093C312.078 98.9729 312.094 98.939 312.122 98.9145C312.149 98.89 312.184 98.8768 312.221 98.8775C312.239 98.8783 312.257 98.8828 312.274 98.8906C312.29 98.8984 312.305 98.9094 312.317 98.923C312.33 98.9366 312.339 98.9524 312.345 98.9696C312.352 98.9868 312.354 99.0051 312.353 99.0234L311.39 118.327C311.388 118.362 311.373 118.395 311.348 118.419C311.323 118.443 311.289 118.457 311.254 118.458Z" fill="#0C0C0C"/>
<path d="M389.168 309.772H78.3306C78.2566 309.772 78.1856 309.743 78.1333 309.69C78.081 309.638 78.0516 309.567 78.0516 309.493C78.0516 309.419 78.081 309.349 78.1333 309.296C78.1856 309.244 78.2566 309.215 78.3306 309.215H389.168C389.242 309.215 389.313 309.244 389.365 309.296C389.417 309.349 389.447 309.419 389.447 309.493C389.447 309.567 389.417 309.638 389.365 309.69C389.313 309.743 389.242 309.772 389.168 309.772Z" fill="#3F3F3F"/>
</g>
<defs>
<filter id="filter0_d_181_1621" x="0" y="275.486" width="453" height="79.781" filterUnits="userSpaceOnUse" color-interpolation-filters="sRGB">
<feFlood flood-opacity="0" result="BackgroundImageFix"/>
<feColorMatrix in="SourceAlpha" type="matrix" values="0 0 0 0 0 0 0 0 0 0 0 0 0 0 0 0 0 0 127 0" result="hardAlpha"/>
<feMorphology radius="6" operator="dilate" in="SourceAlpha" result="effect1_dropShadow_181_1621"/>
<feOffset dx="6" dy="5"/>
<feGaussianBlur stdDeviation="10"/>
<feComposite in2="hardAlpha" operator="out"/>
<feColorMatrix type="matrix" values="0 0 0 0 0 0 0 0 0 0 0 0 0 0 0 0 0 0 0.3 0"/>
<feBlend mode="normal" in2="BackgroundImageFix" result="effect1_dropShadow_181_1621"/>
<feBlend mode="normal" in="SourceGraphic" in2="effect1_dropShadow_181_1621" result="shape"/>
</filter>
<clipPath id="clip0_181_1621">
<rect width="327.297" height="309.158" fill="white" transform="translate(70.4747 0.614258)"/>
</clipPath>
</defs>
</svg>
