<svg width="701" height="391" viewBox="0 0 701 391" fill="none" xmlns="http://www.w3.org/2000/svg">
<g clip-path="url(#clip0_158_4132)">
<path d="M683.141 151.401L675.709 170.419L680.978 172.479L688.41 153.461L683.141 151.401Z" fill="#367CFF"/>
<path d="M218.915 104.764L214.701 108.539L228.32 123.751L232.534 119.975L218.915 104.764Z" fill="#0CBC8B"/>
<path d="M281.354 172.847L265.015 185.089L268.407 189.618L284.745 177.376L281.354 172.847Z" fill="#367CFF"/>
<path d="M470.324 32.3654L466.447 36.4864L481.314 50.4806L485.191 46.3596L470.324 32.3654Z" fill="#367CFF"/>
<path d="M362.223 36.9159L352.048 54.6196L356.952 57.4399L367.127 39.7362L362.223 36.9159Z" fill="#0CBC8B"/>
<path d="M509.966 188.311L505.182 191.331L516.077 208.6L520.861 205.58L509.966 188.311Z" fill="#0CBC8B"/>
<path d="M288.137 272.403L283.076 274.932L292.199 293.199L297.26 290.67L288.137 272.403Z" fill="#0CBC8B"/>
<path d="M214.1 224.339L208.238 243.898L213.656 245.523L219.518 225.963L214.1 224.339Z" fill="#367CFF"/>
<path d="M568.22 285.29L551.265 296.663L554.416 301.362L571.37 289.989L568.22 285.29Z" fill="#367CFF"/>
<path d="M570.759 0.0015372L560.585 17.7047L565.49 20.5249L575.663 2.82171L570.759 0.0015372Z" fill="#0CBC8B"/>
<path d="M5.26822 144.833L-0.000488281 146.893L7.43103 165.912L12.6997 163.852L5.26822 144.833Z" fill="#0CBC8B"/>
<path d="M552.195 121.337L548.804 125.867L565.142 138.109L568.534 133.579L552.195 121.337Z" fill="#0CBC8B"/>
<path d="M93.2535 37.903L78.3865 51.8972L82.2631 56.0182L97.1301 42.024L93.2535 37.903Z" fill="#367CFF"/>
<path d="M257.922 21.2382L253.018 24.0584L263.192 41.7621L268.097 38.9419L257.922 21.2382Z" fill="#367CFF"/>
<path d="M57.8891 243.517L46.9949 260.786L51.7789 263.806L62.6731 246.537L57.8891 243.517Z" fill="#0CBC8B"/>
<path d="M9.63532 290.822L6.48444 295.525L23.4481 306.899L26.599 302.196L9.63532 290.822Z" fill="#367CFF"/>
<path d="M664.106 65.3105L659.201 68.1307L669.375 85.8339L674.279 83.0137L664.106 65.3105Z" fill="#367CFF"/>
<path d="M451.566 113.556L437.947 128.767L442.161 132.542L455.78 117.331L451.566 113.556Z" fill="#367CFF"/>
<path d="M332.007 285.011L322.883 303.278L327.944 305.807L337.067 287.54L332.007 285.011Z" fill="#0CBC8B"/>
<path d="M406.047 236.948L400.629 238.573L406.491 258.133L411.909 256.508L406.047 236.948Z" fill="#367CFF"/>
<path d="M407.871 248.111L388.59 233.45C388.166 233.128 387.68 232.898 387.162 232.774C386.645 232.65 386.107 232.635 385.584 232.731C385.06 232.826 384.562 233.03 384.122 233.328C383.681 233.626 383.307 234.013 383.024 234.464C382.528 235.313 382.364 236.315 382.565 237.278C382.765 238.24 383.316 239.094 384.11 239.674L388.244 242.817L370.708 238.901C368.766 238.431 366.082 239.098 365.699 241.312C365.497 242.155 365.585 243.041 365.95 243.827C366.316 244.612 366.936 245.251 367.711 245.638C367.702 245.656 367.695 245.674 367.69 245.692C367.689 245.707 367.689 245.721 367.69 245.736L364.695 245.012C364.14 244.879 363.562 244.87 363.004 244.988C362.445 245.106 361.92 245.347 361.466 245.694C361.013 246.04 360.643 246.484 360.382 246.992C360.122 247.5 359.978 248.06 359.961 248.63C359.953 249.53 360.253 250.404 360.812 251.108C361.372 251.812 362.155 252.303 363.033 252.498L364.306 252.806C364.314 252.847 364.329 252.886 364.351 252.922C363.442 252.914 362.559 253.23 361.861 253.813C361.163 254.396 360.695 255.208 360.541 256.105C360.401 257.091 360.638 258.093 361.204 258.912C361.77 259.731 362.624 260.306 363.596 260.523L366.762 261.288C366.71 261.309 366.664 261.342 366.627 261.384C366.59 261.427 366.564 261.477 366.55 261.531C366.537 261.597 366.544 261.665 366.569 261.727C365.757 261.945 365.039 262.424 364.525 263.089C364.012 263.755 363.731 264.571 363.726 265.412C363.74 266.295 364.05 267.148 364.608 267.833C365.166 268.517 365.939 268.993 366.801 269.184L393.511 275.639C397.248 276.542 401.169 276.308 404.772 274.967C408.375 273.626 411.496 271.24 413.735 268.114C415.665 265.418 416.468 262.076 415.974 258.797C415.479 255.519 413.726 252.562 411.087 250.556L407.871 248.111Z" fill="#E98862"/>
<g opacity="0.2">
<path d="M385.05 249.601C385.028 249.691 384.971 249.768 384.893 249.817C384.814 249.865 384.72 249.881 384.629 249.861L367.956 246.112C367.91 246.101 367.868 246.082 367.83 246.056C367.792 246.029 367.759 245.995 367.734 245.956C367.71 245.916 367.693 245.873 367.685 245.827C367.677 245.781 367.678 245.734 367.688 245.689C367.699 245.643 367.718 245.601 367.744 245.563C367.771 245.525 367.805 245.492 367.844 245.467C367.884 245.443 367.928 245.426 367.973 245.418C368.019 245.41 368.066 245.411 368.111 245.421L384.784 249.17C384.83 249.18 384.873 249.199 384.911 249.226C384.949 249.253 384.981 249.287 385.006 249.327C385.031 249.366 385.048 249.41 385.056 249.456C385.063 249.502 385.062 249.549 385.052 249.595L385.05 249.601Z" fill="#0C0C0C"/>
</g>
<g opacity="0.2">
<path d="M383.601 257.002C383.579 257.093 383.522 257.171 383.442 257.219C383.363 257.268 383.268 257.283 383.177 257.262L364.569 253.082C364.524 253.072 364.481 253.052 364.443 253.026C364.405 252.999 364.372 252.965 364.348 252.925C364.323 252.886 364.306 252.842 364.298 252.796C364.29 252.75 364.292 252.703 364.302 252.657C364.326 252.567 364.383 252.489 364.461 252.44C364.54 252.39 364.635 252.372 364.726 252.39L383.334 256.57C383.379 256.58 383.422 256.6 383.461 256.626C383.499 256.653 383.531 256.687 383.556 256.727C383.581 256.766 383.598 256.81 383.605 256.856C383.613 256.902 383.612 256.949 383.601 256.995V257.002Z" fill="#0C0C0C"/>
</g>
<g opacity="0.2">
<path d="M382.079 265.028C382.057 265.118 382 265.195 381.921 265.243C381.843 265.292 381.748 265.308 381.658 265.287L366.815 261.953C366.724 261.933 366.644 261.876 366.594 261.797C366.544 261.718 366.527 261.622 366.548 261.53C366.568 261.439 366.624 261.359 366.703 261.309C366.783 261.259 366.879 261.242 366.97 261.263L381.813 264.597C381.859 264.607 381.902 264.626 381.94 264.653C381.978 264.68 382.01 264.714 382.035 264.753C382.06 264.793 382.077 264.837 382.085 264.883C382.093 264.929 382.091 264.976 382.081 265.021L382.079 265.028Z" fill="#0C0C0C"/>
</g>
<path d="M316.333 147.271L327.098 125.569C327.335 125.092 327.668 124.67 328.076 124.329C328.485 123.988 328.96 123.736 329.472 123.589C329.983 123.441 330.519 123.402 331.047 123.474C331.574 123.546 332.081 123.726 332.534 124.004C333.357 124.544 333.949 125.369 334.197 126.321C334.446 127.272 334.332 128.282 333.878 129.154L331.569 133.808L345.541 122.51C347.073 121.226 349.773 120.631 351.099 122.445C351.655 123.109 351.969 123.943 351.99 124.809C352.012 125.675 351.739 126.523 351.217 127.214C351.233 127.226 351.247 127.239 351.26 127.253C351.268 127.266 351.275 127.279 351.281 127.292L353.643 125.312C354.081 124.945 354.595 124.681 355.147 124.539C355.7 124.396 356.277 124.379 356.838 124.488C357.398 124.597 357.927 124.83 358.385 125.169C358.844 125.508 359.222 125.946 359.49 126.45C359.897 127.252 360.016 128.169 359.828 129.048C359.639 129.927 359.155 130.715 358.456 131.28L357.45 132.122C357.461 132.163 357.465 132.205 357.461 132.246C358.272 131.835 359.203 131.725 360.087 131.938C360.971 132.15 361.751 132.669 362.288 133.404C362.85 134.225 363.083 135.229 362.939 136.214C362.795 137.2 362.284 138.094 361.51 138.72L359.013 140.811C359.069 140.806 359.126 140.815 359.178 140.836C359.23 140.858 359.276 140.891 359.313 140.934C359.353 140.988 359.378 141.052 359.383 141.119C360.207 140.953 361.063 141.063 361.819 141.431C362.575 141.799 363.189 142.405 363.566 143.157C363.946 143.954 364.047 144.856 363.851 145.717C363.655 146.579 363.174 147.348 362.486 147.902L341.421 165.553C338.475 168.022 334.858 169.555 331.034 169.955C327.211 170.354 323.355 169.603 319.962 167.796C317.036 166.238 314.833 163.601 313.82 160.445C312.807 157.288 313.064 153.861 314.537 150.891L316.333 147.271Z" fill="#E98862"/>
<g opacity="0.2">
<path d="M337.441 138.466C337.501 138.537 337.586 138.582 337.679 138.59C337.772 138.599 337.864 138.571 337.936 138.512L351.211 127.748C351.284 127.688 351.331 127.603 351.34 127.51C351.35 127.416 351.322 127.323 351.263 127.25C351.204 127.177 351.119 127.131 351.025 127.121C350.932 127.111 350.839 127.139 350.766 127.198L337.491 137.962C337.418 138.021 337.372 138.106 337.363 138.199C337.353 138.292 337.38 138.385 337.438 138.457L337.441 138.466Z" fill="#0C0C0C"/>
</g>
<g opacity="0.2">
<path d="M342.025 144.454C342.085 144.525 342.171 144.57 342.263 144.578C342.356 144.587 342.448 144.558 342.52 144.499L357.336 132.487C357.408 132.428 357.454 132.342 357.463 132.25C357.473 132.157 357.446 132.064 357.387 131.992C357.327 131.922 357.242 131.878 357.15 131.868C357.058 131.858 356.966 131.884 356.892 131.939L342.072 143.95C342 144.009 341.954 144.094 341.944 144.187C341.934 144.279 341.961 144.372 342.02 144.445L342.025 144.454Z" fill="#0C0C0C"/>
</g>
<g opacity="0.2">
<path d="M346.953 150.967C347.013 151.038 347.098 151.083 347.191 151.092C347.284 151.1 347.376 151.072 347.448 151.013L359.266 141.431C359.339 141.372 359.385 141.286 359.395 141.193C359.405 141.1 359.377 141.006 359.318 140.933C359.259 140.86 359.173 140.814 359.08 140.804C358.987 140.795 358.893 140.822 358.821 140.881L347 150.464C346.928 150.522 346.882 150.608 346.872 150.7C346.862 150.793 346.889 150.886 346.947 150.959L346.953 150.967Z" fill="#0C0C0C"/>
</g>
<path d="M74.7416 128.664C74.7416 128.664 73.2234 151.45 68.099 159.715C53.3444 183.516 49.0699 210.29 63.845 224.278C78.6201 238.267 172.86 238.461 180 206.287C186.01 179.2 173.112 176.287 169.973 153.945C168.553 143.834 164.646 122.634 164.646 122.634" fill="#0A0A0A"/>
<path d="M155.61 201.57C155.447 201.549 153.642 231.512 118.844 228.9C94.7542 227.094 86.1649 201.526 85.6134 201.526C88.2106 200.974 92.5841 200.171 93.7374 199.555C97.531 197.517 102.223 195.395 103.447 188.026C104.155 183.782 102.956 162.051 103.324 157.752L140.302 166.011C139.785 175.086 136.169 196.125 148.844 199.849C150.953 200.466 153.225 201.033 155.61 201.57Z" fill="#E98862"/>
<path opacity="0.5" d="M140.82 191.252C140.241 189.385 139.868 187.46 139.708 185.511C139.302 181.065 139.383 176.587 139.95 172.159C132.435 171.144 125.355 168.041 119.514 163.202C118.828 165.738 115.051 176.822 116.097 179.233C118.072 183.79 127.358 191.252 140.82 191.252Z" fill="#0C0C0C"/>
<path d="M136.039 181.917C121.46 183.332 102.597 177.495 98.6893 158.074L95.1637 140.55C91.2562 121.13 98.2856 103.333 116.565 99.6531C134.845 95.975 151.676 108.965 155.583 128.386L157.145 136.144C158.644 143.596 162.05 179.399 136.039 181.917Z" fill="#E98862"/>
<path opacity="0.1" d="M126.772 156.468C129.171 156.181 130.945 154.522 130.735 152.762C130.525 151.002 128.41 149.807 126.011 150.093C123.612 150.379 121.837 152.039 122.047 153.799C122.257 155.559 124.372 156.754 126.772 156.468Z" fill="#0C0C0C"/>
<path opacity="0.1" d="M152.123 149.43C152.335 151.188 154.453 152.381 156.852 152.098C157.267 152.048 157.675 151.956 158.07 151.822C158.182 149.726 158.188 147.71 158.128 145.843C157.461 145.676 156.77 145.636 156.088 145.724C153.689 146.007 151.915 147.665 152.123 149.43Z" fill="#0C0C0C"/>
<path opacity="0.5" d="M141.522 154.863C141.534 154.862 141.546 154.86 141.557 154.857C142.298 154.703 143.03 154.508 143.749 154.272C144.823 153.913 146.224 153.323 146.032 152.352C145.81 151.246 140.375 139.916 139.758 138.63C139.733 138.572 139.696 138.519 139.65 138.476C139.604 138.432 139.55 138.398 139.491 138.376C139.432 138.354 139.368 138.344 139.305 138.347C139.242 138.35 139.18 138.366 139.123 138.393C139.066 138.421 139.015 138.459 138.973 138.507C138.931 138.554 138.899 138.61 138.879 138.67C138.86 138.73 138.852 138.794 138.857 138.857C138.862 138.92 138.88 138.981 138.91 139.037C141.227 143.862 144.959 151.795 145.109 152.54C144.992 152.887 143.211 153.565 141.373 153.936C141.312 153.946 141.254 153.967 141.201 154C141.149 154.032 141.103 154.075 141.067 154.125C141.031 154.175 141.005 154.232 140.991 154.292C140.977 154.352 140.974 154.414 140.984 154.475C140.994 154.536 141.016 154.595 141.048 154.647C141.081 154.7 141.123 154.745 141.173 154.782C141.223 154.818 141.28 154.844 141.34 154.858C141.4 154.872 141.462 154.874 141.523 154.865L141.522 154.863Z" fill="#0C0C0C"/>
<path d="M80.5781 146.842L96.9661 143.64C109.345 138.462 112.858 116.88 112.858 116.88C112.858 116.88 128.136 131.435 164.649 122.634C164.649 122.634 156.718 71.6449 102.802 87.1255C85.4176 92.1158 73.1032 109.841 74.9346 133.319C76.2181 149.767 80.5781 146.842 80.5781 146.842Z" fill="#0A0A0A"/>
<path d="M101.015 163.762C95.4599 164.88 89.7606 159.842 88.6405 154.284C87.5205 148.726 91.4096 144.756 96.9647 143.637L100.577 146.785L105.79 162.799L101.015 163.762Z" fill="#E98862"/>
<path d="M143.696 129.595C145.086 128.612 146.711 128.015 148.407 127.864C149.259 127.782 150.118 127.83 150.956 128.005C151.801 128.177 152.621 128.455 153.396 128.831L153.42 128.843C153.506 128.88 153.604 128.883 153.692 128.85C153.78 128.817 153.851 128.751 153.891 128.666C153.931 128.581 153.937 128.484 153.906 128.395C153.875 128.306 153.811 128.233 153.727 128.191C152.905 127.757 152.031 127.428 151.127 127.212C150.217 126.991 149.278 126.907 148.343 126.965C146.449 127.07 144.618 127.681 143.04 128.734C142.981 128.773 142.931 128.825 142.892 128.884C142.853 128.943 142.826 129.01 142.812 129.08C142.799 129.149 142.8 129.221 142.814 129.291C142.828 129.36 142.856 129.426 142.896 129.485C142.936 129.544 142.988 129.594 143.047 129.633C143.107 129.672 143.173 129.699 143.243 129.712C143.313 129.725 143.384 129.724 143.454 129.71C143.524 129.695 143.59 129.667 143.648 129.627L143.661 129.618L143.696 129.595Z" fill="#0C0C0C"/>
<path d="M128.726 131.665C126.865 131.294 124.939 131.43 123.148 132.059C122.263 132.364 121.429 132.8 120.673 133.352C119.921 133.898 119.24 134.536 118.647 135.252C118.587 135.324 118.557 135.415 118.563 135.508C118.569 135.601 118.611 135.688 118.68 135.75C118.749 135.813 118.839 135.847 118.932 135.844C119.025 135.842 119.113 135.803 119.179 135.737L119.198 135.717C119.77 135.072 120.421 134.502 121.135 134.019C121.842 133.537 122.618 133.164 123.436 132.914C125.06 132.404 126.791 132.333 128.451 132.709L128.492 132.719C128.631 132.753 128.778 132.73 128.901 132.655C129.023 132.581 129.111 132.461 129.145 132.321C129.178 132.182 129.155 132.035 129.081 131.912C129.006 131.79 128.886 131.702 128.746 131.668L128.726 131.665Z" fill="#0C0C0C"/>
<path d="M96.9774 143.37C107.993 139.267 111.649 131.658 112.775 125.995C113.504 122.218 113.435 118.331 112.575 114.582L112.234 114.676C113.082 118.376 113.147 122.212 112.426 125.939C111.315 131.509 107.711 138.997 96.8536 143.039L96.9774 143.37Z" fill="#0C0C0C"/>
<path d="M183.95 205.135L288.551 240.11L257.84 253.765L309.997 146.732L352.624 166.603L304.232 275.391C301.784 280.892 297.44 285.329 291.992 287.89C286.544 290.452 280.357 290.967 274.561 289.342L273.52 289.047L167.336 259.226L183.95 205.135Z" fill="#367CFF"/>
<path d="M118.195 221.41C94.0882 220.273 93.0735 199.806 93.0735 199.806C93.0735 199.806 81.129 200.578 73.1888 201.652C60.1893 203.411 51.6135 207.821 44.7884 214.647C38.44 220.999 34.5749 227.87 38.6649 271.737C41.6262 303.5 39.5424 373.366 39.5424 373.366H186.445C186.445 373.366 196.703 272.429 197.919 258.133C200.24 230.838 206.797 224.813 193.512 210.752C183.877 200.555 159.005 199.806 148.993 199.807C148.83 199.807 151.025 222.958 118.195 221.41Z" fill="#367CFF"/>
<path d="M146.409 158.691C141.672 161.101 136.268 161.862 131.05 160.856C130.869 160.822 130.682 160.841 130.512 160.909C130.341 160.977 130.193 161.093 130.086 161.242C129.978 161.391 129.915 161.567 129.904 161.751C129.893 161.934 129.935 162.117 130.024 162.278C131.579 165.02 135.269 169.705 141.599 167.795C145.686 166.562 147.231 162.356 147.804 159.754C147.843 159.574 147.83 159.386 147.766 159.213C147.703 159.041 147.591 158.889 147.445 158.778C147.298 158.666 147.123 158.599 146.939 158.584C146.756 158.568 146.572 158.606 146.409 158.691Z" fill="white"/>
<path d="M146.705 137.618C147.969 137.618 148.994 136.593 148.994 135.329C148.994 134.064 147.969 133.039 146.705 133.039C145.441 133.039 144.416 134.064 144.416 135.329C144.416 136.593 145.441 137.618 146.705 137.618Z" fill="#0C0C0C"/>
<path d="M124.711 141.47C125.975 141.47 127 140.445 127 139.18C127 137.916 125.975 136.891 124.711 136.891C123.447 136.891 122.422 137.916 122.422 139.18C122.422 140.445 123.447 141.47 124.711 141.47Z" fill="#0C0C0C"/>
<path d="M197.592 268.079C197.577 268.08 197.563 268.08 197.548 268.079C197.455 268.067 197.37 268.019 197.313 267.945C197.255 267.871 197.229 267.778 197.241 267.685L199.516 249.239C199.52 249.192 199.535 249.148 199.557 249.107C199.58 249.066 199.61 249.03 199.647 249.001C199.684 248.973 199.726 248.952 199.771 248.94C199.816 248.928 199.863 248.925 199.909 248.932C199.956 248.938 200 248.952 200.041 248.975C200.081 248.998 200.116 249.029 200.145 249.065C200.174 249.102 200.195 249.144 200.207 249.189C200.219 249.234 200.223 249.28 200.217 249.327L197.942 267.772C197.931 267.856 197.889 267.934 197.825 267.991C197.761 268.047 197.678 268.078 197.592 268.079Z" fill="#0C0C0C"/>
<path d="M569.436 125.748C569.436 125.748 560.674 115.904 561.69 97.4689C562.477 83.1949 573.484 94.7386 573.484 94.7386C573.484 94.7386 574.151 84.466 581.239 86.9119C588.327 89.3579 590.317 100.685 590.317 100.685" fill="#0C0C0C"/>
<path d="M618.684 95.5951C618.684 95.5951 654.078 106.685 631.235 153.101L627.992 152.677L621.409 151.817" fill="#0C0C0C"/>
<path d="M568.334 201.495C568.497 201.474 570.296 231.338 604.978 228.735C628.988 226.935 637.549 201.454 638.099 201.454C635.51 200.903 631.151 200.103 630.001 199.489C626.22 197.456 621.543 195.342 620.324 187.998C619.621 183.765 620.813 162.11 620.447 157.826L583.591 166.055C584.106 175.1 587.71 196.069 575.077 199.781C572.975 200.395 570.709 200.959 568.334 201.495Z" fill="#E98862"/>
<path opacity="0.52" d="M583.074 191.211C583.651 189.35 584.023 187.431 584.182 185.489C584.588 181.058 584.508 176.595 583.942 172.181C591.433 171.17 598.49 168.077 604.312 163.254C604.996 165.782 608.76 176.829 607.717 179.232C605.748 183.774 596.491 191.211 583.074 191.211Z" fill="#0C0C0C"/>
<path d="M587.494 181.098C602.008 182.662 620.869 177.052 624.976 157.739L628.679 140.313C632.78 121.002 625.97 103.187 607.791 99.3213C589.612 95.4558 572.698 108.223 568.593 127.536L566.954 135.251C566.437 137.91 566.102 140.6 565.951 143.305C565.499 150.449 564.84 161.317 568.136 169.414C571.247 177.059 578.221 180.099 587.494 181.098Z" fill="#E98862"/>
<path d="M575.964 136.606C577.229 136.606 578.253 135.58 578.253 134.316C578.253 133.051 577.229 132.026 575.964 132.026C574.7 132.026 573.676 133.051 573.676 134.316C573.676 135.58 574.7 136.606 575.964 136.606Z" fill="#0C0C0C"/>
<path d="M597.704 138.895C598.968 138.895 599.993 137.87 599.993 136.605C599.993 135.341 598.968 134.316 597.704 134.316C596.44 134.316 595.415 135.341 595.415 136.605C595.415 137.87 596.44 138.895 597.704 138.895Z" fill="#0C0C0C"/>
<path d="M622.596 163.383C628.12 164.558 633.855 159.598 635.029 154.072C636.204 148.545 632.373 144.546 626.849 143.371L623.215 146.469L617.846 162.373L622.596 163.383Z" fill="#E98862"/>
<path d="M618.863 153.382C618.863 153.382 622.453 125.611 614.484 122.264C609.181 120.034 594.201 125.208 582.249 120.36C577.02 118.238 571.592 118.557 570.555 121.02C570.144 121.996 569.67 106.707 580.392 97.314C588.929 89.8346 611.603 91.7635 621.116 96.671C647.455 110.258 627.754 144.806 627.754 144.806L624.626 154.001L618.863 153.382Z" fill="#0C0C0C"/>
<g opacity="0.52">
<path d="M581.919 155.369L581.883 155.363C580.102 154.989 577.156 154.161 577.434 152.83C577.666 151.726 583.189 140.439 583.819 139.155C583.873 139.045 583.969 138.961 584.085 138.921C584.201 138.881 584.329 138.889 584.439 138.943C584.55 138.997 584.634 139.093 584.674 139.209C584.713 139.326 584.705 139.453 584.651 139.564C582.201 144.562 578.499 152.27 578.341 153.021C578.451 153.374 580.229 154.068 582.072 154.455C582.188 154.481 582.29 154.55 582.356 154.649C582.422 154.747 582.448 154.868 582.429 154.985C582.409 155.102 582.345 155.207 582.25 155.278C582.156 155.35 582.037 155.382 581.919 155.369Z" fill="#0C0C0C"/>
</g>
<path d="M581.508 127.153C579.758 126.27 577.802 125.875 575.846 126.01C574.885 126.07 573.939 126.275 573.038 126.616C572.148 126.949 571.302 127.394 570.523 127.94C570.393 128.023 570.3 128.154 570.266 128.304C570.231 128.455 570.257 128.613 570.338 128.745C570.419 128.877 570.548 128.971 570.698 129.008C570.849 129.045 571.007 129.021 571.14 128.942L571.181 128.919C571.896 128.476 572.663 128.124 573.466 127.872C574.256 127.619 575.081 127.488 575.911 127.482C577.552 127.458 579.171 127.868 580.602 128.671L580.656 128.703C580.756 128.763 580.867 128.802 580.983 128.819C581.098 128.835 581.216 128.829 581.329 128.8C581.442 128.771 581.548 128.72 581.641 128.65C581.734 128.579 581.813 128.491 581.872 128.391C581.931 128.29 581.969 128.179 581.985 128.063C582.001 127.947 581.994 127.83 581.964 127.717C581.934 127.604 581.883 127.498 581.812 127.406C581.741 127.313 581.652 127.235 581.551 127.177L581.508 127.153Z" fill="#0C0C0C"/>
<path d="M594.596 130.692C596.186 130.284 597.855 130.303 599.436 130.748C600.236 130.967 600.999 131.306 601.698 131.753C602.409 132.203 603.06 132.74 603.637 133.352L603.669 133.384C603.778 133.49 603.924 133.55 604.075 133.551C604.227 133.551 604.374 133.494 604.484 133.389C604.594 133.285 604.66 133.142 604.667 132.99C604.675 132.839 604.623 132.69 604.524 132.575C603.911 131.848 603.209 131.201 602.434 130.649C601.651 130.088 600.789 129.648 599.875 129.342C598.02 128.708 596.029 128.586 594.11 128.988C593.997 129.013 593.889 129.06 593.794 129.126C593.698 129.193 593.617 129.277 593.554 129.375C593.427 129.572 593.384 129.812 593.434 130.041C593.484 130.271 593.623 130.471 593.821 130.598C594.018 130.725 594.258 130.768 594.487 130.718L594.532 130.706L594.596 130.692Z" fill="#0C0C0C"/>
<path d="M579.118 159.653C584.274 160.942 589.711 160.475 594.572 158.326C594.74 158.253 594.926 158.229 595.108 158.257C595.29 158.285 595.459 158.365 595.598 158.486C595.736 158.607 595.837 158.765 595.888 158.941C595.94 159.118 595.941 159.305 595.89 159.482C594.986 162.503 592.439 167.899 585.843 167.452C581.583 167.165 579.136 163.411 577.994 161.003C577.915 160.837 577.885 160.65 577.908 160.467C577.931 160.284 578.007 160.111 578.125 159.969C578.243 159.827 578.399 159.722 578.575 159.666C578.751 159.61 578.94 159.606 579.118 159.653Z" fill="white"/>
<path d="M599.576 101.271C602.039 95.4861 600.851 89.4396 596.922 87.7654C592.994 86.0912 587.812 89.4233 585.348 95.2078C582.885 100.992 584.073 107.039 588.002 108.713C591.93 110.387 597.112 107.055 599.576 101.271Z" fill="#0C0C0C"/>
<path d="M605.517 221.41C629.624 220.273 630.638 199.806 630.638 199.806C630.638 199.806 642.583 200.578 650.524 201.652C663.523 203.411 672.099 207.821 678.923 214.647C685.272 220.999 689.137 227.87 685.047 271.737C682.086 303.5 684.17 373.366 684.17 373.366H537.268C537.268 373.366 527.01 272.432 525.794 258.133C523.472 230.838 516.916 224.813 530.2 210.752C539.835 200.555 564.707 199.806 574.719 199.807C574.881 199.807 572.689 222.958 605.517 221.41Z" fill="#367CFF"/>
<path d="M525.446 217.074L487.465 297.619L412.565 241.276L382.815 280.848L481.995 355.454C482.883 356.114 483.81 356.719 484.771 357.265C487.605 358.853 490.724 359.868 493.95 360.25C497.175 360.633 500.445 360.376 503.571 359.495C506.698 358.613 509.62 357.124 512.172 355.113C514.723 353.102 516.853 350.608 518.441 347.773L518.871 347.007L576.816 243.546L525.446 217.074Z" fill="#367CFF"/>
<path d="M689.807 374.073H20.8209C20.6333 374.073 20.4535 373.998 20.3209 373.866C20.1883 373.733 20.1138 373.553 20.1138 373.366C20.1138 373.178 20.1883 372.998 20.3209 372.865C20.4535 372.733 20.6333 372.658 20.8209 372.658H689.807C689.994 372.658 690.174 372.733 690.307 372.865C690.439 372.998 690.514 373.178 690.514 373.366C690.514 373.553 690.439 373.733 690.307 373.866C690.174 373.998 689.994 374.073 689.807 374.073Z" fill="#292A2E"/>
<path d="M544.297 268.156H186.061V390.646H544.297V268.156Z" fill="white"/>
<path d="M544.65 391H185.708V267.803H544.65V391ZM186.415 390.293H543.943V268.51H186.415V390.293Z" fill="#0C0C0C"/>
<path d="M168.372 305.591L190.486 295.712C190.972 295.495 191.497 295.381 192.03 295.379C192.562 295.376 193.089 295.485 193.577 295.697C194.065 295.909 194.503 296.221 194.864 296.612C195.225 297.003 195.501 297.465 195.674 297.968C195.964 298.908 195.895 299.921 195.481 300.813C195.066 301.704 194.335 302.41 193.43 302.793L188.688 304.915L206.657 305.1C208.655 305.085 211.116 306.347 210.984 308.59C210.99 309.456 210.702 310.299 210.167 310.981C209.632 311.662 208.883 312.143 208.04 312.343C208.045 312.362 208.048 312.381 208.048 312.401C208.046 312.415 208.043 312.43 208.039 312.444L211.121 312.422C211.691 312.418 212.255 312.542 212.771 312.784C213.288 313.026 213.744 313.38 214.106 313.82C214.469 314.26 214.729 314.776 214.867 315.33C215.005 315.883 215.018 316.46 214.905 317.02C214.709 317.897 214.217 318.68 213.512 319.239C212.807 319.797 211.932 320.096 211.033 320.086L209.722 320.095C209.705 320.133 209.681 320.168 209.651 320.198C210.538 320.397 211.326 320.905 211.873 321.632C212.419 322.359 212.69 323.256 212.636 324.164C212.548 325.156 212.09 326.079 211.352 326.748C210.614 327.416 209.651 327.782 208.656 327.772L205.399 327.795C205.444 327.827 205.482 327.869 205.509 327.918C205.535 327.967 205.55 328.022 205.551 328.078C205.549 328.145 205.526 328.209 205.488 328.264C206.229 328.661 206.819 329.291 207.167 330.056C207.516 330.821 207.603 331.68 207.416 332.499C207.202 333.356 206.705 334.116 206.006 334.655C205.307 335.194 204.446 335.481 203.564 335.47L176.085 335.666C172.242 335.694 168.477 334.572 165.275 332.446C162.072 330.319 159.577 327.285 158.11 323.731C156.845 320.666 156.824 317.229 158.052 314.149C159.28 311.07 161.66 308.59 164.686 307.238L168.372 305.591Z" fill="#E98862"/>
<g opacity="0.2">
<path d="M190.253 312.245C190.254 312.338 190.292 312.427 190.358 312.492C190.425 312.557 190.514 312.594 190.607 312.594L207.695 312.747C207.788 312.748 207.879 312.712 207.946 312.646C208.013 312.58 208.051 312.491 208.051 312.397C208.052 312.303 208.016 312.213 207.95 312.146C207.884 312.079 207.795 312.041 207.701 312.04L190.613 311.886C190.519 311.886 190.429 311.923 190.363 311.989C190.297 312.056 190.259 312.146 190.259 312.239L190.253 312.245Z" fill="#0C0C0C"/>
</g>
<g opacity="0.2">
<path d="M189.977 319.784C189.979 319.877 190.016 319.966 190.083 320.031C190.149 320.097 190.238 320.133 190.331 320.133L209.401 320.305C209.495 320.305 209.585 320.268 209.651 320.201C209.717 320.135 209.754 320.045 209.754 319.951C209.751 319.859 209.713 319.77 209.647 319.705C209.582 319.639 209.494 319.601 209.401 319.598L190.331 319.426C190.284 319.425 190.238 319.434 190.194 319.452C190.151 319.469 190.112 319.495 190.079 319.528C190.045 319.561 190.019 319.6 190.001 319.643C189.983 319.686 189.974 319.733 189.974 319.78L189.977 319.784Z" fill="#0C0C0C"/>
</g>
<g opacity="0.2">
<path d="M189.632 327.943C189.633 328.036 189.671 328.124 189.737 328.19C189.803 328.255 189.892 328.292 189.985 328.292L205.197 328.429C205.291 328.43 205.381 328.393 205.448 328.327C205.515 328.262 205.553 328.172 205.554 328.078C205.555 327.984 205.518 327.894 205.453 327.827C205.387 327.76 205.297 327.722 205.204 327.721L189.991 327.584C189.898 327.584 189.808 327.621 189.741 327.688C189.675 327.754 189.638 327.844 189.638 327.938L189.632 327.943Z" fill="#0C0C0C"/>
</g>
<path d="M174.702 344.978L52.0978 372.857C48.0249 373.3 43.9046 372.794 40.0603 371.377C36.216 369.96 32.7522 367.671 29.9408 364.69C27.1293 361.709 25.0466 358.117 23.8562 354.195C22.6657 350.274 22.3998 346.13 23.0794 342.088L37.1099 229.198C38.2768 222.261 42.1508 216.071 47.8799 211.991C53.6089 207.911 60.7236 206.274 67.6589 207.442C74.5941 208.609 80.7817 212.484 84.8606 218.215C88.9395 223.946 90.5754 231.063 89.4085 238L82.6521 318.802L167.833 299.519L174.702 344.978Z" fill="#367CFF"/>
<path d="M65.4149 321.977C65.3261 321.977 65.2408 321.942 65.176 321.882C65.1112 321.821 65.0717 321.738 65.0652 321.649C65.0587 321.561 65.0857 321.473 65.1409 321.404C65.1962 321.334 65.2755 321.288 65.3632 321.274L82.4477 317.625C82.4937 317.618 82.5407 317.619 82.5859 317.63C82.6312 317.641 82.6738 317.661 82.7112 317.689C82.7487 317.716 82.7802 317.751 82.8039 317.791C82.8276 317.832 82.8431 317.876 82.8494 317.922C82.8632 318.015 82.8396 318.109 82.784 318.184C82.7283 318.26 82.645 318.31 82.5524 318.324L65.4679 321.973C65.4503 321.976 65.4326 321.977 65.4149 321.977Z" fill="#0C0C0C"/>
<path d="M55.7762 373.366C55.6824 373.372 55.5901 373.34 55.5195 373.278C55.4489 373.216 55.4058 373.129 55.3997 373.035C55.3936 372.941 55.425 372.849 55.487 372.778C55.549 372.707 55.6365 372.664 55.7303 372.658L173.932 344.81L167.235 300.036L82.5616 318.32C82.5068 318.327 82.4512 318.321 82.3991 318.303C82.347 318.285 82.2997 318.255 82.2611 318.216C82.2225 318.176 82.1938 318.127 82.1773 318.074C82.1609 318.022 82.1571 317.965 82.1663 317.911L86.916 271.743C86.923 271.697 86.9393 271.653 86.9638 271.613C86.9882 271.574 87.0204 271.539 87.0584 271.512C87.0963 271.485 87.1393 271.466 87.1848 271.456C87.2303 271.446 87.2774 271.445 87.3233 271.453C87.4157 271.469 87.4982 271.52 87.5526 271.597C87.6069 271.673 87.6287 271.768 87.6132 271.861L82.9462 317.554L167.399 299.256C167.445 299.243 167.492 299.24 167.539 299.246C167.586 299.252 167.631 299.267 167.672 299.291C167.712 299.315 167.748 299.347 167.776 299.384C167.804 299.422 167.825 299.465 167.836 299.511L174.704 344.973C174.726 345.063 174.712 345.157 174.666 345.236C174.619 345.315 174.543 345.373 174.455 345.398L55.8222 373.363C55.8069 373.365 55.7916 373.366 55.7762 373.366Z" fill="#0C0C0C"/>
<path d="M555.339 326.811L533.226 316.932C532.74 316.715 532.214 316.601 531.682 316.599C531.15 316.596 530.623 316.705 530.135 316.917C529.647 317.129 529.209 317.441 528.848 317.832C528.487 318.223 528.211 318.685 528.039 319.188C527.748 320.128 527.817 321.141 528.232 322.033C528.646 322.924 529.377 323.63 530.282 324.013L535.024 326.135L517.055 326.32C515.057 326.305 512.596 327.567 512.728 329.809C512.722 330.676 513.01 331.519 513.545 332.201C514.08 332.883 514.83 333.363 515.673 333.563C515.668 333.582 515.664 333.601 515.663 333.621C515.666 333.635 515.669 333.65 515.673 333.664L512.592 333.642C512.021 333.638 511.457 333.762 510.941 334.003C510.424 334.245 509.968 334.599 509.605 335.04C509.243 335.48 508.983 335.996 508.845 336.549C508.707 337.103 508.694 337.68 508.807 338.239C509.003 339.117 509.495 339.9 510.2 340.458C510.905 341.016 511.78 341.316 512.679 341.306L513.99 341.315C514.008 341.353 514.032 341.388 514.061 341.417C513.174 341.617 512.387 342.125 511.84 342.852C511.293 343.579 511.022 344.476 511.076 345.384C511.164 346.376 511.623 347.299 512.361 347.968C513.099 348.636 514.062 349.002 515.057 348.992L518.314 349.015C518.268 349.047 518.231 349.089 518.204 349.138C518.178 349.187 518.163 349.242 518.162 349.298C518.164 349.365 518.186 349.429 518.225 349.484C517.484 349.881 516.894 350.511 516.545 351.276C516.197 352.041 516.109 352.9 516.296 353.719C516.51 354.576 517.007 355.336 517.707 355.875C518.406 356.414 519.267 356.701 520.149 356.69L547.628 356.886C551.472 356.913 555.236 355.792 558.439 353.665C561.642 351.538 564.136 348.503 565.603 344.948C566.868 341.884 566.889 338.447 565.661 335.367C564.433 332.287 562.053 329.808 559.027 328.456L555.339 326.811Z" fill="#E98862"/>
<g opacity="0.2">
<path d="M533.459 333.465C533.457 333.558 533.419 333.647 533.353 333.712C533.287 333.777 533.198 333.814 533.105 333.814L516.017 333.967C515.971 333.968 515.925 333.959 515.881 333.941C515.838 333.924 515.799 333.898 515.766 333.866C515.733 333.833 515.707 333.795 515.688 333.752C515.67 333.709 515.661 333.663 515.66 333.617C515.66 333.57 515.669 333.524 515.686 333.481C515.703 333.438 515.729 333.399 515.762 333.366C515.794 333.333 515.833 333.306 515.876 333.288C515.918 333.27 515.964 333.26 516.011 333.26L533.099 333.106C533.192 333.106 533.282 333.143 533.349 333.209C533.415 333.276 533.452 333.366 533.452 333.459L533.459 333.465Z" fill="#0C0C0C"/>
</g>
<g opacity="0.2">
<path d="M533.734 341.004C533.733 341.097 533.696 341.185 533.63 341.25C533.565 341.315 533.477 341.352 533.384 341.353L514.314 341.525C514.22 341.525 514.13 341.488 514.064 341.421C513.997 341.355 513.96 341.265 513.96 341.171C513.963 341.079 514.001 340.99 514.067 340.925C514.133 340.859 514.221 340.821 514.314 340.818L533.384 340.646C533.477 340.646 533.567 340.683 533.634 340.749C533.7 340.816 533.737 340.906 533.737 340.999L533.734 341.004Z" fill="#0C0C0C"/>
</g>
<g opacity="0.2">
<path d="M534.081 349.163C534.08 349.256 534.042 349.344 533.976 349.41C533.909 349.475 533.82 349.512 533.727 349.512L518.515 349.649C518.469 349.649 518.423 349.64 518.38 349.623C518.337 349.606 518.297 349.58 518.264 349.547C518.231 349.515 518.205 349.476 518.187 349.433C518.168 349.391 518.159 349.345 518.158 349.298C518.158 349.252 518.167 349.206 518.184 349.163C518.202 349.12 518.227 349.08 518.26 349.047C518.292 349.014 518.331 348.988 518.374 348.97C518.417 348.951 518.462 348.942 518.509 348.941L533.721 348.804C533.815 348.804 533.905 348.841 533.971 348.908C534.037 348.974 534.074 349.064 534.074 349.158L534.081 349.163Z" fill="#0C0C0C"/>
</g>
<path d="M556.081 366.197L671.614 372.857C675.687 373.3 679.807 372.794 683.651 371.377C687.496 369.96 690.96 367.671 693.771 364.69C696.582 361.709 698.665 358.117 699.856 354.195C701.046 350.274 701.312 346.13 700.632 342.088L686.605 229.194C686.027 225.759 684.778 222.472 682.931 219.519C681.083 216.567 678.671 214.008 675.835 211.987C672.998 209.967 669.791 208.526 666.398 207.745C663.004 206.964 659.49 206.86 656.056 207.438C652.622 208.016 649.335 209.265 646.384 211.113C643.432 212.962 640.874 215.374 638.854 218.211C636.834 221.049 635.393 224.257 634.613 227.651C633.833 231.046 633.728 234.561 634.306 237.996L641.062 323.75L556.588 320.735L556.081 366.197Z" fill="#367CFF"/>
<path d="M658.297 323.392C658.386 323.391 658.471 323.357 658.536 323.297C658.601 323.236 658.641 323.153 658.647 323.064C658.654 322.976 658.627 322.888 658.572 322.818C658.516 322.749 658.437 322.702 658.349 322.689L641.265 322.576C641.219 322.569 641.172 322.571 641.126 322.581C641.081 322.592 641.038 322.612 641.001 322.64C640.963 322.668 640.932 322.703 640.908 322.743C640.884 322.783 640.869 322.827 640.862 322.873C640.849 322.966 640.872 323.061 640.928 323.136C640.984 323.211 641.067 323.261 641.16 323.275L658.245 323.388C658.262 323.39 658.279 323.392 658.297 323.392Z" fill="#0C0C0C"/>
<path d="M667.937 373.366C668.031 373.372 668.123 373.34 668.194 373.278C668.264 373.216 668.307 373.128 668.313 373.035C668.319 372.941 668.288 372.848 668.226 372.778C668.163 372.707 668.076 372.664 667.982 372.658L556.85 366.033L557.183 321.259L641.149 323.274C641.203 323.281 641.259 323.275 641.311 323.257C641.363 323.239 641.411 323.209 641.449 323.17C641.488 323.13 641.516 323.082 641.533 323.029C641.549 322.976 641.553 322.92 641.544 322.865L636.795 271.746C636.788 271.7 636.772 271.656 636.747 271.616C636.723 271.577 636.69 271.542 636.652 271.515C636.614 271.488 636.572 271.469 636.526 271.459C636.481 271.449 636.434 271.448 636.388 271.456C636.342 271.464 636.298 271.48 636.259 271.505C636.219 271.53 636.185 271.562 636.158 271.6C636.131 271.637 636.112 271.68 636.101 271.725C636.091 271.771 636.089 271.818 636.097 271.864L640.768 322.508L557.022 320.478C556.976 320.466 556.929 320.462 556.882 320.469C556.835 320.475 556.79 320.49 556.749 320.514C556.709 320.538 556.673 320.569 556.645 320.607C556.617 320.645 556.596 320.688 556.585 320.734L556.08 366.196C556.058 366.285 556.072 366.38 556.119 366.459C556.165 366.538 556.241 366.596 556.329 366.62L667.888 373.358C667.904 373.362 667.92 373.364 667.937 373.366Z" fill="#0C0C0C"/>
<path d="M270.992 348.301H261.601L256.334 327.864C256.139 327.136 255.807 325.633 255.337 323.354C254.868 321.074 254.597 319.544 254.525 318.763C254.419 319.721 254.153 321.26 253.727 323.38C253.301 325.5 252.973 327.012 252.743 327.917L247.502 348.301H238.139L228.215 309.398H236.329L241.304 330.634C242.173 334.554 242.803 337.952 243.192 340.825C243.298 339.814 243.542 338.248 243.924 336.129C244.306 334.009 244.665 332.364 245.002 331.192L250.668 309.398H258.462L264.129 331.192C264.377 332.168 264.687 333.659 265.06 335.663C265.433 337.667 265.716 339.388 265.908 340.826C266.086 339.443 266.368 337.717 266.757 335.65C267.145 333.583 267.499 331.911 267.818 330.634L272.767 309.399H280.881L270.992 348.301Z" fill="#0CBC8B"/>
<path d="M308.182 348.301H285.782V309.398H308.182V316.157H294.03V324.699H307.199V331.455H294.03V341.488H308.182V348.301Z" fill="#0CBC8B"/>
<path d="M316.296 348.301V309.398H324.543V341.491H340.318V348.303L316.296 348.301Z" fill="#0CBC8B"/>
<path d="M363.596 315.702C362.198 315.639 360.806 315.925 359.546 316.536C358.287 317.148 357.2 318.064 356.384 319.202C354.681 321.535 353.83 324.786 353.831 328.955C353.831 337.632 357.085 341.97 363.593 341.97C366.991 341.838 370.344 341.145 373.516 339.919V346.837C370.12 348.207 366.484 348.886 362.822 348.833C357.165 348.833 352.838 347.117 349.84 343.684C346.841 340.251 345.343 335.323 345.344 328.901C345.263 325.235 346.018 321.6 347.552 318.27C348.912 315.35 351.124 312.91 353.897 311.271C356.85 309.598 360.2 308.756 363.593 308.836C367.546 308.878 371.438 309.816 374.977 311.577L372.316 318.284C370.887 317.602 369.422 316.998 367.927 316.473C366.538 315.974 365.073 315.713 363.596 315.702Z" fill="#0CBC8B"/>
<path d="M417.093 328.795C417.093 335.235 415.497 340.184 412.304 343.644C409.112 347.104 404.536 348.834 398.577 348.833C392.619 348.833 388.043 347.103 384.851 343.644C381.658 340.185 380.062 335.218 380.062 328.742C380.062 322.266 381.663 317.321 384.864 313.907C388.065 310.492 392.654 308.784 398.63 308.783C404.607 308.783 409.178 310.505 412.345 313.947C415.511 317.389 417.094 322.339 417.093 328.795ZM388.708 328.795C388.708 333.141 389.533 336.415 391.183 338.614C392.833 340.814 395.298 341.914 398.578 341.914C405.158 341.914 408.448 337.541 408.448 328.795C408.448 320.031 405.175 315.649 398.631 315.649C395.35 315.649 392.875 316.754 391.206 318.963C389.537 321.171 388.704 324.449 388.708 328.795Z" fill="#0CBC8B"/>
<path d="M441.62 348.301L432.257 317.778H432.017C432.354 323.988 432.522 328.13 432.523 330.206V348.301H425.153V309.398H436.38L445.585 339.149H445.744L455.507 309.398H466.733V348.301H459.046V329.886C459.046 329.017 459.059 328.015 459.085 326.879C459.111 325.743 459.23 322.727 459.444 317.832H459.205L449.176 348.301H441.62Z" fill="#0CBC8B"/>
<path d="M498.923 348.301H476.522V309.398H498.921V316.157H484.77V324.699H497.939V331.455H484.77V341.488H498.923V348.301Z" fill="#0CBC8B"/>
</g>
<defs>
<clipPath id="clip0_158_4132">
<rect width="701" height="391" fill="white"/>
</clipPath>
</defs>
</svg>
